$MeshFormat
2.2 0 8
$EndMeshFormat
$Nodes
502
1 5.942936302590089e-19 -4.334033373191124e-18 -0.03799999999999999
2 0.011 -3.112788046103452e-18 -0.02699999999999999
3 0.011 2.882416286872393e-18 0.027
4 5.942936302590089e-19 4.103661613960065e-18 0.038
5 1.267849369790053e-18 -0.011 -0.02699999999999999
6 1.267849369790053e-18 -0.01099999999999999 0.02700000000000001
7 -0.011 -4.45989952516554e-18 -0.02699999999999999
8 -0.011 1.535304807810305e-18 0.027
9 -1.426373588334124e-18 0.01099999999999999 -0.02699999999999999
10 -1.426373588334124e-18 0.011 0.027
11 0.003399186938124421 -4.274261372425189e-18 -0.03746162167924667
12 0.006465637775217204 -4.10079627001837e-18 -0.0358991869381244
13 0.008899186938124422 -3.830618038796683e-18 -0.0334656377752172
14 0.01046162167924669 -3.490173606474534e-18 -0.03039918693812441
15 0.011 -2.738087775292462e-18 -0.02362499999999999
16 0.011 -2.363387504481471e-18 -0.02024999999999999
17 0.011 -1.988687233670481e-18 -0.01687499999999999
18 0.011 -1.613986962859491e-18 -0.01349999999999999
19 0.011 -1.2392866920485e-18 -0.01012499999999999
20 0.011 -8.6458642123751e-19 -0.00674999999999999
21 0.011 -4.898861504265198e-19 -0.003374999999999992
22 0.011 -1.151858796155294e-19 7.25590247690717e-18
23 0.011 2.595143911954609e-19 0.003375000000000006
24 0.011 6.342146620064515e-19 0.006750000000000009
25 0.011 1.008914932817442e-18 0.01012500000000001
26 0.011 1.383615203628432e-18 0.01350000000000001
27 0.011 1.758315474439422e-18 0.016875
28 0.011 2.133015745250413e-18 0.02025
29 0.011 2.507716016061403e-18 0.02362500000000001
30 0.01046162167924669 3.259801847243475e-18 0.03039918693812442
31 0.008899186938124422 3.600246279565624e-18 0.0334656377752172
32 0.006465637775217204 3.870424510787311e-18 0.03589918693812442
33 0.003399186938124423 4.04388961319413e-18 0.03746162167924669
34 8.024338004328871e-19 -0.003399186938124424 -0.03746162167924667
35 9.901997605523072e-19 -0.006465637775217206 -0.0358991869381244
36 1.139211670198409e-18 -0.008899186938124424 -0.0334656377752172
37 1.23488320542801e-18 -0.01046162167924669 -0.03039918693812441
38 0.01046162167924669 -0.003399186938124423 -0.02699999999999999
39 0.008899186938124422 -0.006465637775217204 -0.02699999999999999
40 0.006465637775217204 -0.008899186938124424 -0.02699999999999999
41 0.003399186938124423 -0.01046162167924669 -0.02699999999999999
42 1.267849369790053e-18 -0.011 -0.02362499999999999
43 1.267849369790053e-18 -0.011 -0.02024999999999999
44 1.267849369790053e-18 -0.011 -0.01687499999999999
45 1.267849369790053e-18 -0.011 -0.01349999999999999
46 1.267849369790053e-18 -0.011 -0.01012499999999999
47 1.267849369790053e-18 -0.011 -0.006749999999999989
48 1.267849369790053e-18 -0.011 -0.00337499999999999
49 1.267849369790053e-18 -0.011 9.698393131082514e-18
50 1.267849369790053e-18 -0.011 0.003375000000000009
51 1.267849369790053e-18 -0.011 0.006750000000000011
52 1.267849369790053e-18 -0.011 0.01012500000000001
53 1.267849369790053e-18 -0.011 0.01350000000000001
54 1.267849369790053e-18 -0.011 0.01687500000000001
55 1.267849369790053e-18 -0.01099999999999999 0.02025000000000001
56 1.267849369790053e-18 -0.01099999999999999 0.02362500000000001
57 0.01046162167924669 -0.003399186938124417 0.02700000000000001
58 0.008899186938124422 -0.006465637775217199 0.02700000000000001
59 0.006465637775217204 -0.008899186938124417 0.02700000000000001
60 0.003399186938124423 -0.01046162167924668 0.02700000000000001
61 1.23488320542801e-18 -0.01046162167924668 0.03039918693812443
62 1.139211670198409e-18 -0.008899186938124417 0.03346563777521721
63 9.901997605523072e-19 -0.006465637775217197 0.03589918693812442
64 8.024338004328873e-19 -0.003399186938124417 0.03746162167924669
65 -0.00339918693812442 -4.690541712772945e-18 -0.03746162167924667
66 -0.006465637775217204 -4.892608530604966e-18 -0.0358991869381244
67 -0.008899186938124422 -4.920454118675484e-18 -0.0334656377752172
68 -0.01046162167924669 -4.771352756812535e-18 -0.03039918693812441
69 -0.00339918693812442 -0.01046162167924669 -0.02699999999999999
70 -0.006465637775217204 -0.008899186938124424 -0.02699999999999999
71 -0.008899186938124422 -0.006465637775217206 -0.02699999999999999
72 -0.01046162167924669 -0.003399186938124424 -0.02699999999999999
73 -0.011 -4.085199254354549e-18 -0.02362499999999999
74 -0.011 -3.710498983543559e-18 -0.02024999999999999
75 -0.011 -3.335798712732568e-18 -0.01687499999999999
76 -0.011 -2.961098441921578e-18 -0.01349999999999999
77 -0.011 -2.586398171110588e-18 -0.01012499999999999
78 -0.011 -2.211697900299598e-18 -0.00674999999999999
79 -0.011 -1.836997629488608e-18 -0.003374999999999992
80 -0.011 -1.462297358677617e-18 7.25590247690717e-18
81 -0.011 -1.087597087866627e-18 0.003375000000000006
82 -0.011 -7.128968170556362e-19 0.006750000000000009
83 -0.011 -3.381965462446461e-19 0.01012500000000001
84 -0.011 3.650372456634437e-20 0.01350000000000001
85 -0.011 4.112039953773347e-19 0.016875
86 -0.011 7.85904266188325e-19 0.02025
87 -0.011 1.160604536999315e-18 0.02362500000000001
88 -0.00339918693812442 -0.01046162167924668 0.02700000000000001
89 -0.006465637775217204 -0.008899186938124417 0.02700000000000001
90 -0.008899186938124422 -0.006465637775217201 0.02700000000000001
91 -0.01046162167924669 -0.003399186938124419 0.02700000000000001
92 -0.01046162167924669 1.978622696905474e-18 0.03039918693812442
93 -0.008899186938124422 2.510410199686824e-18 0.0334656377752172
94 -0.006465637775217204 3.078612250200714e-18 0.03589918693812442
95 -0.003399186938124421 3.627609272846373e-18 0.03746162167924669
96 -3.012688026262573e-20 0.003399186938124416 -0.03746162167924667
97 -5.93424760620886e-19 0.006465637775217197 -0.03589918693812441
98 -1.040460489559192e-18 0.008899186938124417 -0.0334656377752172
99 -1.327475095247993e-18 0.01046162167924668 -0.03039918693812442
100 -0.01046162167924669 0.003399186938124416 -0.02699999999999999
101 -0.008899186938124422 0.006465637775217199 -0.02699999999999999
102 -0.006465637775217204 0.008899186938124417 -0.02699999999999999
103 -0.003399186938124422 0.01046162167924668 -0.02699999999999999
104 -1.426373588334124e-18 0.01099999999999999 -0.02362499999999999
105 -1.426373588334124e-18 0.01099999999999999 -0.02024999999999999
106 -1.426373588334124e-18 0.011 -0.01687499999999999
107 -1.426373588334124e-18 0.011 -0.01349999999999999
108 -1.426373588334124e-18 0.011 -0.010125
109 -1.426373588334124e-18 0.011 -0.006749999999999993
110 -1.426373588334124e-18 0.011 -0.003374999999999995
111 -1.426373588334124e-18 0.011 4.813411822731826e-18
112 -1.426373588334124e-18 0.011 0.003375000000000004
113 -1.426373588334124e-18 0.011 0.006750000000000007
114 -1.426373588334124e-18 0.011 0.010125
115 -1.426373588334124e-18 0.011 0.01350000000000001
116 -1.426373588334124e-18 0.011 0.016875
117 -1.426373588334124e-18 0.011 0.02025
118 -1.426373588334124e-18 0.011 0.023625
119 -0.01046162167924669 0.003399186938124422 0.027
120 -0.008899186938124422 0.006465637775217204 0.027
121 -0.006465637775217204 0.008899186938124424 0.027
122 -0.003399186938124422 0.01046162167924669 0.027
123 -1.327475095247993e-18 0.01046162167924669 0.03039918693812442
124 -1.040460489559192e-18 0.008899186938124424 0.0334656377752172
125 -5.93424760620886e-19 0.006465637775217206 0.03589918693812442
126 -3.012688026262581e-20 0.003399186938124426 0.03746162167924669
127 0.003399186938124421 0.01046162167924668 -0.02699999999999999
128 0.006465637775217204 0.008899186938124418 -0.02699999999999999
129 0.00889918693812442 0.006465637775217202 -0.02699999999999999
130 0.01046162167924669 0.00339918693812442 -0.02699999999999999
131 0.003399186938124421 0.01046162167924669 0.027
132 0.006465637775217204 0.008899186938124424 0.027
133 0.00889918693812442 0.006465637775217208 0.027
134 0.01046162167924669 0.003399186938124425 0.027
135 0.003232818887608602 -0.001050406530937793 -0.03746162167924667
136 0.002750000000000001 -0.001997991952014746 -0.03746162167924667
137 0.001997991952014743 -0.002750000000000004 -0.03746162167924667
138 0.001050406530937789 -0.003232818887608605 -0.03746162167924667
139 0.006149186938124422 -0.001997991952014745 -0.0358991869381244
140 0.005230810839623345 -0.003800406530937793 -0.0358991869381244
141 0.00380040653093779 -0.005230810839623347 -0.0358991869381244
142 0.001997991952014744 -0.006149186938124425 -0.0358991869381244
143 0.008463629727231947 -0.002750000000000003 -0.0334656377752172
144 0.007199593469062212 -0.005230810839623346 -0.0334656377752172
145 0.005230810839623345 -0.007199593469062215 -0.0334656377752172
146 0.002750000000000001 -0.00846362972723195 -0.0334656377752172
147 0.009949593469062209 -0.003232818887608604 -0.03039918693812441
148 0.008463629727231945 -0.006149186938124424 -0.03039918693812441
149 0.006149186938124422 -0.008463629727231947 -0.03039918693812441
150 0.003232818887608602 -0.009949593469062209 -0.03039918693812441
151 0.01046162167924669 -0.003399186938124423 -0.02362499999999999
152 0.008899186938124422 -0.006465637775217204 -0.02362499999999999
153 0.006465637775217204 -0.008899186938124424 -0.02362499999999999
154 0.003399186938124423 -0.01046162167924669 -0.02362499999999999
155 0.01046162167924669 -0.003399186938124422 -0.02024999999999999
156 0.008899186938124422 -0.006465637775217204 -0.02024999999999999
157 0.006465637775217204 -0.008899186938124424 -0.02024999999999999
158 0.003399186938124423 -0.01046162167924669 -0.02024999999999999
159 0.01046162167924669 -0.003399186938124422 -0.01687499999999999
160 0.008899186938124422 -0.006465637775217204 -0.01687499999999999
161 0.006465637775217204 -0.008899186938124422 -0.01687499999999999
162 0.003399186938124423 -0.01046162167924669 -0.01687499999999999
163 0.01046162167924669 -0.003399186938124421 -0.01349999999999999
164 0.008899186938124422 -0.006465637775217204 -0.01349999999999999
165 0.006465637775217204 -0.008899186938124422 -0.01349999999999999
166 0.003399186938124423 -0.01046162167924669 -0.01349999999999999
167 0.01046162167924669 -0.003399186938124421 -0.01012499999999999
168 0.008899186938124422 -0.006465637775217204 -0.01012499999999999
169 0.006465637775217204 -0.008899186938124422 -0.01012499999999999
170 0.003399186938124423 -0.01046162167924669 -0.01012499999999999
171 0.01046162167924669 -0.003399186938124421 -0.00674999999999999
172 0.008899186938124422 -0.006465637775217204 -0.006749999999999989
173 0.006465637775217204 -0.008899186938124422 -0.006749999999999989
174 0.003399186938124423 -0.01046162167924669 -0.006749999999999989
175 0.01046162167924669 -0.003399186938124421 -0.003374999999999991
176 0.008899186938124422 -0.006465637775217202 -0.003374999999999991
177 0.006465637775217204 -0.00889918693812442 -0.003374999999999991
178 0.003399186938124423 -0.01046162167924669 -0.00337499999999999
179 0.01046162167924669 -0.00339918693812442 8.010673597649333e-18
180 0.008899186938124422 -0.006465637775217202 8.691562462293632e-18
181 0.006465637775217204 -0.00889918693812442 9.231918924737007e-18
182 0.003399186938124423 -0.01046162167924669 9.578849129550645e-18
183 0.01046162167924669 -0.00339918693812442 0.003375000000000008
184 0.008899186938124422 -0.006465637775217202 0.003375000000000008
185 0.006465637775217204 -0.00889918693812442 0.003375000000000009
186 0.003399186938124423 -0.01046162167924669 0.003375000000000009
187 0.01046162167924669 -0.00339918693812442 0.00675000000000001
188 0.008899186938124422 -0.006465637775217201 0.00675000000000001
189 0.006465637775217204 -0.008899186938124418 0.006750000000000011
190 0.003399186938124423 -0.01046162167924668 0.006750000000000011
191 0.01046162167924669 -0.003399186938124419 0.01012500000000001
192 0.008899186938124422 -0.006465637775217201 0.01012500000000001
193 0.006465637775217204 -0.008899186938124418 0.01012500000000001
194 0.003399186938124423 -0.01046162167924668 0.01012500000000001
195 0.01046162167924669 -0.003399186938124419 0.01350000000000001
196 0.008899186938124422 -0.006465637775217201 0.01350000000000001
197 0.006465637775217204 -0.008899186938124418 0.01350000000000001
198 0.003399186938124423 -0.01046162167924668 0.01350000000000001
199 0.01046162167924669 -0.003399186938124418 0.01687500000000001
200 0.008899186938124422 -0.006465637775217201 0.01687500000000001
201 0.006465637775217204 -0.008899186938124418 0.01687500000000001
202 0.003399186938124423 -0.01046162167924668 0.01687500000000001
203 0.01046162167924669 -0.003399186938124418 0.02025
204 0.008899186938124422 -0.006465637775217199 0.02025000000000001
205 0.006465637775217204 -0.008899186938124417 0.02025000000000001
206 0.003399186938124423 -0.01046162167924668 0.02025000000000001
207 0.01046162167924669 -0.003399186938124417 0.02362500000000001
208 0.008899186938124422 -0.006465637775217199 0.02362500000000001
209 0.006465637775217204 -0.008899186938124417 0.02362500000000001
210 0.003399186938124423 -0.01046162167924668 0.02362500000000001
211 0.009949593469062209 -0.003232818887608597 0.03039918693812443
212 0.008463629727231945 -0.006149186938124417 0.03039918693812443
213 0.006149186938124422 -0.008463629727231942 0.03039918693812443
214 0.003232818887608602 -0.009949593469062204 0.03039918693812443
215 0.008463629727231947 -0.002749999999999996 0.0334656377752172
216 0.007199593469062212 -0.005230810839623339 0.03346563777521721
217 0.005230810839623345 -0.007199593469062206 0.03346563777521721
218 0.002750000000000001 -0.008463629727231942 0.03346563777521721
219 0.006149186938124422 -0.001997991952014738 0.03589918693812442
220 0.005230810839623345 -0.003800406530937784 0.03589918693812442
221 0.00380040653093779 -0.005230810839623339 0.03589918693812442
222 0.001997991952014744 -0.006149186938124416 0.03589918693812442
223 0.003232818887608602 -0.001050406530937785 0.03746162167924669
224 0.002750000000000001 -0.001997991952014737 0.03746162167924669
225 0.001997991952014743 -0.002749999999999995 0.03746162167924669
226 0.001050406530937789 -0.003232818887608597 0.03746162167924669
227 -0.001050406530937788 -0.003232818887608605 -0.03746162167924667
228 -0.001997991952014741 -0.002750000000000004 -0.03746162167924667
229 -0.002749999999999999 -0.001997991952014746 -0.03746162167924667
230 -0.003232818887608601 -0.001050406530937793 -0.03746162167924667
231 -0.001997991952014741 -0.006149186938124425 -0.0358991869381244
232 -0.003800406530937789 -0.005230810839623347 -0.0358991869381244
233 -0.005230810839623344 -0.003800406530937793 -0.0358991869381244
234 -0.006149186938124421 -0.001997991952014747 -0.0358991869381244
235 -0.002749999999999998 -0.00846362972723195 -0.0334656377752172
236 -0.005230810839623343 -0.007199593469062215 -0.0334656377752172
237 -0.007199593469062212 -0.005230810839623346 -0.0334656377752172
238 -0.008463629727231947 -0.002750000000000004 -0.0334656377752172
239 -0.0032328188876086 -0.009949593469062209 -0.03039918693812441
240 -0.006149186938124419 -0.008463629727231947 -0.03039918693812441
241 -0.008463629727231945 -0.006149186938124425 -0.03039918693812441
242 -0.009949593469062209 -0.003232818887608604 -0.03039918693812441
243 -0.00339918693812442 -0.01046162167924669 -0.02362499999999999
244 -0.006465637775217204 -0.008899186938124424 -0.02362499999999999
245 -0.008899186938124422 -0.006465637775217206 -0.02362499999999999
246 -0.01046162167924669 -0.003399186938124424 -0.02362499999999999
247 -0.00339918693812442 -0.01046162167924669 -0.02024999999999999
248 -0.006465637775217204 -0.008899186938124424 -0.02024999999999999
249 -0.008899186938124422 -0.006465637775217206 -0.02024999999999999
250 -0.01046162167924669 -0.003399186938124423 -0.02024999999999999
251 -0.00339918693812442 -0.01046162167924669 -0.01687499999999999
252 -0.006465637775217204 -0.008899186938124422 -0.01687499999999999
253 -0.008899186938124422 -0.006465637775217204 -0.01687499999999999
254 -0.01046162167924669 -0.003399186938124423 -0.01687499999999999
255 -0.00339918693812442 -0.01046162167924669 -0.01349999999999999
256 -0.006465637775217204 -0.008899186938124422 -0.01349999999999999
257 -0.008899186938124422 -0.006465637775217204 -0.01349999999999999
258 -0.01046162167924669 -0.003399186938124423 -0.01349999999999999
259 -0.00339918693812442 -0.01046162167924669 -0.01012499999999999
260 -0.006465637775217204 -0.008899186938124422 -0.01012499999999999
261 -0.008899186938124422 -0.006465637775217204 -0.01012499999999999
262 -0.01046162167924669 -0.003399186938124423 -0.01012499999999999
263 -0.00339918693812442 -0.01046162167924669 -0.006749999999999989
264 -0.006465637775217204 -0.008899186938124422 -0.006749999999999989
265 -0.008899186938124422 -0.006465637775217204 -0.006749999999999989
266 -0.01046162167924669 -0.003399186938124422 -0.00674999999999999
267 -0.00339918693812442 -0.01046162167924669 -0.00337499999999999
268 -0.006465637775217204 -0.00889918693812442 -0.003374999999999991
269 -0.008899186938124422 -0.006465637775217204 -0.003374999999999991
270 -0.01046162167924669 -0.003399186938124422 -0.003374999999999991
271 -0.00339918693812442 -0.01046162167924669 9.578849129550645e-18
272 -0.006465637775217204 -0.00889918693812442 9.231918924737007e-18
273 -0.008899186938124422 -0.006465637775217204 8.691562462293633e-18
274 -0.01046162167924669 -0.003399186938124421 8.010673597649333e-18
275 -0.00339918693812442 -0.01046162167924669 0.003375000000000009
276 -0.006465637775217204 -0.00889918693812442 0.003375000000000009
277 -0.008899186938124422 -0.006465637775217204 0.003375000000000008
278 -0.01046162167924669 -0.003399186938124421 0.003375000000000008
279 -0.00339918693812442 -0.01046162167924668 0.006750000000000011
280 -0.006465637775217204 -0.008899186938124418 0.006750000000000011
281 -0.008899186938124422 -0.006465637775217202 0.00675000000000001
282 -0.01046162167924669 -0.003399186938124421 0.00675000000000001
283 -0.00339918693812442 -0.01046162167924668 0.01012500000000001
284 -0.006465637775217204 -0.008899186938124418 0.01012500000000001
285 -0.008899186938124422 -0.006465637775217202 0.01012500000000001
286 -0.01046162167924669 -0.00339918693812442 0.01012500000000001
287 -0.00339918693812442 -0.01046162167924668 0.01350000000000001
288 -0.006465637775217204 -0.008899186938124418 0.01350000000000001
289 -0.008899186938124422 -0.006465637775217202 0.01350000000000001
290 -0.01046162167924669 -0.00339918693812442 0.01350000000000001
291 -0.00339918693812442 -0.01046162167924668 0.01687500000000001
292 -0.006465637775217204 -0.008899186938124418 0.01687500000000001
293 -0.008899186938124422 -0.006465637775217202 0.01687500000000001
294 -0.01046162167924669 -0.00339918693812442 0.01687500000000001
295 -0.00339918693812442 -0.01046162167924668 0.02025000000000001
296 -0.006465637775217204 -0.008899186938124417 0.02025000000000001
297 -0.008899186938124422 -0.006465637775217201 0.02025000000000001
298 -0.01046162167924669 -0.00339918693812442 0.02025
299 -0.00339918693812442 -0.01046162167924668 0.02362500000000001
300 -0.006465637775217204 -0.008899186938124417 0.02362500000000001
301 -0.008899186938124422 -0.006465637775217201 0.02362500000000001
302 -0.01046162167924669 -0.003399186938124419 0.02362500000000001
303 -0.0032328188876086 -0.009949593469062204 0.03039918693812443
304 -0.006149186938124419 -0.008463629727231942 0.03039918693812443
305 -0.008463629727231945 -0.006149186938124417 0.03039918693812443
306 -0.009949593469062209 -0.003232818887608597 0.03039918693812443
307 -0.002749999999999998 -0.008463629727231942 0.03346563777521721
308 -0.005230810839623343 -0.007199593469062206 0.03346563777521721
309 -0.007199593469062212 -0.005230810839623339 0.03346563777521721
310 -0.008463629727231947 -0.002749999999999997 0.0334656377752172
311 -0.001997991952014741 -0.006149186938124416 0.03589918693812442
312 -0.003800406530937789 -0.005230810839623339 0.03589918693812442
313 -0.005230810839623344 -0.003800406530937784 0.03589918693812442
314 -0.006149186938124421 -0.001997991952014739 0.03589918693812442
315 -0.001050406530937788 -0.003232818887608597 0.03746162167924669
316 -0.001997991952014741 -0.002749999999999995 0.03746162167924669
317 -0.002749999999999999 -0.001997991952014737 0.03746162167924669
318 -0.003232818887608601 -0.001050406530937785 0.03746162167924669
319 -0.003232818887608601 0.001050406530937784 -0.03746162167924667
320 -0.002749999999999999 0.001997991952014737 -0.03746162167924667
321 -0.001997991952014742 0.002749999999999994 -0.03746162167924667
322 -0.001050406530937789 0.003232818887608597 -0.03746162167924667
323 -0.006149186938124421 0.001997991952014738 -0.0358991869381244
324 -0.005230810839623344 0.003800406530937784 -0.0358991869381244
325 -0.003800406530937789 0.005230810839623338 -0.03589918693812441
326 -0.001997991952014743 0.006149186938124416 -0.03589918693812441
327 -0.008463629727231947 0.002749999999999995 -0.0334656377752172
328 -0.007199593469062212 0.005230810839623339 -0.0334656377752172
329 -0.005230810839623344 0.007199593469062205 -0.0334656377752172
330 -0.00275 0.008463629727231942 -0.0334656377752172
331 -0.009949593469062209 0.003232818887608596 -0.03039918693812442
332 -0.008463629727231945 0.006149186938124415 -0.03039918693812442
333 -0.006149186938124421 0.008463629727231942 -0.03039918693812442
334 -0.003232818887608602 0.009949593469062204 -0.03039918693812442
335 -0.01046162167924669 0.003399186938124416 -0.02362499999999999
336 -0.008899186938124422 0.006465637775217199 -0.02362499999999999
337 -0.006465637775217204 0.008899186938124417 -0.02362499999999999
338 -0.003399186938124422 0.01046162167924668 -0.02362499999999999
339 -0.01046162167924669 0.003399186938124417 -0.02024999999999999
340 -0.008899186938124422 0.006465637775217199 -0.02024999999999999
341 -0.006465637775217204 0.008899186938124417 -0.02024999999999999
342 -0.003399186938124422 0.01046162167924668 -0.02024999999999999
343 -0.01046162167924669 0.003399186938124417 -0.01687499999999999
344 -0.008899186938124422 0.006465637775217201 -0.01687499999999999
345 -0.006465637775217204 0.008899186938124418 -0.01687499999999999
346 -0.003399186938124422 0.01046162167924668 -0.01687499999999999
347 -0.01046162167924669 0.003399186938124418 -0.01349999999999999
348 -0.008899186938124422 0.006465637775217201 -0.01349999999999999
349 -0.006465637775217204 0.008899186938124418 -0.01349999999999999
350 -0.003399186938124422 0.01046162167924668 -0.01349999999999999
351 -0.01046162167924669 0.003399186938124418 -0.01012499999999999
352 -0.008899186938124422 0.006465637775217201 -0.01012499999999999
353 -0.006465637775217204 0.008899186938124418 -0.010125
354 -0.003399186938124422 0.01046162167924668 -0.010125
355 -0.01046162167924669 0.003399186938124419 -0.006749999999999991
356 -0.008899186938124422 0.006465637775217201 -0.006749999999999991
357 -0.006465637775217204 0.008899186938124418 -0.006749999999999993
358 -0.003399186938124422 0.01046162167924668 -0.006749999999999993
359 -0.01046162167924669 0.003399186938124419 -0.003374999999999993
360 -0.008899186938124422 0.006465637775217202 -0.003374999999999993
361 -0.006465637775217204 0.00889918693812442 -0.003374999999999994
362 -0.003399186938124422 0.01046162167924669 -0.003374999999999995
363 -0.01046162167924669 0.00339918693812442 6.501131356165007e-18
364 -0.008899186938124422 0.006465637775217202 5.820242491520708e-18
365 -0.006465637775217204 0.00889918693812442 5.279886029077334e-18
366 -0.003399186938124422 0.01046162167924669 4.932955824263696e-18
367 -0.01046162167924669 0.00339918693812442 0.003375000000000006
368 -0.008899186938124422 0.006465637775217202 0.003375000000000005
369 -0.006465637775217204 0.00889918693812442 0.003375000000000005
370 -0.003399186938124422 0.01046162167924669 0.003375000000000004
371 -0.01046162167924669 0.00339918693812442 0.006750000000000009
372 -0.008899186938124422 0.006465637775217204 0.006750000000000007
373 -0.006465637775217204 0.008899186938124422 0.006750000000000007
374 -0.003399186938124422 0.01046162167924669 0.006750000000000007
375 -0.01046162167924669 0.003399186938124421 0.01012500000000001
376 -0.008899186938124422 0.006465637775217204 0.010125
377 -0.006465637775217204 0.008899186938124422 0.010125
378 -0.003399186938124422 0.01046162167924669 0.010125
379 -0.01046162167924669 0.003399186938124421 0.01350000000000001
380 -0.008899186938124422 0.006465637775217204 0.01350000000000001
381 -0.006465637775217204 0.008899186938124422 0.01350000000000001
382 -0.003399186938124422 0.01046162167924669 0.01350000000000001
383 -0.01046162167924669 0.003399186938124421 0.016875
384 -0.008899186938124422 0.006465637775217204 0.016875
385 -0.006465637775217204 0.008899186938124422 0.016875
386 -0.003399186938124422 0.01046162167924669 0.016875
387 -0.01046162167924669 0.003399186938124421 0.02025
388 -0.008899186938124422 0.006465637775217204 0.02025
389 -0.006465637775217204 0.008899186938124424 0.02025
390 -0.003399186938124422 0.01046162167924669 0.02025
391 -0.01046162167924669 0.003399186938124422 0.02362500000000001
392 -0.008899186938124422 0.006465637775217204 0.02362500000000001
393 -0.006465637775217204 0.008899186938124424 0.023625
394 -0.003399186938124422 0.01046162167924669 0.023625
395 -0.009949593469062209 0.003232818887608603 0.03039918693812442
396 -0.008463629727231945 0.006149186938124422 0.03039918693812442
397 -0.006149186938124421 0.008463629727231947 0.03039918693812442
398 -0.003232818887608602 0.009949593469062209 0.03039918693812442
399 -0.008463629727231947 0.002750000000000002 0.0334656377752172
400 -0.007199593469062212 0.005230810839623345 0.0334656377752172
401 -0.005230810839623344 0.007199593469062213 0.0334656377752172
402 -0.00275 0.00846362972723195 0.0334656377752172
403 -0.006149186938124421 0.001997991952014745 0.03589918693812442
404 -0.005230810839623344 0.003800406530937793 0.03589918693812442
405 -0.003800406530937789 0.005230810839623346 0.03589918693812442
406 -0.001997991952014743 0.006149186938124425 0.03589918693812442
407 -0.003232818887608601 0.001050406530937793 0.03746162167924669
408 -0.00275 0.001997991952014746 0.03746162167924669
409 -0.001997991952014742 0.002750000000000004 0.03746162167924669
410 -0.001050406530937789 0.003232818887608605 0.03746162167924669
411 0.001050406530937788 0.003232818887608597 -0.03746162167924667
412 0.001997991952014743 0.002749999999999995 -0.03746162167924667
413 0.00275 0.001997991952014738 -0.03746162167924667
414 0.003232818887608602 0.001050406530937786 -0.03746162167924667
415 0.001997991952014742 0.006149186938124416 -0.03589918693812441
416 0.003800406530937789 0.005230810839623339 -0.03589918693812441
417 0.005230810839623345 0.003800406530937785 -0.0358991869381244
418 0.006149186938124422 0.00199799195201474 -0.0358991869381244
419 0.002749999999999999 0.008463629727231942 -0.0334656377752172
420 0.005230810839623344 0.007199593469062206 -0.0334656377752172
421 0.007199593469062211 0.005230810839623341 -0.0334656377752172
422 0.008463629727231947 0.002749999999999998 -0.0334656377752172
423 0.003232818887608601 0.009949593469062204 -0.03039918693812442
424 0.00614918693812442 0.008463629727231942 -0.03039918693812442
425 0.008463629727231943 0.006149186938124418 -0.03039918693812442
426 0.009949593469062209 0.0032328188876086 -0.03039918693812442
427 0.003399186938124421 0.01046162167924668 -0.02362499999999999
428 0.006465637775217204 0.008899186938124418 -0.02362499999999999
429 0.00889918693812442 0.006465637775217202 -0.02362499999999999
430 0.01046162167924669 0.00339918693812442 -0.02362499999999999
431 0.003399186938124421 0.01046162167924668 -0.02024999999999999
432 0.006465637775217204 0.008899186938124418 -0.02024999999999999
433 0.00889918693812442 0.006465637775217202 -0.02024999999999999
434 0.01046162167924669 0.00339918693812442 -0.02024999999999999
435 0.003399186938124421 0.01046162167924668 -0.01687499999999999
436 0.006465637775217204 0.00889918693812442 -0.01687499999999999
437 0.00889918693812442 0.006465637775217204 -0.01687499999999999
438 0.01046162167924669 0.00339918693812442 -0.01687499999999999
439 0.003399186938124421 0.01046162167924668 -0.01349999999999999
440 0.006465637775217204 0.00889918693812442 -0.01349999999999999
441 0.00889918693812442 0.006465637775217204 -0.01349999999999999
442 0.01046162167924669 0.003399186938124421 -0.01349999999999999
443 0.003399186938124421 0.01046162167924668 -0.010125
444 0.006465637775217204 0.00889918693812442 -0.010125
445 0.00889918693812442 0.006465637775217204 -0.01012499999999999
446 0.01046162167924669 0.003399186938124421 -0.01012499999999999
447 0.003399186938124421 0.01046162167924668 -0.006749999999999993
448 0.006465637775217204 0.00889918693812442 -0.006749999999999993
449 0.00889918693812442 0.006465637775217204 -0.006749999999999991
450 0.01046162167924669 0.003399186938124421 -0.006749999999999991
451 0.003399186938124421 0.01046162167924669 -0.003374999999999995
452 0.006465637775217204 0.008899186938124422 -0.003374999999999994
453 0.00889918693812442 0.006465637775217204 -0.003374999999999993
454 0.01046162167924669 0.003399186938124421 -0.003374999999999993
455 0.003399186938124421 0.01046162167924669 4.932955824263696e-18
456 0.006465637775217204 0.008899186938124422 5.279886029077333e-18
457 0.00889918693812442 0.006465637775217204 5.820242491520708e-18
458 0.01046162167924669 0.003399186938124422 6.501131356165006e-18
459 0.003399186938124421 0.01046162167924669 0.003375000000000004
460 0.006465637775217204 0.008899186938124422 0.003375000000000005
461 0.00889918693812442 0.006465637775217204 0.003375000000000005
462 0.01046162167924669 0.003399186938124423 0.003375000000000006
463 0.003399186938124421 0.01046162167924669 0.006750000000000007
464 0.006465637775217204 0.008899186938124424 0.006750000000000007
465 0.00889918693812442 0.006465637775217206 0.006750000000000007
466 0.01046162167924669 0.003399186938124423 0.006750000000000009
467 0.003399186938124421 0.01046162167924669 0.010125
468 0.006465637775217204 0.008899186938124424 0.010125
469 0.00889918693812442 0.006465637775217206 0.010125
470 0.01046162167924669 0.003399186938124423 0.01012500000000001
471 0.003399186938124421 0.01046162167924669 0.01350000000000001
472 0.006465637775217204 0.008899186938124424 0.01350000000000001
473 0.00889918693812442 0.006465637775217206 0.01350000000000001
474 0.01046162167924669 0.003399186938124423 0.01350000000000001
475 0.003399186938124421 0.01046162167924669 0.016875
476 0.006465637775217204 0.008899186938124424 0.016875
477 0.00889918693812442 0.006465637775217206 0.016875
478 0.01046162167924669 0.003399186938124424 0.016875
479 0.003399186938124421 0.01046162167924669 0.02025
480 0.006465637775217204 0.008899186938124424 0.02025
481 0.00889918693812442 0.006465637775217208 0.02025
482 0.01046162167924669 0.003399186938124424 0.02025
483 0.003399186938124421 0.01046162167924669 0.023625
484 0.006465637775217204 0.008899186938124424 0.023625
485 0.00889918693812442 0.006465637775217208 0.02362500000000001
486 0.01046162167924669 0.003399186938124425 0.02362500000000001
487 0.003232818887608601 0.009949593469062209 0.03039918693812442
488 0.00614918693812442 0.008463629727231949 0.03039918693812442
489 0.008463629727231943 0.006149186938124425 0.03039918693812442
490 0.009949593469062209 0.003232818887608607 0.03039918693812442
491 0.002749999999999999 0.00846362972723195 0.0334656377752172
492 0.005230810839623344 0.007199593469062215 0.0334656377752172
493 0.007199593469062211 0.005230810839623349 0.0334656377752172
494 0.008463629727231947 0.002750000000000005 0.0334656377752172
495 0.001997991952014742 0.006149186938124425 0.03589918693812442
496 0.003800406530937789 0.005230810839623347 0.03589918693812442
497 0.005230810839623345 0.003800406530937793 0.03589918693812442
498 0.006149186938124422 0.001997991952014748 0.03589918693812442
499 0.001050406530937788 0.003232818887608605 0.03746162167924669
500 0.001997991952014743 0.002750000000000005 0.03746162167924669
501 0.002750000000000001 0.001997991952014747 0.03746162167924669
502 0.003232818887608602 0.001050406530937794 0.03746162167924669
$EndNodes
$Elements
1000
1 2 2 0 1 1 11 135
2 2 2 0 1 1 135 136
3 2 2 0 1 1 136 137
4 2 2 0 1 1 137 138
5 2 2 0 1 1 138 34
6 2 2 0 1 11 12 139
7 2 2 0 1 11 139 135
8 2 2 0 1 135 139 140
9 2 2 0 1 135 140 136
10 2 2 0 1 136 140 141
11 2 2 0 1 136 141 137
12 2 2 0 1 137 141 142
13 2 2 0 1 137 142 138
14 2 2 0 1 138 142 35
15 2 2 0 1 138 35 34
16 2 2 0 1 12 13 143
17 2 2 0 1 12 143 139
18 2 2 0 1 139 143 144
19 2 2 0 1 139 144 140
20 2 2 0 1 140 144 145
21 2 2 0 1 140 145 141
22 2 2 0 1 141 145 146
23 2 2 0 1 141 146 142
24 2 2 0 1 142 146 36
25 2 2 0 1 142 36 35
26 2 2 0 1 13 14 147
27 2 2 0 1 13 147 143
28 2 2 0 1 143 147 148
29 2 2 0 1 143 148 144
30 2 2 0 1 144 148 149
31 2 2 0 1 144 149 145
32 2 2 0 1 145 149 150
33 2 2 0 1 145 150 146
34 2 2 0 1 146 150 37
35 2 2 0 1 146 37 36
36 2 2 0 1 14 2 38
37 2 2 0 1 14 38 147
38 2 2 0 1 147 38 39
39 2 2 0 1 147 39 148
40 2 2 0 1 148 39 40
41 2 2 0 1 148 40 149
42 2 2 0 1 149 40 41
43 2 2 0 1 149 41 150
44 2 2 0 1 150 41 5
45 2 2 0 1 150 5 37
46 2 2 0 1 2 15 151
47 2 2 0 1 2 151 38
48 2 2 0 1 38 151 152
49 2 2 0 1 38 152 39
50 2 2 0 1 39 152 153
51 2 2 0 1 39 153 40
52 2 2 0 1 40 153 154
53 2 2 0 1 40 154 41
54 2 2 0 1 41 154 42
55 2 2 0 1 41 42 5
56 2 2 0 1 15 16 155
57 2 2 0 1 15 155 151
58 2 2 0 1 151 155 156
59 2 2 0 1 151 156 152
60 2 2 0 1 152 156 157
61 2 2 0 1 152 157 153
62 2 2 0 1 153 157 158
63 2 2 0 1 153 158 154
64 2 2 0 1 154 158 43
65 2 2 0 1 154 43 42
66 2 2 0 1 16 17 159
67 2 2 0 1 16 159 155
68 2 2 0 1 155 159 160
69 2 2 0 1 155 160 156
70 2 2 0 1 156 160 161
71 2 2 0 1 156 161 157
72 2 2 0 1 157 161 162
73 2 2 0 1 157 162 158
74 2 2 0 1 158 162 44
75 2 2 0 1 158 44 43
76 2 2 0 1 17 18 163
77 2 2 0 1 17 163 159
78 2 2 0 1 159 163 164
79 2 2 0 1 159 164 160
80 2 2 0 1 160 164 165
81 2 2 0 1 160 165 161
82 2 2 0 1 161 165 166
83 2 2 0 1 161 166 162
84 2 2 0 1 162 166 45
85 2 2 0 1 162 45 44
86 2 2 0 1 18 19 167
87 2 2 0 1 18 167 163
88 2 2 0 1 163 167 168
89 2 2 0 1 163 168 164
90 2 2 0 1 164 168 169
91 2 2 0 1 164 169 165
92 2 2 0 1 165 169 170
93 2 2 0 1 165 170 166
94 2 2 0 1 166 170 46
95 2 2 0 1 166 46 45
96 2 2 0 1 19 20 171
97 2 2 0 1 19 171 167
98 2 2 0 1 167 171 172
99 2 2 0 1 167 172 168
100 2 2 0 1 168 172 173
101 2 2 0 1 168 173 169
102 2 2 0 1 169 173 174
103 2 2 0 1 169 174 170
104 2 2 0 1 170 174 47
105 2 2 0 1 170 47 46
106 2 2 0 1 20 21 175
107 2 2 0 1 20 175 171
108 2 2 0 1 171 175 176
109 2 2 0 1 171 176 172
110 2 2 0 1 172 176 177
111 2 2 0 1 172 177 173
112 2 2 0 1 173 177 178
113 2 2 0 1 173 178 174
114 2 2 0 1 174 178 48
115 2 2 0 1 174 48 47
116 2 2 0 1 21 22 179
117 2 2 0 1 21 179 175
118 2 2 0 1 175 179 180
119 2 2 0 1 175 180 176
120 2 2 0 1 176 180 181
121 2 2 0 1 176 181 177
122 2 2 0 1 177 181 182
123 2 2 0 1 177 182 178
124 2 2 0 1 178 182 49
125 2 2 0 1 178 49 48
126 2 2 0 1 22 23 183
127 2 2 0 1 22 183 179
128 2 2 0 1 179 183 184
129 2 2 0 1 179 184 180
130 2 2 0 1 180 184 185
131 2 2 0 1 180 185 181
132 2 2 0 1 181 185 186
133 2 2 0 1 181 186 182
134 2 2 0 1 182 186 50
135 2 2 0 1 182 50 49
136 2 2 0 1 23 24 187
137 2 2 0 1 23 187 183
138 2 2 0 1 183 187 188
139 2 2 0 1 183 188 184
140 2 2 0 1 184 188 189
141 2 2 0 1 184 189 185
142 2 2 0 1 185 189 190
143 2 2 0 1 185 190 186
144 2 2 0 1 186 190 51
145 2 2 0 1 186 51 50
146 2 2 0 1 24 25 191
147 2 2 0 1 24 191 187
148 2 2 0 1 187 191 192
149 2 2 0 1 187 192 188
150 2 2 0 1 188 192 193
151 2 2 0 1 188 193 189
152 2 2 0 1 189 193 194
153 2 2 0 1 189 194 190
154 2 2 0 1 190 194 52
155 2 2 0 1 190 52 51
156 2 2 0 1 25 26 195
157 2 2 0 1 25 195 191
158 2 2 0 1 191 195 196
159 2 2 0 1 191 196 192
160 2 2 0 1 192 196 197
161 2 2 0 1 192 197 193
162 2 2 0 1 193 197 198
163 2 2 0 1 193 198 194
164 2 2 0 1 194 198 53
165 2 2 0 1 194 53 52
166 2 2 0 1 26 27 199
167 2 2 0 1 26 199 195
168 2 2 0 1 195 199 200
169 2 2 0 1 195 200 196
170 2 2 0 1 196 200 201
171 2 2 0 1 196 201 197
172 2 2 0 1 197 201 202
173 2 2 0 1 197 202 198
174 2 2 0 1 198 202 54
175 2 2 0 1 198 54 53
176 2 2 0 1 27 28 203
177 2 2 0 1 27 203 199
178 2 2 0 1 199 203 204
179 2 2 0 1 199 204 200
180 2 2 0 1 200 204 205
181 2 2 0 1 200 205 201
182 2 2 0 1 201 205 206
183 2 2 0 1 201 206 202
184 2 2 0 1 202 206 55
185 2 2 0 1 202 55 54
186 2 2 0 1 28 29 207
187 2 2 0 1 28 207 203
188 2 2 0 1 203 207 208
189 2 2 0 1 203 208 204
190 2 2 0 1 204 208 209
191 2 2 0 1 204 209 205
192 2 2 0 1 205 209 210
193 2 2 0 1 205 210 206
194 2 2 0 1 206 210 56
195 2 2 0 1 206 56 55
196 2 2 0 1 29 3 57
197 2 2 0 1 29 57 207
198 2 2 0 1 207 57 58
199 2 2 0 1 207 58 208
200 2 2 0 1 208 58 59
201 2 2 0 1 208 59 209
202 2 2 0 1 209 59 60
203 2 2 0 1 209 60 210
204 2 2 0 1 210 60 6
205 2 2 0 1 210 6 56
206 2 2 0 1 3 30 211
207 2 2 0 1 3 211 57
208 2 2 0 1 57 211 212
209 2 2 0 1 57 212 58
210 2 2 0 1 58 212 213
211 2 2 0 1 58 213 59
212 2 2 0 1 59 213 214
213 2 2 0 1 59 214 60
214 2 2 0 1 60 214 61
215 2 2 0 1 60 61 6
216 2 2 0 1 30 31 215
217 2 2 0 1 30 215 211
218 2 2 0 1 211 215 216
219 2 2 0 1 211 216 212
220 2 2 0 1 212 216 217
221 2 2 0 1 212 217 213
222 2 2 0 1 213 217 218
223 2 2 0 1 213 218 214
224 2 2 0 1 214 218 62
225 2 2 0 1 214 62 61
226 2 2 0 1 31 32 219
227 2 2 0 1 31 219 215
228 2 2 0 1 215 219 220
229 2 2 0 1 215 220 216
230 2 2 0 1 216 220 221
231 2 2 0 1 216 221 217
232 2 2 0 1 217 221 222
233 2 2 0 1 217 222 218
234 2 2 0 1 218 222 63
235 2 2 0 1 218 63 62
236 2 2 0 1 32 33 223
237 2 2 0 1 32 223 219
238 2 2 0 1 219 223 224
239 2 2 0 1 219 224 220
240 2 2 0 1 220 224 225
241 2 2 0 1 220 225 221
242 2 2 0 1 221 225 226
243 2 2 0 1 221 226 222
244 2 2 0 1 222 226 64
245 2 2 0 1 222 64 63
246 2 2 0 1 33 4 223
247 2 2 0 1 223 4 224
248 2 2 0 1 224 4 225
249 2 2 0 1 225 4 226
250 2 2 0 1 226 4 64
251 2 2 0 1 1 34 227
252 2 2 0 1 1 227 228
253 2 2 0 1 1 228 229
254 2 2 0 1 1 229 230
255 2 2 0 1 1 230 65
256 2 2 0 1 34 35 231
257 2 2 0 1 34 231 227
258 2 2 0 1 227 231 232
259 2 2 0 1 227 232 228
260 2 2 0 1 228 232 233
261 2 2 0 1 228 233 229
262 2 2 0 1 229 233 234
263 2 2 0 1 229 234 230
264 2 2 0 1 230 234 66
265 2 2 0 1 230 66 65
266 2 2 0 1 35 36 235
267 2 2 0 1 35 235 231
268 2 2 0 1 231 235 236
269 2 2 0 1 231 236 232
270 2 2 0 1 232 236 237
271 2 2 0 1 232 237 233
272 2 2 0 1 233 237 238
273 2 2 0 1 233 238 234
274 2 2 0 1 234 238 67
275 2 2 0 1 234 67 66
276 2 2 0 1 36 37 239
277 2 2 0 1 36 239 235
278 2 2 0 1 235 239 240
279 2 2 0 1 235 240 236
280 2 2 0 1 236 240 241
281 2 2 0 1 236 241 237
282 2 2 0 1 237 241 242
283 2 2 0 1 237 242 238
284 2 2 0 1 238 242 68
285 2 2 0 1 238 68 67
286 2 2 0 1 37 5 69
287 2 2 0 1 37 69 239
288 2 2 0 1 239 69 70
289 2 2 0 1 239 70 240
290 2 2 0 1 240 70 71
291 2 2 0 1 240 71 241
292 2 2 0 1 241 71 72
293 2 2 0 1 241 72 242
294 2 2 0 1 242 72 7
295 2 2 0 1 242 7 68
296 2 2 0 1 5 42 243
297 2 2 0 1 5 243 69
298 2 2 0 1 69 243 244
299 2 2 0 1 69 244 70
300 2 2 0 1 70 244 245
301 2 2 0 1 70 245 71
302 2 2 0 1 71 245 246
303 2 2 0 1 71 246 72
304 2 2 0 1 72 246 73
305 2 2 0 1 72 73 7
306 2 2 0 1 42 43 247
307 2 2 0 1 42 247 243
308 2 2 0 1 243 247 248
309 2 2 0 1 243 248 244
310 2 2 0 1 244 248 249
311 2 2 0 1 244 249 245
312 2 2 0 1 245 249 250
313 2 2 0 1 245 250 246
314 2 2 0 1 246 250 74
315 2 2 0 1 246 74 73
316 2 2 0 1 43 44 251
317 2 2 0 1 43 251 247
318 2 2 0 1 247 251 252
319 2 2 0 1 247 252 248
320 2 2 0 1 248 252 253
321 2 2 0 1 248 253 249
322 2 2 0 1 249 253 254
323 2 2 0 1 249 254 250
324 2 2 0 1 250 254 75
325 2 2 0 1 250 75 74
326 2 2 0 1 44 45 255
327 2 2 0 1 44 255 251
328 2 2 0 1 251 255 256
329 2 2 0 1 251 256 252
330 2 2 0 1 252 256 257
331 2 2 0 1 252 257 253
332 2 2 0 1 253 257 258
333 2 2 0 1 253 258 254
334 2 2 0 1 254 258 76
335 2 2 0 1 254 76 75
336 2 2 0 1 45 46 259
337 2 2 0 1 45 259 255
338 2 2 0 1 255 259 260
339 2 2 0 1 255 260 256
340 2 2 0 1 256 260 261
341 2 2 0 1 256 261 257
342 2 2 0 1 257 261 262
343 2 2 0 1 257 262 258
344 2 2 0 1 258 262 77
345 2 2 0 1 258 77 76
346 2 2 0 1 46 47 263
347 2 2 0 1 46 263 259
348 2 2 0 1 259 263 264
349 2 2 0 1 259 264 260
350 2 2 0 1 260 264 265
351 2 2 0 1 260 265 261
352 2 2 0 1 261 265 266
353 2 2 0 1 261 266 262
354 2 2 0 1 262 266 78
355 2 2 0 1 262 78 77
356 2 2 0 1 47 48 267
357 2 2 0 1 47 267 263
358 2 2 0 1 263 267 268
359 2 2 0 1 263 268 264
360 2 2 0 1 264 268 269
361 2 2 0 1 264 269 265
362 2 2 0 1 265 269 270
363 2 2 0 1 265 270 266
364 2 2 0 1 266 270 79
365 2 2 0 1 266 79 78
366 2 2 0 1 48 49 271
367 2 2 0 1 48 271 267
368 2 2 0 1 267 271 272
369 2 2 0 1 267 272 268
370 2 2 0 1 268 272 273
371 2 2 0 1 268 273 269
372 2 2 0 1 269 273 274
373 2 2 0 1 269 274 270
374 2 2 0 1 270 274 80
375 2 2 0 1 270 80 79
376 2 2 0 1 49 50 275
377 2 2 0 1 49 275 271
378 2 2 0 1 271 275 276
379 2 2 0 1 271 276 272
380 2 2 0 1 272 276 277
381 2 2 0 1 272 277 273
382 2 2 0 1 273 277 278
383 2 2 0 1 273 278 274
384 2 2 0 1 274 278 81
385 2 2 0 1 274 81 80
386 2 2 0 1 50 51 279
387 2 2 0 1 50 279 275
388 2 2 0 1 275 279 280
389 2 2 0 1 275 280 276
390 2 2 0 1 276 280 281
391 2 2 0 1 276 281 277
392 2 2 0 1 277 281 282
393 2 2 0 1 277 282 278
394 2 2 0 1 278 282 82
395 2 2 0 1 278 82 81
396 2 2 0 1 51 52 283
397 2 2 0 1 51 283 279
398 2 2 0 1 279 283 284
399 2 2 0 1 279 284 280
400 2 2 0 1 280 284 285
401 2 2 0 1 280 285 281
402 2 2 0 1 281 285 286
403 2 2 0 1 281 286 282
404 2 2 0 1 282 286 83
405 2 2 0 1 282 83 82
406 2 2 0 1 52 53 287
407 2 2 0 1 52 287 283
408 2 2 0 1 283 287 288
409 2 2 0 1 283 288 284
410 2 2 0 1 284 288 289
411 2 2 0 1 284 289 285
412 2 2 0 1 285 289 290
413 2 2 0 1 285 290 286
414 2 2 0 1 286 290 84
415 2 2 0 1 286 84 83
416 2 2 0 1 53 54 291
417 2 2 0 1 53 291 287
418 2 2 0 1 287 291 292
419 2 2 0 1 287 292 288
420 2 2 0 1 288 292 293
421 2 2 0 1 288 293 289
422 2 2 0 1 289 293 294
423 2 2 0 1 289 294 290
424 2 2 0 1 290 294 85
425 2 2 0 1 290 85 84
426 2 2 0 1 54 55 295
427 2 2 0 1 54 295 291
428 2 2 0 1 291 295 296
429 2 2 0 1 291 296 292
430 2 2 0 1 292 296 297
431 2 2 0 1 292 297 293
432 2 2 0 1 293 297 298
433 2 2 0 1 293 298 294
434 2 2 0 1 294 298 86
435 2 2 0 1 294 86 85
436 2 2 0 1 55 56 299
437 2 2 0 1 55 299 295
438 2 2 0 1 295 299 300
439 2 2 0 1 295 300 296
440 2 2 0 1 296 300 301
441 2 2 0 1 296 301 297
442 2 2 0 1 297 301 302
443 2 2 0 1 297 302 298
444 2 2 0 1 298 302 87
445 2 2 0 1 298 87 86
446 2 2 0 1 56 6 88
447 2 2 0 1 56 88 299
448 2 2 0 1 299 88 89
449 2 2 0 1 299 89 300
450 2 2 0 1 300 89 90
451 2 2 0 1 300 90 301
452 2 2 0 1 301 90 91
453 2 2 0 1 301 91 302
454 2 2 0 1 302 91 8
455 2 2 0 1 302 8 87
456 2 2 0 1 6 61 303
457 2 2 0 1 6 303 88
458 2 2 0 1 88 303 304
459 2 2 0 1 88 304 89
460 2 2 0 1 89 304 305
461 2 2 0 1 89 305 90
462 2 2 0 1 90 305 306
463 2 2 0 1 90 306 91
464 2 2 0 1 91 306 92
465 2 2 0 1 91 92 8
466 2 2 0 1 61 62 307
467 2 2 0 1 61 307 303
468 2 2 0 1 303 307 308
469 2 2 0 1 303 308 304
470 2 2 0 1 304 308 309
471 2 2 0 1 304 309 305
472 2 2 0 1 305 309 310
473 2 2 0 1 305 310 306
474 2 2 0 1 306 310 93
475 2 2 0 1 306 93 92
476 2 2 0 1 62 63 311
477 2 2 0 1 62 311 307
478 2 2 0 1 307 311 312
479 2 2 0 1 307 312 308
480 2 2 0 1 308 312 313
481 2 2 0 1 308 313 309
482 2 2 0 1 309 313 314
483 2 2 0 1 309 314 310
484 2 2 0 1 310 314 94
485 2 2 0 1 310 94 93
486 2 2 0 1 63 64 315
487 2 2 0 1 63 315 311
488 2 2 0 1 311 315 316
489 2 2 0 1 311 316 312
490 2 2 0 1 312 316 317
491 2 2 0 1 312 317 313
492 2 2 0 1 313 317 318
493 2 2 0 1 313 318 314
494 2 2 0 1 314 318 95
495 2 2 0 1 314 95 94
496 2 2 0 1 64 4 315
497 2 2 0 1 315 4 316
498 2 2 0 1 316 4 317
499 2 2 0 1 317 4 318
500 2 2 0 1 318 4 95
501 2 2 0 1 1 65 319
502 2 2 0 1 1 319 320
503 2 2 0 1 1 320 321
504 2 2 0 1 1 321 322
505 2 2 0 1 1 322 96
506 2 2 0 1 65 66 323
507 2 2 0 1 65 323 319
508 2 2 0 1 319 323 324
509 2 2 0 1 319 324 320
510 2 2 0 1 320 324 325
511 2 2 0 1 320 325 321
512 2 2 0 1 321 325 326
513 2 2 0 1 321 326 322
514 2 2 0 1 322 326 97
515 2 2 0 1 322 97 96
516 2 2 0 1 66 67 327
517 2 2 0 1 66 327 323
518 2 2 0 1 323 327 328
519 2 2 0 1 323 328 324
520 2 2 0 1 324 328 329
521 2 2 0 1 324 329 325
522 2 2 0 1 325 329 330
523 2 2 0 1 325 330 326
524 2 2 0 1 326 330 98
525 2 2 0 1 326 98 97
526 2 2 0 1 67 68 331
527 2 2 0 1 67 331 327
528 2 2 0 1 327 331 332
529 2 2 0 1 327 332 328
530 2 2 0 1 328 332 333
531 2 2 0 1 328 333 329
532 2 2 0 1 329 333 334
533 2 2 0 1 329 334 330
534 2 2 0 1 330 334 99
535 2 2 0 1 330 99 98
536 2 2 0 1 68 7 100
537 2 2 0 1 68 100 331
538 2 2 0 1 331 100 101
539 2 2 0 1 331 101 332
540 2 2 0 1 332 101 102
541 2 2 0 1 332 102 333
542 2 2 0 1 333 102 103
543 2 2 0 1 333 103 334
544 2 2 0 1 334 103 9
545 2 2 0 1 334 9 99
546 2 2 0 1 7 73 335
547 2 2 0 1 7 335 100
548 2 2 0 1 100 335 336
549 2 2 0 1 100 336 101
550 2 2 0 1 101 336 337
551 2 2 0 1 101 337 102
552 2 2 0 1 102 337 338
553 2 2 0 1 102 338 103
554 2 2 0 1 103 338 104
555 2 2 0 1 103 104 9
556 2 2 0 1 73 74 339
557 2 2 0 1 73 339 335
558 2 2 0 1 335 339 340
559 2 2 0 1 335 340 336
560 2 2 0 1 336 340 341
561 2 2 0 1 336 341 337
562 2 2 0 1 337 341 342
563 2 2 0 1 337 342 338
564 2 2 0 1 338 342 105
565 2 2 0 1 338 105 104
566 2 2 0 1 74 75 343
567 2 2 0 1 74 343 339
568 2 2 0 1 339 343 344
569 2 2 0 1 339 344 340
570 2 2 0 1 340 344 345
571 2 2 0 1 340 345 341
572 2 2 0 1 341 345 346
573 2 2 0 1 341 346 342
574 2 2 0 1 342 346 106
575 2 2 0 1 342 106 105
576 2 2 0 1 75 76 347
577 2 2 0 1 75 347 343
578 2 2 0 1 343 347 348
579 2 2 0 1 343 348 344
580 2 2 0 1 344 348 349
581 2 2 0 1 344 349 345
582 2 2 0 1 345 349 350
583 2 2 0 1 345 350 346
584 2 2 0 1 346 350 107
585 2 2 0 1 346 107 106
586 2 2 0 1 76 77 351
587 2 2 0 1 76 351 347
588 2 2 0 1 347 351 352
589 2 2 0 1 347 352 348
590 2 2 0 1 348 352 353
591 2 2 0 1 348 353 349
592 2 2 0 1 349 353 354
593 2 2 0 1 349 354 350
594 2 2 0 1 350 354 108
595 2 2 0 1 350 108 107
596 2 2 0 1 77 78 355
597 2 2 0 1 77 355 351
598 2 2 0 1 351 355 356
599 2 2 0 1 351 356 352
600 2 2 0 1 352 356 357
601 2 2 0 1 352 357 353
602 2 2 0 1 353 357 358
603 2 2 0 1 353 358 354
604 2 2 0 1 354 358 109
605 2 2 0 1 354 109 108
606 2 2 0 1 78 79 359
607 2 2 0 1 78 359 355
608 2 2 0 1 355 359 360
609 2 2 0 1 355 360 356
610 2 2 0 1 356 360 361
611 2 2 0 1 356 361 357
612 2 2 0 1 357 361 362
613 2 2 0 1 357 362 358
614 2 2 0 1 358 362 110
615 2 2 0 1 358 110 109
616 2 2 0 1 79 80 363
617 2 2 0 1 79 363 359
618 2 2 0 1 359 363 364
619 2 2 0 1 359 364 360
620 2 2 0 1 360 364 365
621 2 2 0 1 360 365 361
622 2 2 0 1 361 365 366
623 2 2 0 1 361 366 362
624 2 2 0 1 362 366 111
625 2 2 0 1 362 111 110
626 2 2 0 1 80 81 367
627 2 2 0 1 80 367 363
628 2 2 0 1 363 367 368
629 2 2 0 1 363 368 364
630 2 2 0 1 364 368 369
631 2 2 0 1 364 369 365
632 2 2 0 1 365 369 370
633 2 2 0 1 365 370 366
634 2 2 0 1 366 370 112
635 2 2 0 1 366 112 111
636 2 2 0 1 81 82 371
637 2 2 0 1 81 371 367
638 2 2 0 1 367 371 372
639 2 2 0 1 367 372 368
640 2 2 0 1 368 372 373
641 2 2 0 1 368 373 369
642 2 2 0 1 369 373 374
643 2 2 0 1 369 374 370
644 2 2 0 1 370 374 113
645 2 2 0 1 370 113 112
646 2 2 0 1 82 83 375
647 2 2 0 1 82 375 371
648 2 2 0 1 371 375 376
649 2 2 0 1 371 376 372
650 2 2 0 1 372 376 377
651 2 2 0 1 372 377 373
652 2 2 0 1 373 377 378
653 2 2 0 1 373 378 374
654 2 2 0 1 374 378 114
655 2 2 0 1 374 114 113
656 2 2 0 1 83 84 379
657 2 2 0 1 83 379 375
658 2 2 0 1 375 379 380
659 2 2 0 1 375 380 376
660 2 2 0 1 376 380 381
661 2 2 0 1 376 381 377
662 2 2 0 1 377 381 382
663 2 2 0 1 377 382 378
664 2 2 0 1 378 382 115
665 2 2 0 1 378 115 114
666 2 2 0 1 84 85 383
667 2 2 0 1 84 383 379
668 2 2 0 1 379 383 384
669 2 2 0 1 379 384 380
670 2 2 0 1 380 384 385
671 2 2 0 1 380 385 381
672 2 2 0 1 381 385 386
673 2 2 0 1 381 386 382
674 2 2 0 1 382 386 116
675 2 2 0 1 382 116 115
676 2 2 0 1 85 86 387
677 2 2 0 1 85 387 383
678 2 2 0 1 383 387 388
679 2 2 0 1 383 388 384
680 2 2 0 1 384 388 389
681 2 2 0 1 384 389 385
682 2 2 0 1 385 389 390
683 2 2 0 1 385 390 386
684 2 2 0 1 386 390 117
685 2 2 0 1 386 117 116
686 2 2 0 1 86 87 391
687 2 2 0 1 86 391 387
688 2 2 0 1 387 391 392
689 2 2 0 1 387 392 388
690 2 2 0 1 388 392 393
691 2 2 0 1 388 393 389
692 2 2 0 1 389 393 394
693 2 2 0 1 389 394 390
694 2 2 0 1 390 394 118
695 2 2 0 1 390 118 117
696 2 2 0 1 87 8 119
697 2 2 0 1 87 119 391
698 2 2 0 1 391 119 120
699 2 2 0 1 391 120 392
700 2 2 0 1 392 120 121
701 2 2 0 1 392 121 393
702 2 2 0 1 393 121 122
703 2 2 0 1 393 122 394
704 2 2 0 1 394 122 10
705 2 2 0 1 394 10 118
706 2 2 0 1 8 92 395
707 2 2 0 1 8 395 119
708 2 2 0 1 119 395 396
709 2 2 0 1 119 396 120
710 2 2 0 1 120 396 397
711 2 2 0 1 120 397 121
712 2 2 0 1 121 397 398
713 2 2 0 1 121 398 122
714 2 2 0 1 122 398 123
715 2 2 0 1 122 123 10
716 2 2 0 1 92 93 399
717 2 2 0 1 92 399 395
718 2 2 0 1 395 399 400
719 2 2 0 1 395 400 396
720 2 2 0 1 396 400 401
721 2 2 0 1 396 401 397
722 2 2 0 1 397 401 402
723 2 2 0 1 397 402 398
724 2 2 0 1 398 402 124
725 2 2 0 1 398 124 123
726 2 2 0 1 93 94 403
727 2 2 0 1 93 403 399
728 2 2 0 1 399 403 404
729 2 2 0 1 399 404 400
730 2 2 0 1 400 404 405
731 2 2 0 1 400 405 401
732 2 2 0 1 401 405 406
733 2 2 0 1 401 406 402
734 2 2 0 1 402 406 125
735 2 2 0 1 402 125 124
736 2 2 0 1 94 95 407
737 2 2 0 1 94 407 403
738 2 2 0 1 403 407 408
739 2 2 0 1 403 408 404
740 2 2 0 1 404 408 409
741 2 2 0 1 404 409 405
742 2 2 0 1 405 409 410
743 2 2 0 1 405 410 406
744 2 2 0 1 406 410 126
745 2 2 0 1 406 126 125
746 2 2 0 1 95 4 407
747 2 2 0 1 407 4 408
748 2 2 0 1 408 4 409
749 2 2 0 1 409 4 410
750 2 2 0 1 410 4 126
751 2 2 0 1 1 96 411
752 2 2 0 1 1 411 412
753 2 2 0 1 1 412 413
754 2 2 0 1 1 413 414
755 2 2 0 1 1 414 11
756 2 2 0 1 96 97 415
757 2 2 0 1 96 415 411
758 2 2 0 1 411 415 416
759 2 2 0 1 411 416 412
760 2 2 0 1 412 416 417
761 2 2 0 1 412 417 413
762 2 2 0 1 413 417 418
763 2 2 0 1 413 418 414
764 2 2 0 1 414 418 12
765 2 2 0 1 414 12 11
766 2 2 0 1 97 98 419
767 2 2 0 1 97 419 415
768 2 2 0 1 415 419 420
769 2 2 0 1 415 420 416
770 2 2 0 1 416 420 421
771 2 2 0 1 416 421 417
772 2 2 0 1 417 421 422
773 2 2 0 1 417 422 418
774 2 2 0 1 418 422 13
775 2 2 0 1 418 13 12
776 2 2 0 1 98 99 423
777 2 2 0 1 98 423 419
778 2 2 0 1 419 423 424
779 2 2 0 1 419 424 420
780 2 2 0 1 420 424 425
781 2 2 0 1 420 425 421
782 2 2 0 1 421 425 426
783 2 2 0 1 421 426 422
784 2 2 0 1 422 426 14
785 2 2 0 1 422 14 13
786 2 2 0 1 99 9 127
787 2 2 0 1 99 127 423
788 2 2 0 1 423 127 128
789 2 2 0 1 423 128 424
790 2 2 0 1 424 128 129
791 2 2 0 1 424 129 425
792 2 2 0 1 425 129 130
793 2 2 0 1 425 130 426
794 2 2 0 1 426 130 2
795 2 2 0 1 426 2 14
796 2 2 0 1 9 104 427
797 2 2 0 1 9 427 127
798 2 2 0 1 127 427 428
799 2 2 0 1 127 428 128
800 2 2 0 1 128 428 429
801 2 2 0 1 128 429 129
802 2 2 0 1 129 429 430
803 2 2 0 1 129 430 130
804 2 2 0 1 130 430 15
805 2 2 0 1 130 15 2
806 2 2 0 1 104 105 431
807 2 2 0 1 104 431 427
808 2 2 0 1 427 431 432
809 2 2 0 1 427 432 428
810 2 2 0 1 428 432 433
811 2 2 0 1 428 433 429
812 2 2 0 1 429 433 434
813 2 2 0 1 429 434 430
814 2 2 0 1 430 434 16
815 2 2 0 1 430 16 15
816 2 2 0 1 105 106 435
817 2 2 0 1 105 435 431
818 2 2 0 1 431 435 436
819 2 2 0 1 431 436 432
820 2 2 0 1 432 436 437
821 2 2 0 1 432 437 433
822 2 2 0 1 433 437 438
823 2 2 0 1 433 438 434
824 2 2 0 1 434 438 17
825 2 2 0 1 434 17 16
826 2 2 0 1 106 107 439
827 2 2 0 1 106 439 435
828 2 2 0 1 435 439 440
829 2 2 0 1 435 440 436
830 2 2 0 1 436 440 441
831 2 2 0 1 436 441 437
832 2 2 0 1 437 441 442
833 2 2 0 1 437 442 438
834 2 2 0 1 438 442 18
835 2 2 0 1 438 18 17
836 2 2 0 1 107 108 443
837 2 2 0 1 107 443 439
838 2 2 0 1 439 443 444
839 2 2 0 1 439 444 440
840 2 2 0 1 440 444 445
841 2 2 0 1 440 445 441
842 2 2 0 1 441 445 446
843 2 2 0 1 441 446 442
844 2 2 0 1 442 446 19
845 2 2 0 1 442 19 18
846 2 2 0 1 108 109 447
847 2 2 0 1 108 447 443
848 2 2 0 1 443 447 448
849 2 2 0 1 443 448 444
850 2 2 0 1 444 448 449
851 2 2 0 1 444 449 445
852 2 2 0 1 445 449 450
853 2 2 0 1 445 450 446
854 2 2 0 1 446 450 20
855 2 2 0 1 446 20 19
856 2 2 0 1 109 110 451
857 2 2 0 1 109 451 447
858 2 2 0 1 447 451 452
859 2 2 0 1 447 452 448
860 2 2 0 1 448 452 453
861 2 2 0 1 448 453 449
862 2 2 0 1 449 453 454
863 2 2 0 1 449 454 450
864 2 2 0 1 450 454 21
865 2 2 0 1 450 21 20
866 2 2 0 1 110 111 455
867 2 2 0 1 110 455 451
868 2 2 0 1 451 455 456
869 2 2 0 1 451 456 452
870 2 2 0 1 452 456 457
871 2 2 0 1 452 457 453
872 2 2 0 1 453 457 458
873 2 2 0 1 453 458 454
874 2 2 0 1 454 458 22
875 2 2 0 1 454 22 21
876 2 2 0 1 111 112 459
877 2 2 0 1 111 459 455
878 2 2 0 1 455 459 460
879 2 2 0 1 455 460 456
880 2 2 0 1 456 460 461
881 2 2 0 1 456 461 457
882 2 2 0 1 457 461 462
883 2 2 0 1 457 462 458
884 2 2 0 1 458 462 23
885 2 2 0 1 458 23 22
886 2 2 0 1 112 113 463
887 2 2 0 1 112 463 459
888 2 2 0 1 459 463 464
889 2 2 0 1 459 464 460
890 2 2 0 1 460 464 465
891 2 2 0 1 460 465 461
892 2 2 0 1 461 465 466
893 2 2 0 1 461 466 462
894 2 2 0 1 462 466 24
895 2 2 0 1 462 24 23
896 2 2 0 1 113 114 467
897 2 2 0 1 113 467 463
898 2 2 0 1 463 467 468
899 2 2 0 1 463 468 464
900 2 2 0 1 464 468 469
901 2 2 0 1 464 469 465
902 2 2 0 1 465 469 470
903 2 2 0 1 465 470 466
904 2 2 0 1 466 470 25
905 2 2 0 1 466 25 24
906 2 2 0 1 114 115 471
907 2 2 0 1 114 471 467
908 2 2 0 1 467 471 472
909 2 2 0 1 467 472 468
910 2 2 0 1 468 472 473
911 2 2 0 1 468 473 469
912 2 2 0 1 469 473 474
913 2 2 0 1 469 474 470
914 2 2 0 1 470 474 26
915 2 2 0 1 470 26 25
916 2 2 0 1 115 116 475
917 2 2 0 1 115 475 471
918 2 2 0 1 471 475 476
919 2 2 0 1 471 476 472
920 2 2 0 1 472 476 477
921 2 2 0 1 472 477 473
922 2 2 0 1 473 477 478
923 2 2 0 1 473 478 474
924 2 2 0 1 474 478 27
925 2 2 0 1 474 27 26
926 2 2 0 1 116 117 479
927 2 2 0 1 116 479 475
928 2 2 0 1 475 479 480
929 2 2 0 1 475 480 476
930 2 2 0 1 476 480 481
931 2 2 0 1 476 481 477
932 2 2 0 1 477 481 482
933 2 2 0 1 477 482 478
934 2 2 0 1 478 482 28
935 2 2 0 1 478 28 27
936 2 2 0 1 117 118 483
937 2 2 0 1 117 483 479
938 2 2 0 1 479 483 484
939 2 2 0 1 479 484 480
940 2 2 0 1 480 484 485
941 2 2 0 1 480 485 481
942 2 2 0 1 481 485 486
943 2 2 0 1 481 486 482
944 2 2 0 1 482 486 29
945 2 2 0 1 482 29 28
946 2 2 0 1 118 10 131
947 2 2 0 1 118 131 483
948 2 2 0 1 483 131 132
949 2 2 0 1 483 132 484
950 2 2 0 1 484 132 133
951 2 2 0 1 484 133 485
952 2 2 0 1 485 133 134
953 2 2 0 1 485 134 486
954 2 2 0 1 486 134 3
955 2 2 0 1 486 3 29
956 2 2 0 1 10 123 487
957 2 2 0 1 10 487 131
958 2 2 0 1 131 487 488
959 2 2 0 1 131 488 132
960 2 2 0 1 132 488 489
961 2 2 0 1 132 489 133
962 2 2 0 1 133 489 490
963 2 2 0 1 133 490 134
964 2 2 0 1 134 490 30
965 2 2 0 1 134 30 3
966 2 2 0 1 123 124 491
967 2 2 0 1 123 491 487
968 2 2 0 1 487 491 492
969 2 2 0 1 487 492 488
970 2 2 0 1 488 492 493
971 2 2 0 1 488 493 489
972 2 2 0 1 489 493 494
973 2 2 0 1 489 494 490
974 2 2 0 1 490 494 31
975 2 2 0 1 490 31 30
976 2 2 0 1 124 125 495
977 2 2 0 1 124 495 491
978 2 2 0 1 491 495 496
979 2 2 0 1 491 496 492
980 2 2 0 1 492 496 497
981 2 2 0 1 492 497 493
982 2 2 0 1 493 497 498
983 2 2 0 1 493 498 494
984 2 2 0 1 494 498 32
985 2 2 0 1 494 32 31
986 2 2 0 1 125 126 499
987 2 2 0 1 125 499 495
988 2 2 0 1 495 499 500
989 2 2 0 1 495 500 496
990 2 2 0 1 496 500 501
991 2 2 0 1 496 501 497
992 2 2 0 1 497 501 502
993 2 2 0 1 497 502 498
994 2 2 0 1 498 502 33
995 2 2 0 1 498 33 32
996 2 2 0 1 126 4 499
997 2 2 0 1 499 4 500
998 2 2 0 1 500 4 501
999 2 2 0 1 501 4 502
1000 2 2 0 1 502 4 33
$EndElements
