$MeshFormat
2.2 0 8
$EndMeshFormat
$Nodes
504
1 0 0 0.038
2 -0.011 0 0.027
3 0 0 0.027
4 -0.011 0 -0.027
5 0 0 -0.038
6 0 0 -0.027
7 -6.735557395310442e-19 -0.011 0.027
8 -6.735557395310442e-19 -0.011 -0.027
9 0.011 -1.347111479062088e-18 0.027
10 0.011 -1.347111479062088e-18 -0.027
11 2.020667218593133e-18 0.011 0.027
12 2.020667218593133e-18 0.011 -0.027
13 -0.003399186938124421 0 0.03746162167924669
14 -0.006465637775217204 0 0.03589918693812442
15 -0.008899186938124422 0 0.0334656377752172
16 -0.01046162167924669 0 0.03039918693812442
17 -0.011 0 0.023625
18 -0.011 0 0.02025
19 -0.011 0 0.016875
20 -0.011 0 0.0135
21 -0.011 0 0.010125
22 -0.011 0 0.006749999999999999
23 -0.011 0 0.003375
24 -0.011 0 0
25 -0.011 0 -0.003375
26 -0.011 0 -0.006750000000000003
27 -0.011 0 -0.010125
28 -0.011 0 -0.0135
29 -0.011 0 -0.016875
30 -0.011 0 -0.02025
31 -0.011 0 -0.023625
32 -0.01046162167924669 0 -0.03039918693812442
33 -0.008899186938124422 0 -0.0334656377752172
34 -0.006465637775217204 0 -0.03589918693812442
35 -0.003399186938124422 0 -0.03746162167924669
36 -2.081401701738782e-19 -0.003399186938124421 0.03746162167924669
37 -3.959061302932982e-19 -0.006465637775217204 0.03589918693812442
38 -5.449180399394004e-19 -0.008899186938124422 0.0334656377752172
39 -6.405895751690007e-19 -0.01046162167924669 0.03039918693812442
40 -0.01046162167924669 -0.003399186938124421 0.027
41 -0.008899186938124422 -0.006465637775217204 0.027
42 -0.006465637775217204 -0.008899186938124422 0.027
43 -0.003399186938124422 -0.01046162167924669 0.027
44 -6.735557395310442e-19 -0.011 0.023625
45 -6.735557395310442e-19 -0.011 0.02025
46 -6.735557395310442e-19 -0.011 0.016875
47 -6.735557395310442e-19 -0.011 0.0135
48 -6.735557395310442e-19 -0.011 0.010125
49 -6.735557395310442e-19 -0.011 0.006749999999999999
50 -6.735557395310442e-19 -0.011 0.003375
51 -6.735557395310442e-19 -0.011 0
52 -6.735557395310442e-19 -0.011 -0.003375
53 -6.735557395310442e-19 -0.011 -0.006750000000000003
54 -6.735557395310442e-19 -0.011 -0.010125
55 -6.735557395310442e-19 -0.011 -0.0135
56 -6.735557395310442e-19 -0.011 -0.016875
57 -6.735557395310442e-19 -0.011 -0.02025
58 -6.735557395310442e-19 -0.011 -0.023625
59 -0.01046162167924669 -0.003399186938124421 -0.027
60 -0.008899186938124422 -0.006465637775217204 -0.027
61 -0.006465637775217204 -0.008899186938124422 -0.027
62 -0.003399186938124422 -0.01046162167924669 -0.027
63 -6.405895751690007e-19 -0.01046162167924669 -0.03039918693812442
64 -5.449180399394004e-19 -0.008899186938124422 -0.0334656377752172
65 -3.959061302932982e-19 -0.006465637775217204 -0.03589918693812442
66 -2.081401701738783e-19 -0.003399186938124422 -0.03746162167924669
67 0.003399186938124421 -4.162803403477565e-19 0.03746162167924669
68 0.006465637775217204 -7.918122605865963e-19 0.03589918693812442
69 0.008899186938124422 -1.089836079878801e-18 0.0334656377752172
70 0.01046162167924669 -1.281179150338001e-18 0.03039918693812442
71 0.003399186938124421 -0.01046162167924669 0.027
72 0.006465637775217204 -0.008899186938124422 0.027
73 0.008899186938124422 -0.006465637775217205 0.027
74 0.01046162167924669 -0.003399186938124422 0.027
75 0.011 -1.347111479062088e-18 0.023625
76 0.011 -1.347111479062088e-18 0.02025
77 0.011 -1.347111479062088e-18 0.016875
78 0.011 -1.347111479062088e-18 0.0135
79 0.011 -1.347111479062088e-18 0.010125
80 0.011 -1.347111479062088e-18 0.006749999999999999
81 0.011 -1.347111479062088e-18 0.003375
82 0.011 -1.347111479062088e-18 0
83 0.011 -1.347111479062088e-18 -0.003375
84 0.011 -1.347111479062088e-18 -0.006750000000000003
85 0.011 -1.347111479062088e-18 -0.010125
86 0.011 -1.347111479062088e-18 -0.0135
87 0.011 -1.347111479062088e-18 -0.016875
88 0.011 -1.347111479062088e-18 -0.02025
89 0.011 -1.347111479062088e-18 -0.023625
90 0.003399186938124421 -0.01046162167924669 -0.027
91 0.006465637775217204 -0.008899186938124422 -0.027
92 0.008899186938124422 -0.006465637775217205 -0.027
93 0.01046162167924669 -0.003399186938124422 -0.027
94 0.01046162167924669 -1.281179150338001e-18 -0.03039918693812442
95 0.008899186938124422 -1.089836079878801e-18 -0.0334656377752172
96 0.006465637775217204 -7.918122605865963e-19 -0.03589918693812442
97 0.003399186938124422 -4.162803403477565e-19 -0.03746162167924669
98 6.244205105216347e-19 0.003399186938124421 0.03746162167924669
99 1.187718390879895e-18 0.006465637775217204 0.03589918693812442
100 1.634754119818201e-18 0.008899186938124422 0.0334656377752172
101 1.921768725507002e-18 0.01046162167924669 0.03039918693812442
102 0.01046162167924669 0.00339918693812442 0.027
103 0.008899186938124422 0.006465637775217204 0.027
104 0.006465637775217205 0.008899186938124422 0.027
105 0.003399186938124423 0.01046162167924669 0.027
106 2.020667218593133e-18 0.011 0.023625
107 2.020667218593133e-18 0.011 0.02025
108 2.020667218593133e-18 0.011 0.016875
109 2.020667218593133e-18 0.011 0.0135
110 2.020667218593133e-18 0.011 0.010125
111 2.020667218593133e-18 0.011 0.006749999999999999
112 2.020667218593133e-18 0.011 0.003375
113 2.020667218593133e-18 0.011 0
114 2.020667218593133e-18 0.011 -0.003375
115 2.020667218593133e-18 0.011 -0.006750000000000003
116 2.020667218593133e-18 0.011 -0.010125
117 2.020667218593133e-18 0.011 -0.0135
118 2.020667218593133e-18 0.011 -0.016875
119 2.020667218593133e-18 0.011 -0.02025
120 2.020667218593133e-18 0.011 -0.023625
121 0.01046162167924669 0.00339918693812442 -0.027
122 0.008899186938124422 0.006465637775217204 -0.027
123 0.006465637775217205 0.008899186938124422 -0.027
124 0.003399186938124423 0.01046162167924669 -0.027
125 1.921768725507002e-18 0.01046162167924669 -0.03039918693812442
126 1.634754119818201e-18 0.008899186938124422 -0.0334656377752172
127 1.187718390879895e-18 0.006465637775217204 -0.03589918693812442
128 6.244205105216348e-19 0.003399186938124422 -0.03746162167924669
129 -0.00339918693812442 0.01046162167924669 0.027
130 -0.006465637775217203 0.008899186938124424 0.027
131 -0.00889918693812442 0.006465637775217206 0.027
132 -0.01046162167924669 0.003399186938124423 0.027
133 -0.00339918693812442 0.01046162167924669 -0.027
134 -0.006465637775217203 0.008899186938124424 -0.027
135 -0.00889918693812442 0.006465637775217206 -0.027
136 -0.01046162167924669 0.003399186938124423 -0.027
137 -0.003232818887608602 -0.001050406530937789 0.03746162167924669
138 -0.00275 -0.001997991952014742 0.03746162167924669
139 -0.001997991952014742 -0.00275 0.03746162167924669
140 -0.001050406530937789 -0.003232818887608602 0.03746162167924669
141 -0.006149186938124421 -0.001997991952014742 0.03589918693812442
142 -0.005230810839623345 -0.003800406530937789 0.03589918693812442
143 -0.003800406530937789 -0.005230810839623345 0.03589918693812442
144 -0.001997991952014743 -0.006149186938124421 0.03589918693812442
145 -0.008463629727231947 -0.00275 0.0334656377752172
146 -0.007199593469062212 -0.005230810839623345 0.0334656377752172
147 -0.005230810839623345 -0.007199593469062212 0.0334656377752172
148 -0.00275 -0.008463629727231947 0.0334656377752172
149 -0.009949593469062209 -0.003232818887608601 0.03039918693812442
150 -0.008463629727231945 -0.006149186938124421 0.03039918693812442
151 -0.006149186938124421 -0.008463629727231945 0.03039918693812442
152 -0.003232818887608602 -0.009949593469062209 0.03039918693812442
153 -0.01046162167924669 -0.003399186938124421 0.023625
154 -0.008899186938124422 -0.006465637775217204 0.023625
155 -0.006465637775217204 -0.008899186938124422 0.023625
156 -0.003399186938124422 -0.01046162167924669 0.023625
157 -0.01046162167924669 -0.003399186938124421 0.02025
158 -0.008899186938124422 -0.006465637775217204 0.02025
159 -0.006465637775217204 -0.008899186938124422 0.02025
160 -0.003399186938124422 -0.01046162167924669 0.02025
161 -0.01046162167924669 -0.003399186938124421 0.016875
162 -0.008899186938124422 -0.006465637775217204 0.016875
163 -0.006465637775217204 -0.008899186938124422 0.016875
164 -0.003399186938124422 -0.01046162167924669 0.016875
165 -0.01046162167924669 -0.003399186938124421 0.0135
166 -0.008899186938124422 -0.006465637775217204 0.0135
167 -0.006465637775217204 -0.008899186938124422 0.0135
168 -0.003399186938124422 -0.01046162167924669 0.0135
169 -0.01046162167924669 -0.003399186938124421 0.010125
170 -0.008899186938124422 -0.006465637775217204 0.010125
171 -0.006465637775217204 -0.008899186938124422 0.010125
172 -0.003399186938124422 -0.01046162167924669 0.010125
173 -0.01046162167924669 -0.003399186938124421 0.006749999999999999
174 -0.008899186938124422 -0.006465637775217204 0.006749999999999999
175 -0.006465637775217204 -0.008899186938124422 0.006749999999999999
176 -0.003399186938124422 -0.01046162167924669 0.006749999999999999
177 -0.01046162167924669 -0.003399186938124421 0.003375
178 -0.008899186938124422 -0.006465637775217204 0.003375
179 -0.006465637775217204 -0.008899186938124422 0.003375
180 -0.003399186938124422 -0.01046162167924669 0.003375
181 -0.01046162167924669 -0.003399186938124421 0
182 -0.008899186938124422 -0.006465637775217204 0
183 -0.006465637775217204 -0.008899186938124422 0
184 -0.003399186938124422 -0.01046162167924669 0
185 -0.01046162167924669 -0.003399186938124421 -0.003375
186 -0.008899186938124422 -0.006465637775217204 -0.003375
187 -0.006465637775217204 -0.008899186938124422 -0.003375
188 -0.003399186938124422 -0.01046162167924669 -0.003375
189 -0.01046162167924669 -0.003399186938124421 -0.006750000000000003
190 -0.008899186938124422 -0.006465637775217204 -0.006750000000000003
191 -0.006465637775217204 -0.008899186938124422 -0.006750000000000003
192 -0.003399186938124422 -0.01046162167924669 -0.006750000000000003
193 -0.01046162167924669 -0.003399186938124421 -0.010125
194 -0.008899186938124422 -0.006465637775217204 -0.010125
195 -0.006465637775217204 -0.008899186938124422 -0.010125
196 -0.003399186938124422 -0.01046162167924669 -0.010125
197 -0.01046162167924669 -0.003399186938124421 -0.0135
198 -0.008899186938124422 -0.006465637775217204 -0.0135
199 -0.006465637775217204 -0.008899186938124422 -0.0135
200 -0.003399186938124422 -0.01046162167924669 -0.0135
201 -0.01046162167924669 -0.003399186938124421 -0.016875
202 -0.008899186938124422 -0.006465637775217204 -0.016875
203 -0.006465637775217204 -0.008899186938124422 -0.016875
204 -0.003399186938124422 -0.01046162167924669 -0.016875
205 -0.01046162167924669 -0.003399186938124421 -0.02025
206 -0.008899186938124422 -0.006465637775217204 -0.02025
207 -0.006465637775217204 -0.008899186938124422 -0.02025
208 -0.003399186938124422 -0.01046162167924669 -0.02025
209 -0.01046162167924669 -0.003399186938124421 -0.023625
210 -0.008899186938124422 -0.006465637775217204 -0.023625
211 -0.006465637775217204 -0.008899186938124422 -0.023625
212 -0.003399186938124422 -0.01046162167924669 -0.023625
213 -0.009949593469062209 -0.003232818887608601 -0.03039918693812442
214 -0.008463629727231945 -0.006149186938124421 -0.03039918693812442
215 -0.006149186938124421 -0.008463629727231945 -0.03039918693812442
216 -0.003232818887608602 -0.009949593469062209 -0.03039918693812442
217 -0.008463629727231947 -0.00275 -0.0334656377752172
218 -0.007199593469062212 -0.005230810839623345 -0.0334656377752172
219 -0.005230810839623345 -0.007199593469062212 -0.0334656377752172
220 -0.00275 -0.008463629727231947 -0.0334656377752172
221 -0.006149186938124421 -0.001997991952014742 -0.03589918693812442
222 -0.005230810839623345 -0.003800406530937789 -0.03589918693812442
223 -0.003800406530937789 -0.005230810839623345 -0.03589918693812442
224 -0.001997991952014743 -0.006149186938124421 -0.03589918693812442
225 -0.003232818887608602 -0.001050406530937789 -0.03746162167924669
226 -0.00275 -0.001997991952014742 -0.03746162167924669
227 -0.001997991952014742 -0.00275 -0.03746162167924669
228 -0.001050406530937789 -0.003232818887608602 -0.03746162167924669
229 0.001050406530937789 -0.003232818887608602 0.03746162167924669
230 0.001997991952014742 -0.00275 0.03746162167924669
231 0.00275 -0.001997991952014742 0.03746162167924669
232 0.003232818887608602 -0.001050406530937789 0.03746162167924669
233 0.001997991952014742 -0.006149186938124421 0.03589918693812442
234 0.003800406530937789 -0.005230810839623345 0.03589918693812442
235 0.005230810839623345 -0.003800406530937789 0.03589918693812442
236 0.006149186938124421 -0.001997991952014743 0.03589918693812442
237 0.002749999999999999 -0.008463629727231947 0.0334656377752172
238 0.005230810839623344 -0.007199593469062212 0.0334656377752172
239 0.007199593469062212 -0.005230810839623345 0.0334656377752172
240 0.008463629727231947 -0.002750000000000001 0.0334656377752172
241 0.003232818887608601 -0.009949593469062209 0.03039918693812442
242 0.00614918693812442 -0.008463629727231945 0.03039918693812442
243 0.008463629727231945 -0.006149186938124422 0.03039918693812442
244 0.009949593469062209 -0.003232818887608602 0.03039918693812442
245 0.003399186938124421 -0.01046162167924669 0.023625
246 0.006465637775217204 -0.008899186938124422 0.023625
247 0.008899186938124422 -0.006465637775217205 0.023625
248 0.01046162167924669 -0.003399186938124422 0.023625
249 0.003399186938124421 -0.01046162167924669 0.02025
250 0.006465637775217204 -0.008899186938124422 0.02025
251 0.008899186938124422 -0.006465637775217205 0.02025
252 0.01046162167924669 -0.003399186938124422 0.02025
253 0.003399186938124421 -0.01046162167924669 0.016875
254 0.006465637775217204 -0.008899186938124422 0.016875
255 0.008899186938124422 -0.006465637775217205 0.016875
256 0.01046162167924669 -0.003399186938124422 0.016875
257 0.003399186938124421 -0.01046162167924669 0.0135
258 0.006465637775217204 -0.008899186938124422 0.0135
259 0.008899186938124422 -0.006465637775217205 0.0135
260 0.01046162167924669 -0.003399186938124422 0.0135
261 0.003399186938124421 -0.01046162167924669 0.010125
262 0.006465637775217204 -0.008899186938124422 0.010125
263 0.008899186938124422 -0.006465637775217205 0.010125
264 0.01046162167924669 -0.003399186938124422 0.010125
265 0.003399186938124421 -0.01046162167924669 0.006749999999999999
266 0.006465637775217204 -0.008899186938124422 0.006749999999999999
267 0.008899186938124422 -0.006465637775217205 0.006749999999999999
268 0.01046162167924669 -0.003399186938124422 0.006749999999999999
269 0.003399186938124421 -0.01046162167924669 0.003375
270 0.006465637775217204 -0.008899186938124422 0.003375
271 0.008899186938124422 -0.006465637775217205 0.003375
272 0.01046162167924669 -0.003399186938124422 0.003375
273 0.003399186938124421 -0.01046162167924669 0
274 0.006465637775217204 -0.008899186938124422 0
275 0.008899186938124422 -0.006465637775217205 0
276 0.01046162167924669 -0.003399186938124422 0
277 0.003399186938124421 -0.01046162167924669 -0.003375
278 0.006465637775217204 -0.008899186938124422 -0.003375
279 0.008899186938124422 -0.006465637775217205 -0.003375
280 0.01046162167924669 -0.003399186938124422 -0.003375
281 0.003399186938124421 -0.01046162167924669 -0.006750000000000003
282 0.006465637775217204 -0.008899186938124422 -0.006750000000000003
283 0.008899186938124422 -0.006465637775217205 -0.006750000000000003
284 0.01046162167924669 -0.003399186938124422 -0.006750000000000003
285 0.003399186938124421 -0.01046162167924669 -0.010125
286 0.006465637775217204 -0.008899186938124422 -0.010125
287 0.008899186938124422 -0.006465637775217205 -0.010125
288 0.01046162167924669 -0.003399186938124422 -0.010125
289 0.003399186938124421 -0.01046162167924669 -0.0135
290 0.006465637775217204 -0.008899186938124422 -0.0135
291 0.008899186938124422 -0.006465637775217205 -0.0135
292 0.01046162167924669 -0.003399186938124422 -0.0135
293 0.003399186938124421 -0.01046162167924669 -0.016875
294 0.006465637775217204 -0.008899186938124422 -0.016875
295 0.008899186938124422 -0.006465637775217205 -0.016875
296 0.01046162167924669 -0.003399186938124422 -0.016875
297 0.003399186938124421 -0.01046162167924669 -0.02025
298 0.006465637775217204 -0.008899186938124422 -0.02025
299 0.008899186938124422 -0.006465637775217205 -0.02025
300 0.01046162167924669 -0.003399186938124422 -0.02025
301 0.003399186938124421 -0.01046162167924669 -0.023625
302 0.006465637775217204 -0.008899186938124422 -0.023625
303 0.008899186938124422 -0.006465637775217205 -0.023625
304 0.01046162167924669 -0.003399186938124422 -0.023625
305 0.003232818887608601 -0.009949593469062209 -0.03039918693812442
306 0.00614918693812442 -0.008463629727231945 -0.03039918693812442
307 0.008463629727231945 -0.006149186938124422 -0.03039918693812442
308 0.009949593469062209 -0.003232818887608602 -0.03039918693812442
309 0.002749999999999999 -0.008463629727231947 -0.0334656377752172
310 0.005230810839623344 -0.007199593469062212 -0.0334656377752172
311 0.007199593469062212 -0.005230810839623345 -0.0334656377752172
312 0.008463629727231947 -0.002750000000000001 -0.0334656377752172
313 0.001997991952014742 -0.006149186938124421 -0.03589918693812442
314 0.003800406530937789 -0.005230810839623345 -0.03589918693812442
315 0.005230810839623345 -0.003800406530937789 -0.03589918693812442
316 0.006149186938124421 -0.001997991952014743 -0.03589918693812442
317 0.001050406530937789 -0.003232818887608602 -0.03746162167924669
318 0.001997991952014742 -0.00275 -0.03746162167924669
319 0.00275 -0.001997991952014742 -0.03746162167924669
320 0.003232818887608602 -0.001050406530937789 -0.03746162167924669
321 0.003232818887608602 0.001050406530937789 0.03746162167924669
322 0.00275 0.001997991952014742 0.03746162167924669
323 0.001997991952014743 0.002749999999999999 0.03746162167924669
324 0.00105040653093779 0.003232818887608602 0.03746162167924669
325 0.006149186938124421 0.001997991952014742 0.03589918693812442
326 0.005230810839623345 0.003800406530937789 0.03589918693812442
327 0.003800406530937789 0.005230810839623344 0.03589918693812442
328 0.001997991952014744 0.006149186938124421 0.03589918693812442
329 0.008463629727231947 0.002749999999999999 0.0334656377752172
330 0.007199593469062212 0.005230810839623344 0.0334656377752172
331 0.005230810839623345 0.007199593469062211 0.0334656377752172
332 0.002750000000000001 0.008463629727231947 0.0334656377752172
333 0.009949593469062209 0.0032328188876086 0.03039918693812442
334 0.008463629727231945 0.00614918693812442 0.03039918693812442
335 0.006149186938124422 0.008463629727231945 0.03039918693812442
336 0.003232818887608603 0.009949593469062209 0.03039918693812442
337 0.01046162167924669 0.00339918693812442 0.023625
338 0.008899186938124422 0.006465637775217204 0.023625
339 0.006465637775217205 0.008899186938124422 0.023625
340 0.003399186938124423 0.01046162167924669 0.023625
341 0.01046162167924669 0.00339918693812442 0.02025
342 0.008899186938124422 0.006465637775217204 0.02025
343 0.006465637775217205 0.008899186938124422 0.02025
344 0.003399186938124423 0.01046162167924669 0.02025
345 0.01046162167924669 0.00339918693812442 0.016875
346 0.008899186938124422 0.006465637775217204 0.016875
347 0.006465637775217205 0.008899186938124422 0.016875
348 0.003399186938124423 0.01046162167924669 0.016875
349 0.01046162167924669 0.00339918693812442 0.0135
350 0.008899186938124422 0.006465637775217204 0.0135
351 0.006465637775217205 0.008899186938124422 0.0135
352 0.003399186938124423 0.01046162167924669 0.0135
353 0.01046162167924669 0.00339918693812442 0.010125
354 0.008899186938124422 0.006465637775217204 0.010125
355 0.006465637775217205 0.008899186938124422 0.010125
356 0.003399186938124423 0.01046162167924669 0.010125
357 0.01046162167924669 0.00339918693812442 0.006749999999999999
358 0.008899186938124422 0.006465637775217204 0.006749999999999999
359 0.006465637775217205 0.008899186938124422 0.006749999999999999
360 0.003399186938124423 0.01046162167924669 0.006749999999999999
361 0.01046162167924669 0.00339918693812442 0.003375
362 0.008899186938124422 0.006465637775217204 0.003375
363 0.006465637775217205 0.008899186938124422 0.003375
364 0.003399186938124423 0.01046162167924669 0.003375
365 0.01046162167924669 0.00339918693812442 0
366 0.008899186938124422 0.006465637775217204 0
367 0.006465637775217205 0.008899186938124422 0
368 0.003399186938124423 0.01046162167924669 0
369 0.01046162167924669 0.00339918693812442 -0.003375
370 0.008899186938124422 0.006465637775217204 -0.003375
371 0.006465637775217205 0.008899186938124422 -0.003375
372 0.003399186938124423 0.01046162167924669 -0.003375
373 0.01046162167924669 0.00339918693812442 -0.006750000000000003
374 0.008899186938124422 0.006465637775217204 -0.006750000000000003
375 0.006465637775217205 0.008899186938124422 -0.006750000000000003
376 0.003399186938124423 0.01046162167924669 -0.006750000000000003
377 0.01046162167924669 0.00339918693812442 -0.010125
378 0.008899186938124422 0.006465637775217204 -0.010125
379 0.006465637775217205 0.008899186938124422 -0.010125
380 0.003399186938124423 0.01046162167924669 -0.010125
381 0.01046162167924669 0.00339918693812442 -0.0135
382 0.008899186938124422 0.006465637775217204 -0.0135
383 0.006465637775217205 0.008899186938124422 -0.0135
384 0.003399186938124423 0.01046162167924669 -0.0135
385 0.01046162167924669 0.00339918693812442 -0.016875
386 0.008899186938124422 0.006465637775217204 -0.016875
387 0.006465637775217205 0.008899186938124422 -0.016875
388 0.003399186938124423 0.01046162167924669 -0.016875
389 0.01046162167924669 0.00339918693812442 -0.02025
390 0.008899186938124422 0.006465637775217204 -0.02025
391 0.006465637775217205 0.008899186938124422 -0.02025
392 0.003399186938124423 0.01046162167924669 -0.02025
393 0.01046162167924669 0.00339918693812442 -0.023625
394 0.008899186938124422 0.006465637775217204 -0.023625
395 0.006465637775217205 0.008899186938124422 -0.023625
396 0.003399186938124423 0.01046162167924669 -0.023625
397 0.009949593469062209 0.0032328188876086 -0.03039918693812442
398 0.008463629727231945 0.00614918693812442 -0.03039918693812442
399 0.006149186938124422 0.008463629727231945 -0.03039918693812442
400 0.003232818887608603 0.009949593469062209 -0.03039918693812442
401 0.008463629727231947 0.002749999999999999 -0.0334656377752172
402 0.007199593469062212 0.005230810839623344 -0.0334656377752172
403 0.005230810839623345 0.007199593469062211 -0.0334656377752172
404 0.002750000000000001 0.008463629727231947 -0.0334656377752172
405 0.006149186938124421 0.001997991952014742 -0.03589918693812442
406 0.005230810839623345 0.003800406530937789 -0.03589918693812442
407 0.003800406530937789 0.005230810839623344 -0.03589918693812442
408 0.001997991952014744 0.006149186938124421 -0.03589918693812442
409 0.003232818887608602 0.001050406530937789 -0.03746162167924669
410 0.002750000000000001 0.001997991952014742 -0.03746162167924669
411 0.001997991952014743 0.00275 -0.03746162167924669
412 0.00105040653093779 0.003232818887608602 -0.03746162167924669
413 -0.001050406530937788 0.003232818887608602 0.03746162167924669
414 -0.001997991952014742 0.00275 0.03746162167924669
415 -0.002749999999999999 0.001997991952014743 0.03746162167924669
416 -0.003232818887608602 0.00105040653093779 0.03746162167924669
417 -0.001997991952014741 0.006149186938124421 0.03589918693812442
418 -0.003800406530937788 0.005230810839623345 0.03589918693812442
419 -0.005230810839623344 0.00380040653093779 0.03589918693812442
420 -0.006149186938124421 0.001997991952014744 0.03589918693812442
421 -0.002749999999999998 0.008463629727231947 0.0334656377752172
422 -0.005230810839623343 0.007199593469062212 0.0334656377752172
423 -0.007199593469062211 0.005230810839623346 0.0334656377752172
424 -0.008463629727231947 0.002750000000000002 0.0334656377752172
425 -0.0032328188876086 0.009949593469062209 0.03039918693812442
426 -0.006149186938124419 0.008463629727231947 0.03039918693812442
427 -0.008463629727231943 0.006149186938124423 0.03039918693812442
428 -0.009949593469062209 0.003232818887608604 0.03039918693812442
429 -0.00339918693812442 0.01046162167924669 0.023625
430 -0.006465637775217203 0.008899186938124424 0.023625
431 -0.00889918693812442 0.006465637775217206 0.023625
432 -0.01046162167924669 0.003399186938124423 0.023625
433 -0.00339918693812442 0.01046162167924669 0.02025
434 -0.006465637775217203 0.008899186938124424 0.02025
435 -0.00889918693812442 0.006465637775217206 0.02025
436 -0.01046162167924669 0.003399186938124423 0.02025
437 -0.00339918693812442 0.01046162167924669 0.016875
438 -0.006465637775217203 0.008899186938124424 0.016875
439 -0.00889918693812442 0.006465637775217206 0.016875
440 -0.01046162167924669 0.003399186938124423 0.016875
441 -0.00339918693812442 0.01046162167924669 0.0135
442 -0.006465637775217203 0.008899186938124424 0.0135
443 -0.00889918693812442 0.006465637775217206 0.0135
444 -0.01046162167924669 0.003399186938124423 0.0135
445 -0.00339918693812442 0.01046162167924669 0.010125
446 -0.006465637775217203 0.008899186938124424 0.010125
447 -0.00889918693812442 0.006465637775217206 0.010125
448 -0.01046162167924669 0.003399186938124423 0.010125
449 -0.00339918693812442 0.01046162167924669 0.006749999999999999
450 -0.006465637775217203 0.008899186938124424 0.006749999999999999
451 -0.00889918693812442 0.006465637775217206 0.006749999999999999
452 -0.01046162167924669 0.003399186938124423 0.006749999999999999
453 -0.00339918693812442 0.01046162167924669 0.003375
454 -0.006465637775217203 0.008899186938124424 0.003375
455 -0.00889918693812442 0.006465637775217206 0.003375
456 -0.01046162167924669 0.003399186938124423 0.003375
457 -0.00339918693812442 0.01046162167924669 0
458 -0.006465637775217203 0.008899186938124424 0
459 -0.00889918693812442 0.006465637775217206 0
460 -0.01046162167924669 0.003399186938124423 0
461 -0.00339918693812442 0.01046162167924669 -0.003375
462 -0.006465637775217203 0.008899186938124424 -0.003375
463 -0.00889918693812442 0.006465637775217206 -0.003375
464 -0.01046162167924669 0.003399186938124423 -0.003375
465 -0.00339918693812442 0.01046162167924669 -0.006750000000000003
466 -0.006465637775217203 0.008899186938124424 -0.006750000000000003
467 -0.00889918693812442 0.006465637775217206 -0.006750000000000003
468 -0.01046162167924669 0.003399186938124423 -0.006750000000000003
469 -0.00339918693812442 0.01046162167924669 -0.010125
470 -0.006465637775217203 0.008899186938124424 -0.010125
471 -0.00889918693812442 0.006465637775217206 -0.010125
472 -0.01046162167924669 0.003399186938124423 -0.010125
473 -0.00339918693812442 0.01046162167924669 -0.0135
474 -0.006465637775217203 0.008899186938124424 -0.0135
475 -0.00889918693812442 0.006465637775217206 -0.0135
476 -0.01046162167924669 0.003399186938124423 -0.0135
477 -0.00339918693812442 0.01046162167924669 -0.016875
478 -0.006465637775217203 0.008899186938124424 -0.016875
479 -0.00889918693812442 0.006465637775217206 -0.016875
480 -0.01046162167924669 0.003399186938124423 -0.016875
481 -0.00339918693812442 0.01046162167924669 -0.02025
482 -0.006465637775217203 0.008899186938124424 -0.02025
483 -0.00889918693812442 0.006465637775217206 -0.02025
484 -0.01046162167924669 0.003399186938124423 -0.02025
485 -0.00339918693812442 0.01046162167924669 -0.023625
486 -0.006465637775217203 0.008899186938124424 -0.023625
487 -0.00889918693812442 0.006465637775217206 -0.023625
488 -0.01046162167924669 0.003399186938124423 -0.023625
489 -0.0032328188876086 0.009949593469062209 -0.03039918693812442
490 -0.006149186938124419 0.008463629727231947 -0.03039918693812442
491 -0.008463629727231943 0.006149186938124423 -0.03039918693812442
492 -0.009949593469062209 0.003232818887608604 -0.03039918693812442
493 -0.002749999999999998 0.008463629727231947 -0.0334656377752172
494 -0.005230810839623343 0.007199593469062212 -0.0334656377752172
495 -0.007199593469062211 0.005230810839623346 -0.0334656377752172
496 -0.008463629727231947 0.002750000000000002 -0.0334656377752172
497 -0.001997991952014741 0.006149186938124421 -0.03589918693812442
498 -0.003800406530937788 0.005230810839623345 -0.03589918693812442
499 -0.005230810839623344 0.00380040653093779 -0.03589918693812442
500 -0.006149186938124421 0.001997991952014744 -0.03589918693812442
501 -0.001050406530937788 0.003232818887608602 -0.03746162167924669
502 -0.001997991952014742 0.002750000000000001 -0.03746162167924669
503 -0.00275 0.001997991952014743 -0.03746162167924669
504 -0.003232818887608602 0.00105040653093779 -0.03746162167924669
$EndNodes
$Elements
1156
1 15 2 0 0 1
2 15 2 0 1 2
3 15 2 0 2 3
4 15 2 0 3 4
5 15 2 0 4 5
6 15 2 0 6 6
7 15 2 0 9 7
8 15 2 0 11 8
9 15 2 0 14 9
10 15 2 0 16 10
11 15 2 0 19 11
12 15 2 0 21 12
13 1 2 0 1 1 13
14 1 2 0 1 13 14
15 1 2 0 1 14 15
16 1 2 0 1 15 16
17 1 2 0 1 16 2
18 1 2 0 2 2 17
19 1 2 0 2 17 18
20 1 2 0 2 18 19
21 1 2 0 2 19 20
22 1 2 0 2 20 21
23 1 2 0 2 21 22
24 1 2 0 2 22 23
25 1 2 0 2 23 24
26 1 2 0 2 24 25
27 1 2 0 2 25 26
28 1 2 0 2 26 27
29 1 2 0 2 27 28
30 1 2 0 2 28 29
31 1 2 0 2 29 30
32 1 2 0 2 30 31
33 1 2 0 2 31 4
34 1 2 0 3 4 32
35 1 2 0 3 32 33
36 1 2 0 3 33 34
37 1 2 0 3 34 35
38 1 2 0 3 35 5
39 1 2 0 4 1 36
40 1 2 0 4 36 37
41 1 2 0 4 37 38
42 1 2 0 4 38 39
43 1 2 0 4 39 7
44 1 2 0 5 2 40
45 1 2 0 5 40 41
46 1 2 0 5 41 42
47 1 2 0 5 42 43
48 1 2 0 5 43 7
49 1 2 0 7 7 44
50 1 2 0 7 44 45
51 1 2 0 7 45 46
52 1 2 0 7 46 47
53 1 2 0 7 47 48
54 1 2 0 7 48 49
55 1 2 0 7 49 50
56 1 2 0 7 50 51
57 1 2 0 7 51 52
58 1 2 0 7 52 53
59 1 2 0 7 53 54
60 1 2 0 7 54 55
61 1 2 0 7 55 56
62 1 2 0 7 56 57
63 1 2 0 7 57 58
64 1 2 0 7 58 8
65 1 2 0 9 4 59
66 1 2 0 9 59 60
67 1 2 0 9 60 61
68 1 2 0 9 61 62
69 1 2 0 9 62 8
70 1 2 0 11 8 63
71 1 2 0 11 63 64
72 1 2 0 11 64 65
73 1 2 0 11 65 66
74 1 2 0 11 66 5
75 1 2 0 14 1 67
76 1 2 0 14 67 68
77 1 2 0 14 68 69
78 1 2 0 14 69 70
79 1 2 0 14 70 9
80 1 2 0 15 7 71
81 1 2 0 15 71 72
82 1 2 0 15 72 73
83 1 2 0 15 73 74
84 1 2 0 15 74 9
85 1 2 0 17 9 75
86 1 2 0 17 75 76
87 1 2 0 17 76 77
88 1 2 0 17 77 78
89 1 2 0 17 78 79
90 1 2 0 17 79 80
91 1 2 0 17 80 81
92 1 2 0 17 81 82
93 1 2 0 17 82 83
94 1 2 0 17 83 84
95 1 2 0 17 84 85
96 1 2 0 17 85 86
97 1 2 0 17 86 87
98 1 2 0 17 87 88
99 1 2 0 17 88 89
100 1 2 0 17 89 10
101 1 2 0 19 8 90
102 1 2 0 19 90 91
103 1 2 0 19 91 92
104 1 2 0 19 92 93
105 1 2 0 19 93 10
106 1 2 0 21 10 94
107 1 2 0 21 94 95
108 1 2 0 21 95 96
109 1 2 0 21 96 97
110 1 2 0 21 97 5
111 1 2 0 24 1 98
112 1 2 0 24 98 99
113 1 2 0 24 99 100
114 1 2 0 24 100 101
115 1 2 0 24 101 11
116 1 2 0 25 9 102
117 1 2 0 25 102 103
118 1 2 0 25 103 104
119 1 2 0 25 104 105
120 1 2 0 25 105 11
121 1 2 0 27 11 106
122 1 2 0 27 106 107
123 1 2 0 27 107 108
124 1 2 0 27 108 109
125 1 2 0 27 109 110
126 1 2 0 27 110 111
127 1 2 0 27 111 112
128 1 2 0 27 112 113
129 1 2 0 27 113 114
130 1 2 0 27 114 115
131 1 2 0 27 115 116
132 1 2 0 27 116 117
133 1 2 0 27 117 118
134 1 2 0 27 118 119
135 1 2 0 27 119 120
136 1 2 0 27 120 12
137 1 2 0 29 10 121
138 1 2 0 29 121 122
139 1 2 0 29 122 123
140 1 2 0 29 123 124
141 1 2 0 29 124 12
142 1 2 0 31 12 125
143 1 2 0 31 125 126
144 1 2 0 31 126 127
145 1 2 0 31 127 128
146 1 2 0 31 128 5
147 1 2 0 35 11 129
148 1 2 0 35 129 130
149 1 2 0 35 130 131
150 1 2 0 35 131 132
151 1 2 0 35 132 2
152 1 2 0 39 12 133
153 1 2 0 39 133 134
154 1 2 0 39 134 135
155 1 2 0 39 135 136
156 1 2 0 39 136 4
157 2 2 0 6 1 13 137
158 2 2 0 6 1 137 138
159 2 2 0 6 1 138 139
160 2 2 0 6 1 139 140
161 2 2 0 6 1 140 36
162 2 2 0 6 13 14 141
163 2 2 0 6 13 141 137
164 2 2 0 6 137 141 142
165 2 2 0 6 137 142 138
166 2 2 0 6 138 142 143
167 2 2 0 6 138 143 139
168 2 2 0 6 139 143 144
169 2 2 0 6 139 144 140
170 2 2 0 6 140 144 37
171 2 2 0 6 140 37 36
172 2 2 0 6 14 15 145
173 2 2 0 6 14 145 141
174 2 2 0 6 141 145 146
175 2 2 0 6 141 146 142
176 2 2 0 6 142 146 147
177 2 2 0 6 142 147 143
178 2 2 0 6 143 147 148
179 2 2 0 6 143 148 144
180 2 2 0 6 144 148 38
181 2 2 0 6 144 38 37
182 2 2 0 6 15 16 149
183 2 2 0 6 15 149 145
184 2 2 0 6 145 149 150
185 2 2 0 6 145 150 146
186 2 2 0 6 146 150 151
187 2 2 0 6 146 151 147
188 2 2 0 6 147 151 152
189 2 2 0 6 147 152 148
190 2 2 0 6 148 152 39
191 2 2 0 6 148 39 38
192 2 2 0 6 16 2 40
193 2 2 0 6 16 40 149
194 2 2 0 6 149 40 41
195 2 2 0 6 149 41 150
196 2 2 0 6 150 41 42
197 2 2 0 6 150 42 151
198 2 2 0 6 151 42 43
199 2 2 0 6 151 43 152
200 2 2 0 6 152 43 7
201 2 2 0 6 152 7 39
202 2 2 0 10 2 17 153
203 2 2 0 10 2 153 40
204 2 2 0 10 40 153 154
205 2 2 0 10 40 154 41
206 2 2 0 10 41 154 155
207 2 2 0 10 41 155 42
208 2 2 0 10 42 155 156
209 2 2 0 10 42 156 43
210 2 2 0 10 43 156 44
211 2 2 0 10 43 44 7
212 2 2 0 10 17 18 157
213 2 2 0 10 17 157 153
214 2 2 0 10 153 157 158
215 2 2 0 10 153 158 154
216 2 2 0 10 154 158 159
217 2 2 0 10 154 159 155
218 2 2 0 10 155 159 160
219 2 2 0 10 155 160 156
220 2 2 0 10 156 160 45
221 2 2 0 10 156 45 44
222 2 2 0 10 18 19 161
223 2 2 0 10 18 161 157
224 2 2 0 10 157 161 162
225 2 2 0 10 157 162 158
226 2 2 0 10 158 162 163
227 2 2 0 10 158 163 159
228 2 2 0 10 159 163 164
229 2 2 0 10 159 164 160
230 2 2 0 10 160 164 46
231 2 2 0 10 160 46 45
232 2 2 0 10 19 20 165
233 2 2 0 10 19 165 161
234 2 2 0 10 161 165 166
235 2 2 0 10 161 166 162
236 2 2 0 10 162 166 167
237 2 2 0 10 162 167 163
238 2 2 0 10 163 167 168
239 2 2 0 10 163 168 164
240 2 2 0 10 164 168 47
241 2 2 0 10 164 47 46
242 2 2 0 10 20 21 169
243 2 2 0 10 20 169 165
244 2 2 0 10 165 169 170
245 2 2 0 10 165 170 166
246 2 2 0 10 166 170 171
247 2 2 0 10 166 171 167
248 2 2 0 10 167 171 172
249 2 2 0 10 167 172 168
250 2 2 0 10 168 172 48
251 2 2 0 10 168 48 47
252 2 2 0 10 21 22 173
253 2 2 0 10 21 173 169
254 2 2 0 10 169 173 174
255 2 2 0 10 169 174 170
256 2 2 0 10 170 174 175
257 2 2 0 10 170 175 171
258 2 2 0 10 171 175 176
259 2 2 0 10 171 176 172
260 2 2 0 10 172 176 49
261 2 2 0 10 172 49 48
262 2 2 0 10 22 23 177
263 2 2 0 10 22 177 173
264 2 2 0 10 173 177 178
265 2 2 0 10 173 178 174
266 2 2 0 10 174 178 179
267 2 2 0 10 174 179 175
268 2 2 0 10 175 179 180
269 2 2 0 10 175 180 176
270 2 2 0 10 176 180 50
271 2 2 0 10 176 50 49
272 2 2 0 10 23 24 181
273 2 2 0 10 23 181 177
274 2 2 0 10 177 181 182
275 2 2 0 10 177 182 178
276 2 2 0 10 178 182 183
277 2 2 0 10 178 183 179
278 2 2 0 10 179 183 184
279 2 2 0 10 179 184 180
280 2 2 0 10 180 184 51
281 2 2 0 10 180 51 50
282 2 2 0 10 24 25 185
283 2 2 0 10 24 185 181
284 2 2 0 10 181 185 186
285 2 2 0 10 181 186 182
286 2 2 0 10 182 186 187
287 2 2 0 10 182 187 183
288 2 2 0 10 183 187 188
289 2 2 0 10 183 188 184
290 2 2 0 10 184 188 52
291 2 2 0 10 184 52 51
292 2 2 0 10 25 26 189
293 2 2 0 10 25 189 185
294 2 2 0 10 185 189 190
295 2 2 0 10 185 190 186
296 2 2 0 10 186 190 191
297 2 2 0 10 186 191 187
298 2 2 0 10 187 191 192
299 2 2 0 10 187 192 188
300 2 2 0 10 188 192 53
301 2 2 0 10 188 53 52
302 2 2 0 10 26 27 193
303 2 2 0 10 26 193 189
304 2 2 0 10 189 193 194
305 2 2 0 10 189 194 190
306 2 2 0 10 190 194 195
307 2 2 0 10 190 195 191
308 2 2 0 10 191 195 196
309 2 2 0 10 191 196 192
310 2 2 0 10 192 196 54
311 2 2 0 10 192 54 53
312 2 2 0 10 27 28 197
313 2 2 0 10 27 197 193
314 2 2 0 10 193 197 198
315 2 2 0 10 193 198 194
316 2 2 0 10 194 198 199
317 2 2 0 10 194 199 195
318 2 2 0 10 195 199 200
319 2 2 0 10 195 200 196
320 2 2 0 10 196 200 55
321 2 2 0 10 196 55 54
322 2 2 0 10 28 29 201
323 2 2 0 10 28 201 197
324 2 2 0 10 197 201 202
325 2 2 0 10 197 202 198
326 2 2 0 10 198 202 203
327 2 2 0 10 198 203 199
328 2 2 0 10 199 203 204
329 2 2 0 10 199 204 200
330 2 2 0 10 200 204 56
331 2 2 0 10 200 56 55
332 2 2 0 10 29 30 205
333 2 2 0 10 29 205 201
334 2 2 0 10 201 205 206
335 2 2 0 10 201 206 202
336 2 2 0 10 202 206 207
337 2 2 0 10 202 207 203
338 2 2 0 10 203 207 208
339 2 2 0 10 203 208 204
340 2 2 0 10 204 208 57
341 2 2 0 10 204 57 56
342 2 2 0 10 30 31 209
343 2 2 0 10 30 209 205
344 2 2 0 10 205 209 210
345 2 2 0 10 205 210 206
346 2 2 0 10 206 210 211
347 2 2 0 10 206 211 207
348 2 2 0 10 207 211 212
349 2 2 0 10 207 212 208
350 2 2 0 10 208 212 58
351 2 2 0 10 208 58 57
352 2 2 0 10 31 4 59
353 2 2 0 10 31 59 209
354 2 2 0 10 209 59 60
355 2 2 0 10 209 60 210
356 2 2 0 10 210 60 61
357 2 2 0 10 210 61 211
358 2 2 0 10 211 61 62
359 2 2 0 10 211 62 212
360 2 2 0 10 212 62 8
361 2 2 0 10 212 8 58
362 2 2 0 13 4 32 213
363 2 2 0 13 4 213 59
364 2 2 0 13 59 213 214
365 2 2 0 13 59 214 60
366 2 2 0 13 60 214 215
367 2 2 0 13 60 215 61
368 2 2 0 13 61 215 216
369 2 2 0 13 61 216 62
370 2 2 0 13 62 216 63
371 2 2 0 13 62 63 8
372 2 2 0 13 32 33 217
373 2 2 0 13 32 217 213
374 2 2 0 13 213 217 218
375 2 2 0 13 213 218 214
376 2 2 0 13 214 218 219
377 2 2 0 13 214 219 215
378 2 2 0 13 215 219 220
379 2 2 0 13 215 220 216
380 2 2 0 13 216 220 64
381 2 2 0 13 216 64 63
382 2 2 0 13 33 34 221
383 2 2 0 13 33 221 217
384 2 2 0 13 217 221 222
385 2 2 0 13 217 222 218
386 2 2 0 13 218 222 223
387 2 2 0 13 218 223 219
388 2 2 0 13 219 223 224
389 2 2 0 13 219 224 220
390 2 2 0 13 220 224 65
391 2 2 0 13 220 65 64
392 2 2 0 13 34 35 225
393 2 2 0 13 34 225 221
394 2 2 0 13 221 225 226
395 2 2 0 13 221 226 222
396 2 2 0 13 222 226 227
397 2 2 0 13 222 227 223
398 2 2 0 13 223 227 228
399 2 2 0 13 223 228 224
400 2 2 0 13 224 228 66
401 2 2 0 13 224 66 65
402 2 2 0 13 35 5 225
403 2 2 0 13 225 5 226
404 2 2 0 13 226 5 227
405 2 2 0 13 227 5 228
406 2 2 0 13 228 5 66
407 2 2 0 16 1 36 229
408 2 2 0 16 1 229 230
409 2 2 0 16 1 230 231
410 2 2 0 16 1 231 232
411 2 2 0 16 1 232 67
412 2 2 0 16 36 37 233
413 2 2 0 16 36 233 229
414 2 2 0 16 229 233 234
415 2 2 0 16 229 234 230
416 2 2 0 16 230 234 235
417 2 2 0 16 230 235 231
418 2 2 0 16 231 235 236
419 2 2 0 16 231 236 232
420 2 2 0 16 232 236 68
421 2 2 0 16 232 68 67
422 2 2 0 16 37 38 237
423 2 2 0 16 37 237 233
424 2 2 0 16 233 237 238
425 2 2 0 16 233 238 234
426 2 2 0 16 234 238 239
427 2 2 0 16 234 239 235
428 2 2 0 16 235 239 240
429 2 2 0 16 235 240 236
430 2 2 0 16 236 240 69
431 2 2 0 16 236 69 68
432 2 2 0 16 38 39 241
433 2 2 0 16 38 241 237
434 2 2 0 16 237 241 242
435 2 2 0 16 237 242 238
436 2 2 0 16 238 242 243
437 2 2 0 16 238 243 239
438 2 2 0 16 239 243 244
439 2 2 0 16 239 244 240
440 2 2 0 16 240 244 70
441 2 2 0 16 240 70 69
442 2 2 0 16 39 7 71
443 2 2 0 16 39 71 241
444 2 2 0 16 241 71 72
445 2 2 0 16 241 72 242
446 2 2 0 16 242 72 73
447 2 2 0 16 242 73 243
448 2 2 0 16 243 73 74
449 2 2 0 16 243 74 244
450 2 2 0 16 244 74 9
451 2 2 0 16 244 9 70
452 2 2 0 20 7 44 245
453 2 2 0 20 7 245 71
454 2 2 0 20 71 245 246
455 2 2 0 20 71 246 72
456 2 2 0 20 72 246 247
457 2 2 0 20 72 247 73
458 2 2 0 20 73 247 248
459 2 2 0 20 73 248 74
460 2 2 0 20 74 248 75
461 2 2 0 20 74 75 9
462 2 2 0 20 44 45 249
463 2 2 0 20 44 249 245
464 2 2 0 20 245 249 250
465 2 2 0 20 245 250 246
466 2 2 0 20 246 250 251
467 2 2 0 20 246 251 247
468 2 2 0 20 247 251 252
469 2 2 0 20 247 252 248
470 2 2 0 20 248 252 76
471 2 2 0 20 248 76 75
472 2 2 0 20 45 46 253
473 2 2 0 20 45 253 249
474 2 2 0 20 249 253 254
475 2 2 0 20 249 254 250
476 2 2 0 20 250 254 255
477 2 2 0 20 250 255 251
478 2 2 0 20 251 255 256
479 2 2 0 20 251 256 252
480 2 2 0 20 252 256 77
481 2 2 0 20 252 77 76
482 2 2 0 20 46 47 257
483 2 2 0 20 46 257 253
484 2 2 0 20 253 257 258
485 2 2 0 20 253 258 254
486 2 2 0 20 254 258 259
487 2 2 0 20 254 259 255
488 2 2 0 20 255 259 260
489 2 2 0 20 255 260 256
490 2 2 0 20 256 260 78
491 2 2 0 20 256 78 77
492 2 2 0 20 47 48 261
493 2 2 0 20 47 261 257
494 2 2 0 20 257 261 262
495 2 2 0 20 257 262 258
496 2 2 0 20 258 262 263
497 2 2 0 20 258 263 259
498 2 2 0 20 259 263 264
499 2 2 0 20 259 264 260
500 2 2 0 20 260 264 79
501 2 2 0 20 260 79 78
502 2 2 0 20 48 49 265
503 2 2 0 20 48 265 261
504 2 2 0 20 261 265 266
505 2 2 0 20 261 266 262
506 2 2 0 20 262 266 267
507 2 2 0 20 262 267 263
508 2 2 0 20 263 267 268
509 2 2 0 20 263 268 264
510 2 2 0 20 264 268 80
511 2 2 0 20 264 80 79
512 2 2 0 20 49 50 269
513 2 2 0 20 49 269 265
514 2 2 0 20 265 269 270
515 2 2 0 20 265 270 266
516 2 2 0 20 266 270 271
517 2 2 0 20 266 271 267
518 2 2 0 20 267 271 272
519 2 2 0 20 267 272 268
520 2 2 0 20 268 272 81
521 2 2 0 20 268 81 80
522 2 2 0 20 50 51 273
523 2 2 0 20 50 273 269
524 2 2 0 20 269 273 274
525 2 2 0 20 269 274 270
526 2 2 0 20 270 274 275
527 2 2 0 20 270 275 271
528 2 2 0 20 271 275 276
529 2 2 0 20 271 276 272
530 2 2 0 20 272 276 82
531 2 2 0 20 272 82 81
532 2 2 0 20 51 52 277
533 2 2 0 20 51 277 273
534 2 2 0 20 273 277 278
535 2 2 0 20 273 278 274
536 2 2 0 20 274 278 279
537 2 2 0 20 274 279 275
538 2 2 0 20 275 279 280
539 2 2 0 20 275 280 276
540 2 2 0 20 276 280 83
541 2 2 0 20 276 83 82
542 2 2 0 20 52 53 281
543 2 2 0 20 52 281 277
544 2 2 0 20 277 281 282
545 2 2 0 20 277 282 278
546 2 2 0 20 278 282 283
547 2 2 0 20 278 283 279
548 2 2 0 20 279 283 284
549 2 2 0 20 279 284 280
550 2 2 0 20 280 284 84
551 2 2 0 20 280 84 83
552 2 2 0 20 53 54 285
553 2 2 0 20 53 285 281
554 2 2 0 20 281 285 286
555 2 2 0 20 281 286 282
556 2 2 0 20 282 286 287
557 2 2 0 20 282 287 283
558 2 2 0 20 283 287 288
559 2 2 0 20 283 288 284
560 2 2 0 20 284 288 85
561 2 2 0 20 284 85 84
562 2 2 0 20 54 55 289
563 2 2 0 20 54 289 285
564 2 2 0 20 285 289 290
565 2 2 0 20 285 290 286
566 2 2 0 20 286 290 291
567 2 2 0 20 286 291 287
568 2 2 0 20 287 291 292
569 2 2 0 20 287 292 288
570 2 2 0 20 288 292 86
571 2 2 0 20 288 86 85
572 2 2 0 20 55 56 293
573 2 2 0 20 55 293 289
574 2 2 0 20 289 293 294
575 2 2 0 20 289 294 290
576 2 2 0 20 290 294 295
577 2 2 0 20 290 295 291
578 2 2 0 20 291 295 296
579 2 2 0 20 291 296 292
580 2 2 0 20 292 296 87
581 2 2 0 20 292 87 86
582 2 2 0 20 56 57 297
583 2 2 0 20 56 297 293
584 2 2 0 20 293 297 298
585 2 2 0 20 293 298 294
586 2 2 0 20 294 298 299
587 2 2 0 20 294 299 295
588 2 2 0 20 295 299 300
589 2 2 0 20 295 300 296
590 2 2 0 20 296 300 88
591 2 2 0 20 296 88 87
592 2 2 0 20 57 58 301
593 2 2 0 20 57 301 297
594 2 2 0 20 297 301 302
595 2 2 0 20 297 302 298
596 2 2 0 20 298 302 303
597 2 2 0 20 298 303 299
598 2 2 0 20 299 303 304
599 2 2 0 20 299 304 300
600 2 2 0 20 300 304 89
601 2 2 0 20 300 89 88
602 2 2 0 20 58 8 90
603 2 2 0 20 58 90 301
604 2 2 0 20 301 90 91
605 2 2 0 20 301 91 302
606 2 2 0 20 302 91 92
607 2 2 0 20 302 92 303
608 2 2 0 20 303 92 93
609 2 2 0 20 303 93 304
610 2 2 0 20 304 93 10
611 2 2 0 20 304 10 89
612 2 2 0 23 8 63 305
613 2 2 0 23 8 305 90
614 2 2 0 23 90 305 306
615 2 2 0 23 90 306 91
616 2 2 0 23 91 306 307
617 2 2 0 23 91 307 92
618 2 2 0 23 92 307 308
619 2 2 0 23 92 308 93
620 2 2 0 23 93 308 94
621 2 2 0 23 93 94 10
622 2 2 0 23 63 64 309
623 2 2 0 23 63 309 305
624 2 2 0 23 305 309 310
625 2 2 0 23 305 310 306
626 2 2 0 23 306 310 311
627 2 2 0 23 306 311 307
628 2 2 0 23 307 311 312
629 2 2 0 23 307 312 308
630 2 2 0 23 308 312 95
631 2 2 0 23 308 95 94
632 2 2 0 23 64 65 313
633 2 2 0 23 64 313 309
634 2 2 0 23 309 313 314
635 2 2 0 23 309 314 310
636 2 2 0 23 310 314 315
637 2 2 0 23 310 315 311
638 2 2 0 23 311 315 316
639 2 2 0 23 311 316 312
640 2 2 0 23 312 316 96
641 2 2 0 23 312 96 95
642 2 2 0 23 65 66 317
643 2 2 0 23 65 317 313
644 2 2 0 23 313 317 318
645 2 2 0 23 313 318 314
646 2 2 0 23 314 318 319
647 2 2 0 23 314 319 315
648 2 2 0 23 315 319 320
649 2 2 0 23 315 320 316
650 2 2 0 23 316 320 97
651 2 2 0 23 316 97 96
652 2 2 0 23 66 5 317
653 2 2 0 23 317 5 318
654 2 2 0 23 318 5 319
655 2 2 0 23 319 5 320
656 2 2 0 23 320 5 97
657 2 2 0 26 1 67 321
658 2 2 0 26 1 321 322
659 2 2 0 26 1 322 323
660 2 2 0 26 1 323 324
661 2 2 0 26 1 324 98
662 2 2 0 26 67 68 325
663 2 2 0 26 67 325 321
664 2 2 0 26 321 325 326
665 2 2 0 26 321 326 322
666 2 2 0 26 322 326 327
667 2 2 0 26 322 327 323
668 2 2 0 26 323 327 328
669 2 2 0 26 323 328 324
670 2 2 0 26 324 328 99
671 2 2 0 26 324 99 98
672 2 2 0 26 68 69 329
673 2 2 0 26 68 329 325
674 2 2 0 26 325 329 330
675 2 2 0 26 325 330 326
676 2 2 0 26 326 330 331
677 2 2 0 26 326 331 327
678 2 2 0 26 327 331 332
679 2 2 0 26 327 332 328
680 2 2 0 26 328 332 100
681 2 2 0 26 328 100 99
682 2 2 0 26 69 70 333
683 2 2 0 26 69 333 329
684 2 2 0 26 329 333 334
685 2 2 0 26 329 334 330
686 2 2 0 26 330 334 335
687 2 2 0 26 330 335 331
688 2 2 0 26 331 335 336
689 2 2 0 26 331 336 332
690 2 2 0 26 332 336 101
691 2 2 0 26 332 101 100
692 2 2 0 26 70 9 102
693 2 2 0 26 70 102 333
694 2 2 0 26 333 102 103
695 2 2 0 26 333 103 334
696 2 2 0 26 334 103 104
697 2 2 0 26 334 104 335
698 2 2 0 26 335 104 105
699 2 2 0 26 335 105 336
700 2 2 0 26 336 105 11
701 2 2 0 26 336 11 101
702 2 2 0 30 9 75 337
703 2 2 0 30 9 337 102
704 2 2 0 30 102 337 338
705 2 2 0 30 102 338 103
706 2 2 0 30 103 338 339
707 2 2 0 30 103 339 104
708 2 2 0 30 104 339 340
709 2 2 0 30 104 340 105
710 2 2 0 30 105 340 106
711 2 2 0 30 105 106 11
712 2 2 0 30 75 76 341
713 2 2 0 30 75 341 337
714 2 2 0 30 337 341 342
715 2 2 0 30 337 342 338
716 2 2 0 30 338 342 343
717 2 2 0 30 338 343 339
718 2 2 0 30 339 343 344
719 2 2 0 30 339 344 340
720 2 2 0 30 340 344 107
721 2 2 0 30 340 107 106
722 2 2 0 30 76 77 345
723 2 2 0 30 76 345 341
724 2 2 0 30 341 345 346
725 2 2 0 30 341 346 342
726 2 2 0 30 342 346 347
727 2 2 0 30 342 347 343
728 2 2 0 30 343 347 348
729 2 2 0 30 343 348 344
730 2 2 0 30 344 348 108
731 2 2 0 30 344 108 107
732 2 2 0 30 77 78 349
733 2 2 0 30 77 349 345
734 2 2 0 30 345 349 350
735 2 2 0 30 345 350 346
736 2 2 0 30 346 350 351
737 2 2 0 30 346 351 347
738 2 2 0 30 347 351 352
739 2 2 0 30 347 352 348
740 2 2 0 30 348 352 109
741 2 2 0 30 348 109 108
742 2 2 0 30 78 79 353
743 2 2 0 30 78 353 349
744 2 2 0 30 349 353 354
745 2 2 0 30 349 354 350
746 2 2 0 30 350 354 355
747 2 2 0 30 350 355 351
748 2 2 0 30 351 355 356
749 2 2 0 30 351 356 352
750 2 2 0 30 352 356 110
751 2 2 0 30 352 110 109
752 2 2 0 30 79 80 357
753 2 2 0 30 79 357 353
754 2 2 0 30 353 357 358
755 2 2 0 30 353 358 354
756 2 2 0 30 354 358 359
757 2 2 0 30 354 359 355
758 2 2 0 30 355 359 360
759 2 2 0 30 355 360 356
760 2 2 0 30 356 360 111
761 2 2 0 30 356 111 110
762 2 2 0 30 80 81 361
763 2 2 0 30 80 361 357
764 2 2 0 30 357 361 362
765 2 2 0 30 357 362 358
766 2 2 0 30 358 362 363
767 2 2 0 30 358 363 359
768 2 2 0 30 359 363 364
769 2 2 0 30 359 364 360
770 2 2 0 30 360 364 112
771 2 2 0 30 360 112 111
772 2 2 0 30 81 82 365
773 2 2 0 30 81 365 361
774 2 2 0 30 361 365 366
775 2 2 0 30 361 366 362
776 2 2 0 30 362 366 367
777 2 2 0 30 362 367 363
778 2 2 0 30 363 367 368
779 2 2 0 30 363 368 364
780 2 2 0 30 364 368 113
781 2 2 0 30 364 113 112
782 2 2 0 30 82 83 369
783 2 2 0 30 82 369 365
784 2 2 0 30 365 369 370
785 2 2 0 30 365 370 366
786 2 2 0 30 366 370 371
787 2 2 0 30 366 371 367
788 2 2 0 30 367 371 372
789 2 2 0 30 367 372 368
790 2 2 0 30 368 372 114
791 2 2 0 30 368 114 113
792 2 2 0 30 83 84 373
793 2 2 0 30 83 373 369
794 2 2 0 30 369 373 374
795 2 2 0 30 369 374 370
796 2 2 0 30 370 374 375
797 2 2 0 30 370 375 371
798 2 2 0 30 371 375 376
799 2 2 0 30 371 376 372
800 2 2 0 30 372 376 115
801 2 2 0 30 372 115 114
802 2 2 0 30 84 85 377
803 2 2 0 30 84 377 373
804 2 2 0 30 373 377 378
805 2 2 0 30 373 378 374
806 2 2 0 30 374 378 379
807 2 2 0 30 374 379 375
808 2 2 0 30 375 379 380
809 2 2 0 30 375 380 376
810 2 2 0 30 376 380 116
811 2 2 0 30 376 116 115
812 2 2 0 30 85 86 381
813 2 2 0 30 85 381 377
814 2 2 0 30 377 381 382
815 2 2 0 30 377 382 378
816 2 2 0 30 378 382 383
817 2 2 0 30 378 383 379
818 2 2 0 30 379 383 384
819 2 2 0 30 379 384 380
820 2 2 0 30 380 384 117
821 2 2 0 30 380 117 116
822 2 2 0 30 86 87 385
823 2 2 0 30 86 385 381
824 2 2 0 30 381 385 386
825 2 2 0 30 381 386 382
826 2 2 0 30 382 386 387
827 2 2 0 30 382 387 383
828 2 2 0 30 383 387 388
829 2 2 0 30 383 388 384
830 2 2 0 30 384 388 118
831 2 2 0 30 384 118 117
832 2 2 0 30 87 88 389
833 2 2 0 30 87 389 385
834 2 2 0 30 385 389 390
835 2 2 0 30 385 390 386
836 2 2 0 30 386 390 391
837 2 2 0 30 386 391 387
838 2 2 0 30 387 391 392
839 2 2 0 30 387 392 388
840 2 2 0 30 388 392 119
841 2 2 0 30 388 119 118
842 2 2 0 30 88 89 393
843 2 2 0 30 88 393 389
844 2 2 0 30 389 393 394
845 2 2 0 30 389 394 390
846 2 2 0 30 390 394 395
847 2 2 0 30 390 395 391
848 2 2 0 30 391 395 396
849 2 2 0 30 391 396 392
850 2 2 0 30 392 396 120
851 2 2 0 30 392 120 119
852 2 2 0 30 89 10 121
853 2 2 0 30 89 121 393
854 2 2 0 30 393 121 122
855 2 2 0 30 393 122 394
856 2 2 0 30 394 122 123
857 2 2 0 30 394 123 395
858 2 2 0 30 395 123 124
859 2 2 0 30 395 124 396
860 2 2 0 30 396 124 12
861 2 2 0 30 396 12 120
862 2 2 0 33 10 94 397
863 2 2 0 33 10 397 121
864 2 2 0 33 121 397 398
865 2 2 0 33 121 398 122
866 2 2 0 33 122 398 399
867 2 2 0 33 122 399 123
868 2 2 0 33 123 399 400
869 2 2 0 33 123 400 124
870 2 2 0 33 124 400 125
871 2 2 0 33 124 125 12
872 2 2 0 33 94 95 401
873 2 2 0 33 94 401 397
874 2 2 0 33 397 401 402
875 2 2 0 33 397 402 398
876 2 2 0 33 398 402 403
877 2 2 0 33 398 403 399
878 2 2 0 33 399 403 404
879 2 2 0 33 399 404 400
880 2 2 0 33 400 404 126
881 2 2 0 33 400 126 125
882 2 2 0 33 95 96 405
883 2 2 0 33 95 405 401
884 2 2 0 33 401 405 406
885 2 2 0 33 401 406 402
886 2 2 0 33 402 406 407
887 2 2 0 33 402 407 403
888 2 2 0 33 403 407 408
889 2 2 0 33 403 408 404
890 2 2 0 33 404 408 127
891 2 2 0 33 404 127 126
892 2 2 0 33 96 97 409
893 2 2 0 33 96 409 405
894 2 2 0 33 405 409 410
895 2 2 0 33 405 410 406
896 2 2 0 33 406 410 411
897 2 2 0 33 406 411 407
898 2 2 0 33 407 411 412
899 2 2 0 33 407 412 408
900 2 2 0 33 408 412 128
901 2 2 0 33 408 128 127
902 2 2 0 33 97 5 409
903 2 2 0 33 409 5 410
904 2 2 0 33 410 5 411
905 2 2 0 33 411 5 412
906 2 2 0 33 412 5 128
907 2 2 0 36 1 98 413
908 2 2 0 36 1 413 414
909 2 2 0 36 1 414 415
910 2 2 0 36 1 415 416
911 2 2 0 36 1 416 13
912 2 2 0 36 98 99 417
913 2 2 0 36 98 417 413
914 2 2 0 36 413 417 418
915 2 2 0 36 413 418 414
916 2 2 0 36 414 418 419
917 2 2 0 36 414 419 415
918 2 2 0 36 415 419 420
919 2 2 0 36 415 420 416
920 2 2 0 36 416 420 14
921 2 2 0 36 416 14 13
922 2 2 0 36 99 100 421
923 2 2 0 36 99 421 417
924 2 2 0 36 417 421 422
925 2 2 0 36 417 422 418
926 2 2 0 36 418 422 423
927 2 2 0 36 418 423 419
928 2 2 0 36 419 423 424
929 2 2 0 36 419 424 420
930 2 2 0 36 420 424 15
931 2 2 0 36 420 15 14
932 2 2 0 36 100 101 425
933 2 2 0 36 100 425 421
934 2 2 0 36 421 425 426
935 2 2 0 36 421 426 422
936 2 2 0 36 422 426 427
937 2 2 0 36 422 427 423
938 2 2 0 36 423 427 428
939 2 2 0 36 423 428 424
940 2 2 0 36 424 428 16
941 2 2 0 36 424 16 15
942 2 2 0 36 101 11 129
943 2 2 0 36 101 129 425
944 2 2 0 36 425 129 130
945 2 2 0 36 425 130 426
946 2 2 0 36 426 130 131
947 2 2 0 36 426 131 427
948 2 2 0 36 427 131 132
949 2 2 0 36 427 132 428
950 2 2 0 36 428 132 2
951 2 2 0 36 428 2 16
952 2 2 0 40 11 106 429
953 2 2 0 40 11 429 129
954 2 2 0 40 129 429 430
955 2 2 0 40 129 430 130
956 2 2 0 40 130 430 431
957 2 2 0 40 130 431 131
958 2 2 0 40 131 431 432
959 2 2 0 40 131 432 132
960 2 2 0 40 132 432 17
961 2 2 0 40 132 17 2
962 2 2 0 40 106 107 433
963 2 2 0 40 106 433 429
964 2 2 0 40 429 433 434
965 2 2 0 40 429 434 430
966 2 2 0 40 430 434 435
967 2 2 0 40 430 435 431
968 2 2 0 40 431 435 436
969 2 2 0 40 431 436 432
970 2 2 0 40 432 436 18
971 2 2 0 40 432 18 17
972 2 2 0 40 107 108 437
973 2 2 0 40 107 437 433
974 2 2 0 40 433 437 438
975 2 2 0 40 433 438 434
976 2 2 0 40 434 438 439
977 2 2 0 40 434 439 435
978 2 2 0 40 435 439 440
979 2 2 0 40 435 440 436
980 2 2 0 40 436 440 19
981 2 2 0 40 436 19 18
982 2 2 0 40 108 109 441
983 2 2 0 40 108 441 437
984 2 2 0 40 437 441 442
985 2 2 0 40 437 442 438
986 2 2 0 40 438 442 443
987 2 2 0 40 438 443 439
988 2 2 0 40 439 443 444
989 2 2 0 40 439 444 440
990 2 2 0 40 440 444 20
991 2 2 0 40 440 20 19
992 2 2 0 40 109 110 445
993 2 2 0 40 109 445 441
994 2 2 0 40 441 445 446
995 2 2 0 40 441 446 442
996 2 2 0 40 442 446 447
997 2 2 0 40 442 447 443
998 2 2 0 40 443 447 448
999 2 2 0 40 443 448 444
1000 2 2 0 40 444 448 21
1001 2 2 0 40 444 21 20
1002 2 2 0 40 110 111 449
1003 2 2 0 40 110 449 445
1004 2 2 0 40 445 449 450
1005 2 2 0 40 445 450 446
1006 2 2 0 40 446 450 451
1007 2 2 0 40 446 451 447
1008 2 2 0 40 447 451 452
1009 2 2 0 40 447 452 448
1010 2 2 0 40 448 452 22
1011 2 2 0 40 448 22 21
1012 2 2 0 40 111 112 453
1013 2 2 0 40 111 453 449
1014 2 2 0 40 449 453 454
1015 2 2 0 40 449 454 450
1016 2 2 0 40 450 454 455
1017 2 2 0 40 450 455 451
1018 2 2 0 40 451 455 456
1019 2 2 0 40 451 456 452
1020 2 2 0 40 452 456 23
1021 2 2 0 40 452 23 22
1022 2 2 0 40 112 113 457
1023 2 2 0 40 112 457 453
1024 2 2 0 40 453 457 458
1025 2 2 0 40 453 458 454
1026 2 2 0 40 454 458 459
1027 2 2 0 40 454 459 455
1028 2 2 0 40 455 459 460
1029 2 2 0 40 455 460 456
1030 2 2 0 40 456 460 24
1031 2 2 0 40 456 24 23
1032 2 2 0 40 113 114 461
1033 2 2 0 40 113 461 457
1034 2 2 0 40 457 461 462
1035 2 2 0 40 457 462 458
1036 2 2 0 40 458 462 463
1037 2 2 0 40 458 463 459
1038 2 2 0 40 459 463 464
1039 2 2 0 40 459 464 460
1040 2 2 0 40 460 464 25
1041 2 2 0 40 460 25 24
1042 2 2 0 40 114 115 465
1043 2 2 0 40 114 465 461
1044 2 2 0 40 461 465 466
1045 2 2 0 40 461 466 462
1046 2 2 0 40 462 466 467
1047 2 2 0 40 462 467 463
1048 2 2 0 40 463 467 468
1049 2 2 0 40 463 468 464
1050 2 2 0 40 464 468 26
1051 2 2 0 40 464 26 25
1052 2 2 0 40 115 116 469
1053 2 2 0 40 115 469 465
1054 2 2 0 40 465 469 470
1055 2 2 0 40 465 470 466
1056 2 2 0 40 466 470 471
1057 2 2 0 40 466 471 467
1058 2 2 0 40 467 471 472
1059 2 2 0 40 467 472 468
1060 2 2 0 40 468 472 27
1061 2 2 0 40 468 27 26
1062 2 2 0 40 116 117 473
1063 2 2 0 40 116 473 469
1064 2 2 0 40 469 473 474
1065 2 2 0 40 469 474 470
1066 2 2 0 40 470 474 475
1067 2 2 0 40 470 475 471
1068 2 2 0 40 471 475 476
1069 2 2 0 40 471 476 472
1070 2 2 0 40 472 476 28
1071 2 2 0 40 472 28 27
1072 2 2 0 40 117 118 477
1073 2 2 0 40 117 477 473
1074 2 2 0 40 473 477 478
1075 2 2 0 40 473 478 474
1076 2 2 0 40 474 478 479
1077 2 2 0 40 474 479 475
1078 2 2 0 40 475 479 480
1079 2 2 0 40 475 480 476
1080 2 2 0 40 476 480 29
1081 2 2 0 40 476 29 28
1082 2 2 0 40 118 119 481
1083 2 2 0 40 118 481 477
1084 2 2 0 40 477 481 482
1085 2 2 0 40 477 482 478
1086 2 2 0 40 478 482 483
1087 2 2 0 40 478 483 479
1088 2 2 0 40 479 483 484
1089 2 2 0 40 479 484 480
1090 2 2 0 40 480 484 30
1091 2 2 0 40 480 30 29
1092 2 2 0 40 119 120 485
1093 2 2 0 40 119 485 481
1094 2 2 0 40 481 485 486
1095 2 2 0 40 481 486 482
1096 2 2 0 40 482 486 487
1097 2 2 0 40 482 487 483
1098 2 2 0 40 483 487 488
1099 2 2 0 40 483 488 484
1100 2 2 0 40 484 488 31
1101 2 2 0 40 484 31 30
1102 2 2 0 40 120 12 133
1103 2 2 0 40 120 133 485
1104 2 2 0 40 485 133 134
1105 2 2 0 40 485 134 486
1106 2 2 0 40 486 134 135
1107 2 2 0 40 486 135 487
1108 2 2 0 40 487 135 136
1109 2 2 0 40 487 136 488
1110 2 2 0 40 488 136 4
1111 2 2 0 40 488 4 31
1112 2 2 0 43 12 125 489
1113 2 2 0 43 12 489 133
1114 2 2 0 43 133 489 490
1115 2 2 0 43 133 490 134
1116 2 2 0 43 134 490 491
1117 2 2 0 43 134 491 135
1118 2 2 0 43 135 491 492
1119 2 2 0 43 135 492 136
1120 2 2 0 43 136 492 32
1121 2 2 0 43 136 32 4
1122 2 2 0 43 125 126 493
1123 2 2 0 43 125 493 489
1124 2 2 0 43 489 493 494
1125 2 2 0 43 489 494 490
1126 2 2 0 43 490 494 495
1127 2 2 0 43 490 495 491
1128 2 2 0 43 491 495 496
1129 2 2 0 43 491 496 492
1130 2 2 0 43 492 496 33
1131 2 2 0 43 492 33 32
1132 2 2 0 43 126 127 497
1133 2 2 0 43 126 497 493
1134 2 2 0 43 493 497 498
1135 2 2 0 43 493 498 494
1136 2 2 0 43 494 498 499
1137 2 2 0 43 494 499 495
1138 2 2 0 43 495 499 500
1139 2 2 0 43 495 500 496
1140 2 2 0 43 496 500 34
1141 2 2 0 43 496 34 33
1142 2 2 0 43 127 128 501
1143 2 2 0 43 127 501 497
1144 2 2 0 43 497 501 502
1145 2 2 0 43 497 502 498
1146 2 2 0 43 498 502 503
1147 2 2 0 43 498 503 499
1148 2 2 0 43 499 503 504
1149 2 2 0 43 499 504 500
1150 2 2 0 43 500 504 35
1151 2 2 0 43 500 35 34
1152 2 2 0 43 128 5 501
1153 2 2 0 43 501 5 502
1154 2 2 0 43 502 5 503
1155 2 2 0 43 503 5 504
1156 2 2 0 43 504 5 35
$EndElements
