$MeshFormat
2.2 0 8
$EndMeshFormat
$Nodes
502
1 7.953304703309811e-07 -5.863159008880349e-07 0.03799999998715372
2 0.01037819820311729 -0.003647981694326051 0.02699972650999774
3 0.01037706799665945 -0.003647148508572158 -0.02700027347174702
4 -7.953304703295344e-07 5.863159008874795e-07 -0.03799999998715372
5 0.003648130207664566 0.01037721650922705 0.02700008376854692
6 0.003647000001206729 0.01037804969498094 -0.02699991621319784
7 -0.01037706799665945 0.003647148508572158 0.02700027347174702
8 -0.01037819820311729 0.003647981694326052 -0.02699972650999774
9 -0.003647000001206729 -0.01037804969498094 0.02699991621319784
10 -0.003648130207664566 -0.01037721650922705 -0.02700008376854692
11 0.003207649051600565 -0.001127737613501583 0.03746153715634452
12 0.006100571050796396 -0.002144538875096134 0.03589902617796344
13 0.008396381966603755 -0.002951458508728699 0.03346541651322859
14 0.009870351830728192 -0.003469509598519644 0.03039892683207977
15 0.01037812756521368 -0.003647929620216433 0.0236247265111387
16 0.01037805692731006 -0.003647877546106814 0.02024972651227965
17 0.01037798628940645 -0.003647825471997196 0.0168747265134206
18 0.01037791565150283 -0.003647773397887577 0.01349972651456155
19 0.01037784501359922 -0.003647721323777959 0.0101247265157025
20 0.0103777743756956 -0.00364766924966834 0.006749726516843455
21 0.01037770373779199 -0.003647617175558722 0.003374726517984409
22 0.01037763309988837 -0.003647565101449104 -2.734808746386631e-07
23 0.01037756246198476 -0.003647513027339486 -0.003375273479733687
24 0.01037749182408114 -0.003647460953229868 -0.006750273478592738
25 0.01037742118617753 -0.003647408879120249 -0.01012527347745178
26 0.01037735054827391 -0.003647356805010631 -0.01350027347631083
27 0.0103772799103703 -0.003647304730901013 -0.01687527347516988
28 0.01037720927246668 -0.003647252656791394 -0.02025027347402893
29 0.01037713863456307 -0.003647200582681776 -0.02362527347288797
30 0.009869079336010026 -0.003468571518168282 -0.03039944702361558
31 0.008394981111791563 -0.002950425801593911 -0.03346585901457903
32 0.006099068328836817 -0.00214343107172083 -0.03589934767401324
33 0.003206080926906382 -0.001126581595371921 -0.03746170617682031
34 0.001127943667706737 0.003206286980873307 0.03746164755530759
35 0.002144736336143717 0.006099265789431265 0.0358992361692699
36 0.002951642584983565 0.008395165187422742 0.03346570554146627
37 0.003469676808543418 0.009869246545300612 0.03039926660515096
38 0.01099744029195767 -0.0002625921612827722 0.02699976578382966
39 0.01054023161759051 0.003148460943080665 0.02699982798347873
40 0.009051326950622994 0.006251279974704708 0.02699990702040993
41 0.006676470653666728 0.008742139388162595 0.02699999515793777
42 0.003648059569760951 0.01037726858333667 0.02362508376968787
43 0.003647988931857337 0.01037732065744629 0.02025008377082882
44 0.003647918293953722 0.0103773727315559 0.01687508377196978
45 0.003647847656050107 0.01037742480566552 0.01350008377311073
46 0.003647777018146492 0.01037747687977514 0.01012508377425168
47 0.003647706380242877 0.01037752895388476 0.006750083775392632
48 0.003647635742339262 0.01037758102799438 0.003375083776533585
49 0.003647565104435647 0.01037763310210399 8.37776745375827e-08
50 0.003647494466532033 0.01037768517621361 -0.00337491622118451
51 0.003647423828628418 0.01037773725032323 -0.006749916220043561
52 0.003647353190724803 0.01037778932443285 -0.01012491621890261
53 0.003647282552821188 0.01037784139854247 -0.01349991621776165
54 0.003647211914917573 0.01037789347265209 -0.0168749162166207
55 0.003647141277013959 0.0103779455467617 -0.02024991621547975
56 0.003647070639110343 0.01037799762087132 -0.0236249162143388
57 0.01099631008549984 -0.0002617589755288791 -0.02700023419791511
58 0.01053910141113267 0.003149294128834559 -0.02700017199826604
59 0.009050196744165155 0.006252113160458601 -0.02700009296133483
60 0.006675340447208889 0.008742972573916487 -0.027000004823807
61 0.003468404313825251 0.009870184625651974 -0.03039910725054439
62 0.002950241730171372 0.008396197894557532 -0.03346556998634136
63 0.002143233614184139 0.006100373592806568 -0.03589913768270678
64 0.001126375543012554 0.00320744299900297 -0.03746159577785723
65 -0.00320608092690638 0.001126581595371921 0.03746170617682031
66 -0.006099068328836815 0.00214343107172083 0.03589934767401324
67 -0.008394981111791561 0.002950425801593911 0.03346585901457903
68 -0.009869079336010026 0.003468571518168283 0.03039944702361558
69 0.0002627406751597806 0.0109964585970361 0.02700016417841357
70 -0.003148312429010217 0.01053924992152167 0.02700022851645973
71 -0.006251131460804812 0.009050345253403275 0.02700027048482917
72 -0.008741990874780545 0.006675488955405156 0.02700028597536547
73 -0.01037713863456307 0.003647200582681776 0.02362527347288797
74 -0.01037720927246668 0.003647252656791395 0.02025027347402893
75 -0.01037727991037029 0.003647304730901013 0.01687527347516988
76 -0.01037735054827391 0.003647356805010632 0.01350027347631083
77 -0.01037742118617752 0.00364740887912025 0.01012527347745178
78 -0.01037749182408114 0.003647460953229869 0.006750273478592733
79 -0.01037756246198475 0.003647513027339487 0.003375273479733687
80 -0.01037763309988837 0.003647565101449105 2.734808746392955e-07
81 -0.01037770373779198 0.003647617175558723 -0.003374726517984409
82 -0.0103777743756956 0.003647669249668341 -0.00674972651684346
83 -0.01037784501359921 0.00364772132377796 -0.0101247265157025
84 -0.01037791565150283 0.003647773397887578 -0.01349972651456155
85 -0.01037798628940644 0.003647825471997196 -0.0168747265134206
86 -0.01037805692731006 0.003647877546106815 -0.02024972651227965
87 -0.01037812756521367 0.003647929620216434 -0.0236247265111387
88 0.0002616104687019429 0.01099729178278999 -0.02699983580333119
89 -0.003149442635468055 0.01054008310727557 -0.02699977146528503
90 -0.006252261667262649 0.009051178439157167 -0.0269997294969156
91 -0.008743121081238384 0.006676322141159049 -0.02699971400637929
92 -0.009870351830728191 0.003469509598519645 -0.03039892683207977
93 -0.008396381966603753 0.002951458508728699 -0.03346541651322859
94 -0.006100571050796392 0.002144538875096134 -0.03589902617796344
95 -0.003207649051600565 0.001127737613501584 -0.03746153715634452
96 -0.001126375543012552 -0.003207442999002968 0.03746159577785723
97 -0.002143233614184138 -0.006100373592806569 0.03589913768270678
98 -0.002950241730171372 -0.008396197894557532 0.03346556998634136
99 -0.003468404313825251 -0.009870184625651974 0.03039910725054439
100 -0.01099631008549983 0.000261758975528879 0.02700023419791511
101 -0.01053910141113266 -0.00314929412883456 0.02700017199826604
102 -0.009050196744165153 -0.006252113160458601 0.02700009296133483
103 -0.006675340447208887 -0.008742972573916487 0.027000004823807
104 -0.003647070639110343 -0.01037799762087132 0.0236249162143388
105 -0.003647141277013959 -0.0103779455467617 0.02024991621547975
106 -0.003647211914917573 -0.01037789347265209 0.0168749162166207
107 -0.003647282552821188 -0.01037784139854247 0.01349991621776165
108 -0.003647353190724803 -0.01037778932443285 0.01012491621890261
109 -0.003647423828628418 -0.01037773725032323 0.006749916220043556
110 -0.003647494466532033 -0.01037768517621361 0.00337491622118451
111 -0.003647565104435647 -0.01037763310210399 -8.377767453695019e-08
112 -0.003647635742339262 -0.01037758102799438 -0.003375083776533585
113 -0.003647706380242877 -0.01037752895388476 -0.006750083775392636
114 -0.003647777018146492 -0.01037747687977514 -0.01012508377425168
115 -0.003647847656050107 -0.01037742480566552 -0.01350008377311073
116 -0.003647918293953722 -0.0103773727315559 -0.01687508377196978
117 -0.003647988931857337 -0.01037732065744629 -0.02025008377082882
118 -0.003648059569760951 -0.01037726858333667 -0.02362508376968787
119 -0.01099744029195767 0.0002625921612827722 -0.02699976578382966
120 -0.0105402316175905 -0.003148460943080667 -0.02699982798347873
121 -0.009051326950622992 -0.006251279974704709 -0.02699990702040993
122 -0.006676470653666726 -0.008742139388162595 -0.02699999515793777
123 -0.003469676808543418 -0.009869246545300612 -0.03039926660515096
124 -0.002951642584983565 -0.008395165187422742 -0.03346570554146627
125 -0.002144736336143716 -0.006099265789431265 -0.0358992361692699
126 -0.001127943667706736 -0.003206286980873308 -0.03746164755530759
127 -0.0002616104687019422 -0.01099729178278999 0.02699983580333119
128 0.003149442635468057 -0.01054008310727557 0.02699977146528503
129 0.006252261667262648 -0.009051178439157171 0.0269997294969156
130 0.008743121081238384 -0.006676322141159049 0.02699971400637929
131 -0.0002627406751597799 -0.0109964585970361 -0.02700016417841357
132 0.003148312429010219 -0.01053924992152167 -0.02700022851645973
133 0.006251131460804811 -0.009050345253403277 -0.02700027048482917
134 0.008741990874780545 -0.006675488955405156 -0.02700028597536547
135 0.003399005380684484 -8.159471521214276e-05 0.037461549292626
136 0.003257720130329388 0.0009724786627515803 0.03746156851337461
137 0.002797623285232255 0.001931302473993427 0.03746159293712954
138 0.002063752330274412 0.002701020363350727 0.03746162017312349
139 0.006464552418215557 -0.0001546568343079927 0.03589904926254264
140 0.006195811902202345 0.001850309875223295 0.03589908582257906
141 0.005320655696889405 0.003674101142544319 0.03589913227932161
142 0.003924750189224598 0.005138191571308745 0.03589918408526065
143 0.008897359340107868 -0.0002126208439176176 0.03346544828642604
144 0.008527469752569189 0.002546979086227824 0.03346549860699919
145 0.007322920573988297 0.005057212413281693 0.03346556254921972
146 0.005401621470552321 0.007072360009367935 0.03346563385397758
147 0.01045928605448406 -0.0002498128229214273 0.03039896418371352
148 0.0100244547654205 0.002994291459412234 0.03039902333909509
149 0.008608422279758778 0.005945247718322895 0.03039909850768354
150 0.006349799723273943 0.008314195794667145 0.03039918233145372
151 0.01099736965405406 -0.0002625400871731539 0.02362476578497061
152 0.01054016097968689 0.003148513017190284 0.02362482798461968
153 0.009051256312719377 0.006251332048814326 0.02362490702155089
154 0.006676400015763112 0.008742191462272213 0.02362499515907872
155 0.01099729901615044 -0.0002624880130635356 0.02024976578611156
156 0.01054009034178328 0.003148565091299902 0.02024982798576063
157 0.009051185674815762 0.006251384122923945 0.02024990702269184
158 0.006676329377859497 0.008742243536381832 0.02024999516021967
159 0.01099722837824683 -0.0002624359389539173 0.01687476578725251
160 0.01054001970387966 0.003148617165409521 0.01687482798690158
161 0.009051115036912149 0.006251436197033563 0.01687490702383279
162 0.006676258739955882 0.00874229561049145 0.01687499516136063
163 0.01099715774034321 -0.0002623838648442989 0.01349976578839346
164 0.01053994906597605 0.003148669239519139 0.01349982798804254
165 0.009051044399008534 0.006251488271143181 0.01349990702497374
166 0.006676188102052268 0.008742347684601068 0.01349999516250158
167 0.0109970871024396 -0.0002623317907346806 0.01012476578953442
168 0.01053987842807243 0.003148721313628757 0.01012482798918349
169 0.009050973761104919 0.006251540345252799 0.0101249070261147
170 0.006676117464148653 0.008742399758710686 0.01012499516364253
171 0.01099701646453598 -0.0002622797166250623 0.006749765790675368
172 0.01053980779016882 0.003148773387738375 0.00674982799032444
173 0.009050903123201302 0.006251592419362418 0.006749907027255647
174 0.006676046826245037 0.008742451832820306 0.006749995164783484
175 0.01099694582663237 -0.000262227642515444 0.003374765791816321
176 0.0105397371522652 0.003148825461847994 0.003374827991465393
177 0.009050832485297689 0.006251644493472036 0.003374907028396601
178 0.006675976188341422 0.008742503906929924 0.003374995165924437
179 0.01099687518872875 -0.0002621755684058257 -2.342070427259544e-07
180 0.01053966651436159 0.003148877535957612 -1.720073936547787e-07
181 0.009050761847394074 0.006251696567581655 -9.297046244666052e-08
182 0.006675905550437808 0.008742555981039542 -4.8329346109311e-09
183 0.01099680455082514 -0.0002621234942962073 -0.003375234205901774
184 0.01053959587645797 0.00314892961006723 -0.003375172006252703
185 0.009050691209490459 0.006251748641691273 -0.003375092969321495
186 0.006675834912534193 0.00874260805514916 -0.003375004831793659
187 0.01099673391292152 -0.000262071420186589 -0.006750234204760825
188 0.01053952523855436 0.003148981684176849 -0.006750172005111753
189 0.009050620571586844 0.006251800715800891 -0.006750092968180546
190 0.006675764274630579 0.008742660129258778 -0.006750004830652709
191 0.01099666327501791 -0.0002620193460769707 -0.01012523420361987
192 0.01053945460065074 0.003149033758286467 -0.0101251720039708
193 0.009050549933683229 0.00625185278991051 -0.01012509296703959
194 0.006675693636726963 0.008742712203368396 -0.01012500482951175
195 0.01099659263711429 -0.0002619672719673524 -0.01350023420247892
196 0.01053938396274713 0.003149085832396085 -0.01350017200282985
197 0.009050479295779615 0.006251904864020128 -0.01350009296589864
198 0.006675622998823349 0.008742764277478015 -0.0135000048283708
199 0.01099652199921068 -0.000261915197857734 -0.01687523420133797
200 0.01053931332484351 0.003149137906505704 -0.0168751720016889
201 0.009050408657876 0.006251956938129746 -0.01687509296475769
202 0.006675552360919734 0.008742816351587633 -0.01687500482722985
203 0.01099645136130706 -0.0002618631237481157 -0.02025023420019701
204 0.0105392426869399 0.003149189980615322 -0.02025017200054794
205 0.009050338019972385 0.006252009012239364 -0.02025009296361674
206 0.00667548172301612 0.008742868425697251 -0.0202500048260889
207 0.01099638072340345 -0.0002618110496384974 -0.02362523419905606
208 0.01053917204903628 0.00314924205472494 -0.02362517199940699
209 0.00905026738206877 0.006252061086348983 -0.02362509296247578
210 0.006675411085112505 0.008742920499806869 -0.02362500482494794
211 0.0104580135597659 -0.0002488747425700651 -0.03039940967198182
212 0.01002318227070233 0.002995229539763596 -0.03039935051660026
213 0.008607149785040614 0.005946185798674257 -0.03039927534801181
214 0.006348527228555776 0.008315133875018504 -0.03039919152424163
215 0.008895958485295676 -0.0002115881367828302 -0.03346582724138158
216 0.008526068897756995 0.002548011793362611 -0.03346577692080844
217 0.007321519719176105 0.005058245120416481 -0.03346571297858791
218 0.005400220615740127 0.007073392716502724 -0.03346564167383004
219 0.00646304969625598 -0.0001535490309326892 -0.03589932458943404
220 0.006194309180242766 0.001851417678598599 -0.03589928802939762
221 0.005319152974929828 0.003675208945919623 -0.03589924157265506
222 0.00392324746726502 0.005139299374684048 -0.03589918976671603
223 0.0033974372559903 -8.043869708248045e-05 -0.03746169404053882
224 0.003256152005635205 0.0009736346808812426 -0.03746167481979021
225 0.002796055160538072 0.001932458492123089 -0.03746165039603528
226 0.002062184205580228 0.00270217638148039 -0.03746162316004134
227 8.180076958369997e-05 0.003397643309638527 0.0374616724033229
228 -0.0009722726083202474 0.003256358058928908 0.03746169228487255
229 -0.001931096419614797 0.002796261213476132 0.03746170525381193
230 -0.002700814309132121 0.002062390258196339 0.03746171004065091
231 0.000154854295672094 0.006463247156244226 0.03589928343300366
232 -0.001850112413745493 0.00619450663955667 0.03589932124995835
233 -0.003673903681166765 0.005319350433567259 0.03589934591834697
234 -0.005137994110235573 0.003923444925290065 0.03589935502345577
235 0.0002128049206081356 0.008896142560092487 0.0334657705944149
236 -0.002546795009380811 0.008526252971625655 0.03346582264498763
237 -0.005057028336572659 0.007321703792113681 0.03346585659811172
238 -0.007072175933077848 0.005400404687834828 0.03346586913021885
239 0.0002499800334573379 0.01045818076807562 0.03039934307947861
240 -0.00299412424869235 0.01002334947792095 0.03039940426859666
241 -0.005945080507765215 0.008607316991164678 0.03039944418288789
242 -0.008314028584601967 0.006348694433688981 0.03039945891526339
243 0.0002626700372561658 0.01099651067114572 0.02362516417955452
244 -0.003148383066913832 0.01053930199563129 0.02362522851760068
245 -0.006251202098708426 0.009050397327512893 0.02362527048597012
246 -0.008742061512684161 0.006675541029514774 0.02362528597650642
247 0.0002625993993525509 0.01099656274525533 0.02025016418069547
248 -0.003148453704817447 0.01053935406974091 0.02025022851874164
249 -0.006251272736612042 0.009050449401622512 0.02025027048711107
250 -0.008742132150587776 0.006675593103624393 0.02025028597764737
251 0.0002625287614489361 0.01099661481936495 0.01687516418183643
252 -0.003148524342721062 0.01053940614385053 0.01687522851988259
253 -0.006251343374515656 0.00905050147573213 0.01687527048825202
254 -0.00874220278849139 0.006675645177734011 0.01687528597878832
255 0.0002624581235453212 0.01099666689347457 0.01350016418297738
256 -0.003148594980624677 0.01053945821796015 0.01350022852102354
257 -0.006251414012419271 0.009050553549841748 0.01350027048939297
258 -0.008742273426395004 0.00667569725184363 0.01350028597992928
259 0.0002623874856417064 0.01099671896758419 0.01012516418411833
260 -0.003148665618528292 0.01053951029206976 0.01012522852216449
261 -0.006251484650322886 0.009050605623951366 0.01012527049053393
262 -0.008742344064298619 0.006675749325953248 0.01012528598107023
263 0.0002623168477380915 0.01099677104169381 0.006750164185259282
264 -0.003148736256431906 0.01053956236617938 0.006750228523305441
265 -0.006251555288226501 0.009050657698060984 0.006750270491674878
266 -0.008742414702202236 0.006675801400062866 0.006750285982211183
267 0.0002622462098344767 0.01099682311580343 0.003375164186400237
268 -0.003148806894335521 0.010539614440289 0.003375228524446395
269 -0.006251625926130116 0.009050709772170604 0.003375270492815832
270 -0.008742485340105849 0.006675853474172484 0.003375285983352136
271 0.0002621755719308618 0.01099687518991305 1.641875411890072e-07
272 -0.003148877532239136 0.01053966651439862 2.285255873470167e-07
273 -0.00625169656403373 0.009050761846280222 2.704939567841389e-07
274 -0.008742555978009464 0.006675905548282102 2.859844930890441e-07
275 0.0002621049340272469 0.01099692726402266 -0.003374835811317859
276 -0.003148948170142751 0.01053971858850824 -0.003374771473271701
277 -0.006251767201937345 0.00905081392038984 -0.003374729504902264
278 -0.008742626615913079 0.00667595762239172 -0.003374714014365959
279 0.0002620342961236321 0.01099697933813228 -0.00674983581017691
280 -0.003149018808046366 0.01053977066261786 -0.006749771472130752
281 -0.00625183783984096 0.009050865994499458 -0.006749729503761314
282 -0.008742697253816694 0.006676009696501338 -0.006749714013225009
283 0.0002619636582200172 0.0109970314122419 -0.01012483580903595
284 -0.003149089445949981 0.01053982273672747 -0.0101247714709898
285 -0.006251908477744574 0.009050918068609077 -0.01012472950262036
286 -0.008742767891720309 0.006676061770610957 -0.01012471401208405
287 0.0002618930203164023 0.01099708348635152 -0.013499835807895
288 -0.003149160083853596 0.01053987481083709 -0.01349977146984884
289 -0.00625197911564819 0.009050970142718695 -0.01349972950147941
290 -0.008742838529623924 0.006676113844720576 -0.0134997140109431
291 0.0002618223824127875 0.01099713556046114 -0.01687483580675405
292 -0.00314923072175721 0.01053992688494671 -0.01687477146870789
293 -0.006252049753551804 0.009051022216828313 -0.01687472950033846
294 -0.008742909167527539 0.006676165918830195 -0.01687471400980215
295 0.0002617517445091726 0.01099718763457076 -0.0202498358056131
296 -0.003149301359660825 0.01053997895905633 -0.02024977146756694
297 -0.006252120391455419 0.009051074290937931 -0.0202497294991975
298 -0.008742979805431154 0.006676217992939813 -0.0202497140086612
299 0.0002616811066055578 0.01099723970868037 -0.02362483580447215
300 -0.00314937199756444 0.01054003103316595 -0.02362477146642599
301 -0.006252191029359034 0.009051126365047549 -0.02362472949805655
302 -0.008743050443334769 0.006676270067049431 -0.02362471400752025
303 0.0002487075387391718 0.01045911884842698 -0.03039903077621673
304 -0.002995396743410517 0.01002428755827231 -0.03039896958709869
305 -0.005946353002483382 0.00860825507151604 -0.03039892967280746
306 -0.008315301079320131 0.006349632514040342 -0.03039891494043196
307 0.0002114040657959426 0.008897175267227275 -0.03346550493339272
308 -0.002548195864193004 0.008527285678760444 -0.03346545288282
309 -0.005058429191384852 0.00732273649924847 -0.0334654189296959
310 -0.00707357678789004 0.005401437394969615 -0.03346540639758878
311 0.0001533515737125166 0.006464354959619528 -0.03589909041897302
312 -0.001851615135705071 0.006195614442931974 -0.03589905260201832
313 -0.003675406403126343 0.005320458236942562 -0.03589902793362971
314 -0.005139496832195151 0.003924552728665368 -0.03589901882852092
315 8.023264488951631e-05 0.003398799327768189 -0.03746157092984192
316 -0.0009738407330144309 0.00325751407705857 -0.03746155104829228
317 -0.001932664544308981 0.002797417231605794 -0.03746153807935289
318 -0.002702382433826305 0.002063546276326001 -0.03746153329251391
319 -0.003397437255990299 8.04386970824801e-05 0.03746169404053882
320 -0.003256152005635203 -0.0009736346808812431 0.03746167481979021
321 -0.002796055160538071 -0.001932458492123088 0.03746165039603528
322 -0.002062184205580228 -0.00270217638148039 0.03746162316004134
323 -0.006463049696255979 0.0001535490309326885 0.03589932458943404
324 -0.006194309180242766 -0.001851417678598599 0.03589928802939762
325 -0.005319152974929826 -0.003675208945919622 0.03589924157265506
326 -0.003923247467265019 -0.005139299374684048 0.03589918976671603
327 -0.008895958485295671 0.0002115881367828306 0.03346582724138158
328 -0.008526068897756992 -0.002548011793362611 0.03346577692080844
329 -0.007321519719176104 -0.00505824512041648 0.03346571297858791
330 -0.005400220615740127 -0.007073392716502724 0.03346564167383004
331 -0.01045801355976589 0.0002488747425700651 0.03039940967198182
332 -0.01002318227070233 -0.002995229539763596 0.03039935051660026
333 -0.008607149785040614 -0.005946185798674257 0.03039927534801181
334 -0.006348527228555776 -0.008315133875018504 0.03039919152424163
335 -0.01099638072340345 0.0002618110496384974 0.02362523419905606
336 -0.01053917204903628 -0.003149242054724941 0.02362517199940699
337 -0.00905026738206877 -0.006252061086348983 0.02362509296247578
338 -0.006675411085112503 -0.008742920499806869 0.02362500482494794
339 -0.01099645136130706 0.0002618631237481157 0.02025023420019701
340 -0.0105392426869399 -0.003149189980615323 0.02025017200054794
341 -0.009050338019972383 -0.006252009012239365 0.02025009296361674
342 -0.006675481723016118 -0.008742868425697251 0.0202500048260889
343 -0.01099652199921068 0.000261915197857734 0.01687523420133797
344 -0.01053931332484351 -0.003149137906505704 0.0168751720016889
345 -0.009050408657875998 -0.006251956938129746 0.01687509296475769
346 -0.006675552360919733 -0.008742816351587633 0.01687500482722985
347 -0.01099659263711429 0.0002619672719673523 0.01350023420247892
348 -0.01053938396274712 -0.003149085832396086 0.01350017200282985
349 -0.009050479295779613 -0.006251904864020128 0.01350009296589864
350 -0.006675622998823347 -0.008742764277478015 0.0135000048283708
351 -0.01099666327501791 0.0002620193460769706 0.01012523420361987
352 -0.01053945460065074 -0.003149033758286468 0.0101251720039708
353 -0.009050549933683228 -0.00625185278991051 0.01012509296703959
354 -0.006675693636726962 -0.008742712203368396 0.01012500482951175
355 -0.01099673391292152 0.000262071420186589 0.006750234204760821
356 -0.01053952523855436 -0.00314898168417685 0.006750172005111749
357 -0.009050620571586843 -0.006251800715800892 0.006750092968180542
358 -0.006675764274630578 -0.008742660129258778 0.006750004830652705
359 -0.01099680455082514 0.0002621234942962073 0.003375234205901774
360 -0.01053959587645797 -0.003148929610067231 0.003375172006252703
361 -0.009050691209490458 -0.006251748641691274 0.003375092969321495
362 -0.006675834912534193 -0.00874260805514916 0.003375004831793659
363 -0.01099687518872875 0.0002621755684058256 2.342070427265868e-07
364 -0.01053966651436158 -0.003148877535957613 1.720073936554112e-07
365 -0.009050761847394072 -0.006251696567581655 9.297046244729301e-08
366 -0.006675905550437807 -0.008742555981039542 4.832934611563582e-09
367 -0.01099694582663237 0.000262227642515444 -0.003374765791816321
368 -0.0105397371522652 -0.003148825461847995 -0.003374827991465393
369 -0.009050832485297687 -0.006251644493472036 -0.003374907028396601
370 -0.006675976188341422 -0.008742503906929924 -0.003374995165924437
371 -0.01099701646453598 0.0002622797166250622 -0.006749765790675372
372 -0.01053980779016881 -0.003148773387738376 -0.006749827990324444
373 -0.009050903123201302 -0.006251592419362418 -0.006749907027255651
374 -0.006676046826245036 -0.008742451832820306 -0.006749995164783488
375 -0.0109970871024396 0.0002623317907346806 -0.01012476578953442
376 -0.01053987842807243 -0.003148721313628758 -0.01012482798918349
377 -0.009050973761104917 -0.0062515403452528 -0.0101249070261147
378 -0.006676117464148652 -0.008742399758710686 -0.01012499516364253
379 -0.01099715774034321 0.0002623838648442989 -0.01349976578839346
380 -0.01053994906597604 -0.00314866923951914 -0.01349982798804254
381 -0.009051044399008532 -0.006251488271143182 -0.01349990702497374
382 -0.006676188102052266 -0.008742347684601068 -0.01349999516250158
383 -0.01099722837824683 0.0002624359389539172 -0.01687476578725251
384 -0.01054001970387966 -0.003148617165409521 -0.01687482798690158
385 -0.009051115036912147 -0.006251436197033564 -0.01687490702383279
386 -0.006676258739955881 -0.00874229561049145 -0.01687499516136063
387 -0.01099729901615044 0.0002624880130635356 -0.02024976578611156
388 -0.01054009034178327 -0.003148565091299903 -0.02024982798576063
389 -0.009051185674815762 -0.006251384122923945 -0.02024990702269184
390 -0.006676329377859495 -0.008742243536381832 -0.02024999516021967
391 -0.01099736965405406 0.0002625400871731539 -0.02362476578497061
392 -0.01054016097968689 -0.003148513017190285 -0.02362482798461968
393 -0.009051256312719375 -0.006251332048814327 -0.02362490702155089
394 -0.00667640001576311 -0.008742191462272213 -0.02362499515907872
395 -0.01045928605448406 0.0002498128229214273 -0.03039896418371352
396 -0.01002445476542049 -0.002994291459412234 -0.03039902333909509
397 -0.008608422279758778 -0.005945247718322895 -0.03039909850768354
398 -0.006349799723273943 -0.008314195794667145 -0.03039918233145372
399 -0.008897359340107863 0.0002126208439176179 -0.03346544828642604
400 -0.008527469752569183 -0.002546979086227824 -0.03346549860699919
401 -0.007322920573988295 -0.005057212413281692 -0.03346556254921972
402 -0.005401621470552321 -0.007072360009367935 -0.03346563385397758
403 -0.006464552418215555 0.0001546568343079919 -0.03589904926254264
404 -0.006195811902202344 -0.001850309875223295 -0.03589908582257906
405 -0.005320655696889404 -0.003674101142544318 -0.03589913227932161
406 -0.003924750189224597 -0.005138191571308745 -0.03589918408526065
407 -0.003399005380684483 8.15947152121424e-05 -0.037461549292626
408 -0.003257720130329387 -0.0009724786627515804 -0.03746156851337461
409 -0.002797623285232255 -0.001931302473993427 -0.03746159293712954
410 -0.002063752330274412 -0.002701020363350727 -0.03746162017312349
411 -8.023264488951596e-05 -0.003398799327768189 0.03746157092984192
412 0.0009738407330144323 -0.00325751407705857 0.03746155104829228
413 0.001932664544308981 -0.002797417231605796 0.03746153807935289
414 0.002702382433826306 -0.002063546276326003 0.03746153329251391
415 -0.0001533515737125159 -0.006464354959619528 0.03589909041897302
416 0.001851615135705071 -0.006195614442931974 0.03589905260201832
417 0.003675406403126343 -0.005320458236942562 0.03589902793362971
418 0.005139496832195152 -0.003924552728665371 0.03589901882852092
419 -0.0002114040657959423 -0.008897175267227275 0.03346550493339272
420 0.002548195864193005 -0.008527285678760444 0.03346545288282
421 0.005058429191384852 -0.007322736499248471 0.0334654189296959
422 0.007073576787890043 -0.005401437394969618 0.03346540639758878
423 -0.0002487075387391715 -0.01045911884842699 0.03039903077621673
424 0.002995396743410517 -0.01002428755827231 0.03039896958709869
425 0.005946353002483383 -0.00860825507151604 0.03039892967280746
426 0.008315301079320133 -0.006349632514040346 0.03039891494043196
427 -0.0002616811066055571 -0.01099723970868037 0.02362483580447215
428 0.003149371997564442 -0.01054003103316595 0.02362477146642599
429 0.006252191029359034 -0.009051126365047553 0.02362472949805655
430 0.008743050443334769 -0.006676270067049431 0.02362471400752025
431 -0.0002617517445091719 -0.01099718763457076 0.0202498358056131
432 0.003149301359660827 -0.01053997895905633 0.02024977146756694
433 0.006252120391455418 -0.009051074290937934 0.0202497294991975
434 0.008742979805431154 -0.006676217992939813 0.0202497140086612
435 -0.0002618223824127868 -0.01099713556046114 0.01687483580675405
436 0.003149230721757212 -0.01053992688494671 0.01687477146870789
437 0.006252049753551804 -0.009051022216828316 0.01687472950033846
438 0.008742909167527539 -0.006676165918830195 0.01687471400980215
439 -0.0002618930203164016 -0.01099708348635152 0.013499835807895
440 0.003149160083853597 -0.01053987481083709 0.01349977146984884
441 0.006251979115648189 -0.009050970142718696 0.01349972950147941
442 0.008742838529623924 -0.006676113844720576 0.0134997140109431
443 -0.0002619636582200165 -0.0109970314122419 0.01012483580903595
444 0.003149089445949983 -0.01053982273672747 0.0101247714709898
445 0.006251908477744574 -0.009050918068609078 0.01012472950262036
446 0.008742767891720309 -0.006676061770610957 0.01012471401208405
447 -0.0002620342961236314 -0.01099697933813228 0.006749835810176906
448 0.003149018808046368 -0.01053977066261786 0.006749771472130748
449 0.006251837839840959 -0.00905086599449946 0.00674972950376131
450 0.008742697253816694 -0.006676009696501338 0.006749714013225005
451 -0.0002621049340272462 -0.01099692726402266 0.003374835811317859
452 0.003148948170142753 -0.01053971858850824 0.003374771473271701
453 0.006251767201937345 -0.009050813920389842 0.003374729504902264
454 0.008742626615913079 -0.00667595762239172 0.003374714014365959
455 -0.0002621755719308611 -0.01099687518991305 -1.641875411883747e-07
456 0.003148877532239138 -0.01053966651439862 -2.285255873463843e-07
457 0.00625169656403373 -0.009050761846280224 -2.704939567835065e-07
458 0.008742555978009464 -0.006675905548282102 -2.859844930884117e-07
459 -0.000262246209834476 -0.01099682311580343 -0.003375164186400237
460 0.003148806894335523 -0.010539614440289 -0.003375228524446395
461 0.006251625926130116 -0.009050709772170606 -0.003375270492815832
462 0.008742485340105849 -0.006675853474172484 -0.003375285983352136
463 -0.0002623168477380908 -0.01099677104169381 -0.006750164185259287
464 0.003148736256431908 -0.01053956236617938 -0.006750228523305445
465 0.0062515552882265 -0.009050657698060988 -0.006750270491674882
466 0.008742414702202236 -0.006675801400062866 -0.006750285982211187
467 -0.0002623874856417057 -0.01099671896758419 -0.01012516418411833
468 0.003148665618528294 -0.01053951029206977 -0.01012522852216449
469 0.006251484650322886 -0.009050605623951369 -0.01012527049053393
470 0.008742344064298619 -0.006675749325953248 -0.01012528598107023
471 -0.0002624581235453205 -0.01099666689347457 -0.01350016418297738
472 0.003148594980624679 -0.01053945821796015 -0.01350022852102354
473 0.00625141401241927 -0.009050553549841751 -0.01350027048939297
474 0.008742273426395004 -0.00667569725184363 -0.01350028597992928
475 -0.0002625287614489354 -0.01099661481936495 -0.01687516418183643
476 0.003148524342721064 -0.01053940614385053 -0.01687522851988259
477 0.006251343374515656 -0.009050501475732131 -0.01687527048825202
478 0.00874220278849139 -0.006675645177734011 -0.01687528597878832
479 -0.0002625993993525502 -0.01099656274525533 -0.02025016418069547
480 0.003148453704817449 -0.01053935406974091 -0.02025022851874164
481 0.006251272736612041 -0.009050449401622513 -0.02025027048711107
482 0.008742132150587776 -0.006675593103624393 -0.02025028597764737
483 -0.0002626700372561651 -0.01099651067114572 -0.02362516417955452
484 0.003148383066913834 -0.01053930199563129 -0.02362522851760068
485 0.006251202098708426 -0.009050397327512895 -0.02362527048597012
486 0.008742061512684161 -0.006675541029514774 -0.02362528597650642
487 -0.0002499800334573375 -0.01045818076807562 -0.03039934307947861
488 0.002994124248692351 -0.01002334947792095 -0.03039940426859666
489 0.005945080507765216 -0.00860731699116468 -0.03039944418288789
490 0.008314028584601969 -0.006348694433688983 -0.03039945891526339
491 -0.0002128049206081352 -0.008896142560092487 -0.0334657705944149
492 0.002546795009380812 -0.008526252971625655 -0.03346582264498763
493 0.005057028336572659 -0.007321703792113683 -0.03346585659811172
494 0.007072175933077851 -0.005400404687834831 -0.03346586913021885
495 -0.0001548542956720933 -0.006463247156244226 -0.03589928343300366
496 0.001850112413745493 -0.00619450663955667 -0.03589932124995835
497 0.003673903681166765 -0.005319350433567259 -0.03589934591834697
498 0.005137994110235574 -0.003923444925290067 -0.03589935502345577
499 -8.180076958369962e-05 -0.003397643309638527 -0.0374616724033229
500 0.0009722726083202485 -0.003256358058928909 -0.03746169228487255
501 0.001931096419614798 -0.002796261213476133 -0.03746170525381193
502 0.002700814309132122 -0.00206239025819634 -0.03746171004065091
$EndNodes
$Elements
1000
1 2 2 0 1 1 11 135
2 2 2 0 1 1 138 34
3 2 2 0 1 1 135 136
4 2 2 0 1 1 136 137
5 2 2 0 1 1 137 138
6 2 2 0 1 14 2 38
7 2 2 0 1 150 5 37
8 2 2 0 1 150 41 5
9 2 2 0 1 11 12 139
10 2 2 0 1 11 139 135
11 2 2 0 1 12 13 143
12 2 2 0 1 12 143 139
13 2 2 0 1 13 14 147
14 2 2 0 1 13 147 143
15 2 2 0 1 14 38 147
16 2 2 0 1 138 35 34
17 2 2 0 1 142 36 35
18 2 2 0 1 138 142 35
19 2 2 0 1 146 37 36
20 2 2 0 1 142 146 36
21 2 2 0 1 146 150 37
22 2 2 0 1 147 38 39
23 2 2 0 1 148 39 40
24 2 2 0 1 147 39 148
25 2 2 0 1 149 40 41
26 2 2 0 1 148 40 149
27 2 2 0 1 149 41 150
28 2 2 0 1 135 140 136
29 2 2 0 1 135 139 140
30 2 2 0 1 136 141 137
31 2 2 0 1 136 140 141
32 2 2 0 1 137 142 138
33 2 2 0 1 137 141 142
34 2 2 0 1 139 144 140
35 2 2 0 1 139 143 144
36 2 2 0 1 140 145 141
37 2 2 0 1 140 144 145
38 2 2 0 1 141 146 142
39 2 2 0 1 141 145 146
40 2 2 0 1 143 148 144
41 2 2 0 1 143 147 148
42 2 2 0 1 144 149 145
43 2 2 0 1 144 148 149
44 2 2 0 1 145 150 146
45 2 2 0 1 145 149 150
46 2 2 0 1 2 15 151
47 2 2 0 1 2 151 38
48 2 2 0 1 29 3 57
49 2 2 0 1 41 42 5
50 2 2 0 1 210 6 56
51 2 2 0 1 210 60 6
52 2 2 0 1 15 16 155
53 2 2 0 1 15 155 151
54 2 2 0 1 16 17 159
55 2 2 0 1 16 159 155
56 2 2 0 1 17 18 163
57 2 2 0 1 17 163 159
58 2 2 0 1 18 19 167
59 2 2 0 1 18 167 163
60 2 2 0 1 19 20 171
61 2 2 0 1 19 171 167
62 2 2 0 1 20 21 175
63 2 2 0 1 20 175 171
64 2 2 0 1 21 22 179
65 2 2 0 1 21 179 175
66 2 2 0 1 22 23 183
67 2 2 0 1 22 183 179
68 2 2 0 1 23 24 187
69 2 2 0 1 23 187 183
70 2 2 0 1 24 25 191
71 2 2 0 1 24 191 187
72 2 2 0 1 25 26 195
73 2 2 0 1 25 195 191
74 2 2 0 1 26 27 199
75 2 2 0 1 26 199 195
76 2 2 0 1 27 28 203
77 2 2 0 1 27 203 199
78 2 2 0 1 28 29 207
79 2 2 0 1 28 207 203
80 2 2 0 1 29 57 207
81 2 2 0 1 38 152 39
82 2 2 0 1 38 151 152
83 2 2 0 1 39 153 40
84 2 2 0 1 39 152 153
85 2 2 0 1 40 154 41
86 2 2 0 1 40 153 154
87 2 2 0 1 41 154 42
88 2 2 0 1 154 43 42
89 2 2 0 1 158 44 43
90 2 2 0 1 154 158 43
91 2 2 0 1 162 45 44
92 2 2 0 1 158 162 44
93 2 2 0 1 166 46 45
94 2 2 0 1 162 166 45
95 2 2 0 1 170 47 46
96 2 2 0 1 166 170 46
97 2 2 0 1 174 48 47
98 2 2 0 1 170 174 47
99 2 2 0 1 178 49 48
100 2 2 0 1 174 178 48
101 2 2 0 1 182 50 49
102 2 2 0 1 178 182 49
103 2 2 0 1 186 51 50
104 2 2 0 1 182 186 50
105 2 2 0 1 190 52 51
106 2 2 0 1 186 190 51
107 2 2 0 1 194 53 52
108 2 2 0 1 190 194 52
109 2 2 0 1 198 54 53
110 2 2 0 1 194 198 53
111 2 2 0 1 202 55 54
112 2 2 0 1 198 202 54
113 2 2 0 1 206 56 55
114 2 2 0 1 202 206 55
115 2 2 0 1 206 210 56
116 2 2 0 1 207 57 58
117 2 2 0 1 208 58 59
118 2 2 0 1 207 58 208
119 2 2 0 1 209 59 60
120 2 2 0 1 208 59 209
121 2 2 0 1 209 60 210
122 2 2 0 1 151 156 152
123 2 2 0 1 151 155 156
124 2 2 0 1 152 157 153
125 2 2 0 1 152 156 157
126 2 2 0 1 153 158 154
127 2 2 0 1 153 157 158
128 2 2 0 1 155 160 156
129 2 2 0 1 155 159 160
130 2 2 0 1 156 161 157
131 2 2 0 1 156 160 161
132 2 2 0 1 157 162 158
133 2 2 0 1 157 161 162
134 2 2 0 1 159 164 160
135 2 2 0 1 159 163 164
136 2 2 0 1 160 165 161
137 2 2 0 1 160 164 165
138 2 2 0 1 161 166 162
139 2 2 0 1 161 165 166
140 2 2 0 1 163 168 164
141 2 2 0 1 163 167 168
142 2 2 0 1 164 169 165
143 2 2 0 1 164 168 169
144 2 2 0 1 165 170 166
145 2 2 0 1 165 169 170
146 2 2 0 1 167 172 168
147 2 2 0 1 167 171 172
148 2 2 0 1 168 173 169
149 2 2 0 1 168 172 173
150 2 2 0 1 169 174 170
151 2 2 0 1 169 173 174
152 2 2 0 1 171 176 172
153 2 2 0 1 171 175 176
154 2 2 0 1 172 177 173
155 2 2 0 1 172 176 177
156 2 2 0 1 173 178 174
157 2 2 0 1 173 177 178
158 2 2 0 1 175 180 176
159 2 2 0 1 175 179 180
160 2 2 0 1 176 181 177
161 2 2 0 1 176 180 181
162 2 2 0 1 177 182 178
163 2 2 0 1 177 181 182
164 2 2 0 1 179 184 180
165 2 2 0 1 179 183 184
166 2 2 0 1 180 185 181
167 2 2 0 1 180 184 185
168 2 2 0 1 181 186 182
169 2 2 0 1 181 185 186
170 2 2 0 1 183 188 184
171 2 2 0 1 183 187 188
172 2 2 0 1 184 189 185
173 2 2 0 1 184 188 189
174 2 2 0 1 185 190 186
175 2 2 0 1 185 189 190
176 2 2 0 1 187 192 188
177 2 2 0 1 187 191 192
178 2 2 0 1 188 193 189
179 2 2 0 1 188 192 193
180 2 2 0 1 189 194 190
181 2 2 0 1 189 193 194
182 2 2 0 1 191 196 192
183 2 2 0 1 191 195 196
184 2 2 0 1 192 197 193
185 2 2 0 1 192 196 197
186 2 2 0 1 193 198 194
187 2 2 0 1 193 197 198
188 2 2 0 1 195 200 196
189 2 2 0 1 195 199 200
190 2 2 0 1 196 201 197
191 2 2 0 1 196 200 201
192 2 2 0 1 197 202 198
193 2 2 0 1 197 201 202
194 2 2 0 1 199 204 200
195 2 2 0 1 199 203 204
196 2 2 0 1 200 205 201
197 2 2 0 1 200 204 205
198 2 2 0 1 201 206 202
199 2 2 0 1 201 205 206
200 2 2 0 1 203 208 204
201 2 2 0 1 203 207 208
202 2 2 0 1 204 209 205
203 2 2 0 1 204 208 209
204 2 2 0 1 205 210 206
205 2 2 0 1 205 209 210
206 2 2 0 1 3 30 211
207 2 2 0 1 3 211 57
208 2 2 0 1 33 4 223
209 2 2 0 1 226 4 64
210 2 2 0 1 223 4 224
211 2 2 0 1 224 4 225
212 2 2 0 1 225 4 226
213 2 2 0 1 60 61 6
214 2 2 0 1 30 31 215
215 2 2 0 1 30 215 211
216 2 2 0 1 31 32 219
217 2 2 0 1 31 219 215
218 2 2 0 1 32 33 223
219 2 2 0 1 32 223 219
220 2 2 0 1 57 212 58
221 2 2 0 1 57 211 212
222 2 2 0 1 58 213 59
223 2 2 0 1 58 212 213
224 2 2 0 1 59 214 60
225 2 2 0 1 59 213 214
226 2 2 0 1 60 214 61
227 2 2 0 1 214 62 61
228 2 2 0 1 218 63 62
229 2 2 0 1 214 218 62
230 2 2 0 1 222 64 63
231 2 2 0 1 218 222 63
232 2 2 0 1 222 226 64
233 2 2 0 1 211 216 212
234 2 2 0 1 211 215 216
235 2 2 0 1 212 217 213
236 2 2 0 1 212 216 217
237 2 2 0 1 213 218 214
238 2 2 0 1 213 217 218
239 2 2 0 1 215 220 216
240 2 2 0 1 215 219 220
241 2 2 0 1 216 221 217
242 2 2 0 1 216 220 221
243 2 2 0 1 217 222 218
244 2 2 0 1 217 221 222
245 2 2 0 1 219 224 220
246 2 2 0 1 219 223 224
247 2 2 0 1 220 225 221
248 2 2 0 1 220 224 225
249 2 2 0 1 221 226 222
250 2 2 0 1 221 225 226
251 2 2 0 1 1 34 227
252 2 2 0 1 1 230 65
253 2 2 0 1 1 227 228
254 2 2 0 1 1 228 229
255 2 2 0 1 1 229 230
256 2 2 0 1 37 5 69
257 2 2 0 1 242 7 68
258 2 2 0 1 242 72 7
259 2 2 0 1 34 35 231
260 2 2 0 1 34 231 227
261 2 2 0 1 35 36 235
262 2 2 0 1 35 235 231
263 2 2 0 1 36 37 239
264 2 2 0 1 36 239 235
265 2 2 0 1 37 69 239
266 2 2 0 1 230 66 65
267 2 2 0 1 234 67 66
268 2 2 0 1 230 234 66
269 2 2 0 1 238 68 67
270 2 2 0 1 234 238 67
271 2 2 0 1 238 242 68
272 2 2 0 1 239 69 70
273 2 2 0 1 240 70 71
274 2 2 0 1 239 70 240
275 2 2 0 1 241 71 72
276 2 2 0 1 240 71 241
277 2 2 0 1 241 72 242
278 2 2 0 1 227 232 228
279 2 2 0 1 227 231 232
280 2 2 0 1 228 233 229
281 2 2 0 1 228 232 233
282 2 2 0 1 229 234 230
283 2 2 0 1 229 233 234
284 2 2 0 1 231 236 232
285 2 2 0 1 231 235 236
286 2 2 0 1 232 237 233
287 2 2 0 1 232 236 237
288 2 2 0 1 233 238 234
289 2 2 0 1 233 237 238
290 2 2 0 1 235 240 236
291 2 2 0 1 235 239 240
292 2 2 0 1 236 241 237
293 2 2 0 1 236 240 241
294 2 2 0 1 237 242 238
295 2 2 0 1 237 241 242
296 2 2 0 1 5 42 243
297 2 2 0 1 5 243 69
298 2 2 0 1 56 6 88
299 2 2 0 1 72 73 7
300 2 2 0 1 302 8 87
301 2 2 0 1 302 91 8
302 2 2 0 1 42 43 247
303 2 2 0 1 42 247 243
304 2 2 0 1 43 44 251
305 2 2 0 1 43 251 247
306 2 2 0 1 44 45 255
307 2 2 0 1 44 255 251
308 2 2 0 1 45 46 259
309 2 2 0 1 45 259 255
310 2 2 0 1 46 47 263
311 2 2 0 1 46 263 259
312 2 2 0 1 47 48 267
313 2 2 0 1 47 267 263
314 2 2 0 1 48 49 271
315 2 2 0 1 48 271 267
316 2 2 0 1 49 50 275
317 2 2 0 1 49 275 271
318 2 2 0 1 50 51 279
319 2 2 0 1 50 279 275
320 2 2 0 1 51 52 283
321 2 2 0 1 51 283 279
322 2 2 0 1 52 53 287
323 2 2 0 1 52 287 283
324 2 2 0 1 53 54 291
325 2 2 0 1 53 291 287
326 2 2 0 1 54 55 295
327 2 2 0 1 54 295 291
328 2 2 0 1 55 56 299
329 2 2 0 1 55 299 295
330 2 2 0 1 56 88 299
331 2 2 0 1 69 244 70
332 2 2 0 1 69 243 244
333 2 2 0 1 70 245 71
334 2 2 0 1 70 244 245
335 2 2 0 1 71 246 72
336 2 2 0 1 71 245 246
337 2 2 0 1 72 246 73
338 2 2 0 1 246 74 73
339 2 2 0 1 250 75 74
340 2 2 0 1 246 250 74
341 2 2 0 1 254 76 75
342 2 2 0 1 250 254 75
343 2 2 0 1 258 77 76
344 2 2 0 1 254 258 76
345 2 2 0 1 262 78 77
346 2 2 0 1 258 262 77
347 2 2 0 1 266 79 78
348 2 2 0 1 262 266 78
349 2 2 0 1 270 80 79
350 2 2 0 1 266 270 79
351 2 2 0 1 274 81 80
352 2 2 0 1 270 274 80
353 2 2 0 1 278 82 81
354 2 2 0 1 274 278 81
355 2 2 0 1 282 83 82
356 2 2 0 1 278 282 82
357 2 2 0 1 286 84 83
358 2 2 0 1 282 286 83
359 2 2 0 1 290 85 84
360 2 2 0 1 286 290 84
361 2 2 0 1 294 86 85
362 2 2 0 1 290 294 85
363 2 2 0 1 298 87 86
364 2 2 0 1 294 298 86
365 2 2 0 1 298 302 87
366 2 2 0 1 299 88 89
367 2 2 0 1 300 89 90
368 2 2 0 1 299 89 300
369 2 2 0 1 301 90 91
370 2 2 0 1 300 90 301
371 2 2 0 1 301 91 302
372 2 2 0 1 243 248 244
373 2 2 0 1 243 247 248
374 2 2 0 1 244 249 245
375 2 2 0 1 244 248 249
376 2 2 0 1 245 250 246
377 2 2 0 1 245 249 250
378 2 2 0 1 247 252 248
379 2 2 0 1 247 251 252
380 2 2 0 1 248 253 249
381 2 2 0 1 248 252 253
382 2 2 0 1 249 254 250
383 2 2 0 1 249 253 254
384 2 2 0 1 251 256 252
385 2 2 0 1 251 255 256
386 2 2 0 1 252 257 253
387 2 2 0 1 252 256 257
388 2 2 0 1 253 258 254
389 2 2 0 1 253 257 258
390 2 2 0 1 255 260 256
391 2 2 0 1 255 259 260
392 2 2 0 1 256 261 257
393 2 2 0 1 256 260 261
394 2 2 0 1 257 262 258
395 2 2 0 1 257 261 262
396 2 2 0 1 259 264 260
397 2 2 0 1 259 263 264
398 2 2 0 1 260 265 261
399 2 2 0 1 260 264 265
400 2 2 0 1 261 266 262
401 2 2 0 1 261 265 266
402 2 2 0 1 263 268 264
403 2 2 0 1 263 267 268
404 2 2 0 1 264 269 265
405 2 2 0 1 264 268 269
406 2 2 0 1 265 270 266
407 2 2 0 1 265 269 270
408 2 2 0 1 267 272 268
409 2 2 0 1 267 271 272
410 2 2 0 1 268 273 269
411 2 2 0 1 268 272 273
412 2 2 0 1 269 274 270
413 2 2 0 1 269 273 274
414 2 2 0 1 271 276 272
415 2 2 0 1 271 275 276
416 2 2 0 1 272 277 273
417 2 2 0 1 272 276 277
418 2 2 0 1 273 278 274
419 2 2 0 1 273 277 278
420 2 2 0 1 275 280 276
421 2 2 0 1 275 279 280
422 2 2 0 1 276 281 277
423 2 2 0 1 276 280 281
424 2 2 0 1 277 282 278
425 2 2 0 1 277 281 282
426 2 2 0 1 279 284 280
427 2 2 0 1 279 283 284
428 2 2 0 1 280 285 281
429 2 2 0 1 280 284 285
430 2 2 0 1 281 286 282
431 2 2 0 1 281 285 286
432 2 2 0 1 283 288 284
433 2 2 0 1 283 287 288
434 2 2 0 1 284 289 285
435 2 2 0 1 284 288 289
436 2 2 0 1 285 290 286
437 2 2 0 1 285 289 290
438 2 2 0 1 287 292 288
439 2 2 0 1 287 291 292
440 2 2 0 1 288 293 289
441 2 2 0 1 288 292 293
442 2 2 0 1 289 294 290
443 2 2 0 1 289 293 294
444 2 2 0 1 291 296 292
445 2 2 0 1 291 295 296
446 2 2 0 1 292 297 293
447 2 2 0 1 292 296 297
448 2 2 0 1 293 298 294
449 2 2 0 1 293 297 298
450 2 2 0 1 295 300 296
451 2 2 0 1 295 299 300
452 2 2 0 1 296 301 297
453 2 2 0 1 296 300 301
454 2 2 0 1 297 302 298
455 2 2 0 1 297 301 302
456 2 2 0 1 64 4 315
457 2 2 0 1 318 4 95
458 2 2 0 1 315 4 316
459 2 2 0 1 316 4 317
460 2 2 0 1 317 4 318
461 2 2 0 1 6 61 303
462 2 2 0 1 6 303 88
463 2 2 0 1 91 92 8
464 2 2 0 1 61 62 307
465 2 2 0 1 61 307 303
466 2 2 0 1 62 63 311
467 2 2 0 1 62 311 307
468 2 2 0 1 63 64 315
469 2 2 0 1 63 315 311
470 2 2 0 1 88 304 89
471 2 2 0 1 88 303 304
472 2 2 0 1 89 305 90
473 2 2 0 1 89 304 305
474 2 2 0 1 90 306 91
475 2 2 0 1 90 305 306
476 2 2 0 1 91 306 92
477 2 2 0 1 306 93 92
478 2 2 0 1 310 94 93
479 2 2 0 1 306 310 93
480 2 2 0 1 314 95 94
481 2 2 0 1 310 314 94
482 2 2 0 1 314 318 95
483 2 2 0 1 303 308 304
484 2 2 0 1 303 307 308
485 2 2 0 1 304 309 305
486 2 2 0 1 304 308 309
487 2 2 0 1 305 310 306
488 2 2 0 1 305 309 310
489 2 2 0 1 307 312 308
490 2 2 0 1 307 311 312
491 2 2 0 1 308 313 309
492 2 2 0 1 308 312 313
493 2 2 0 1 309 314 310
494 2 2 0 1 309 313 314
495 2 2 0 1 311 316 312
496 2 2 0 1 311 315 316
497 2 2 0 1 312 317 313
498 2 2 0 1 312 316 317
499 2 2 0 1 313 318 314
500 2 2 0 1 313 317 318
501 2 2 0 1 1 65 319
502 2 2 0 1 1 322 96
503 2 2 0 1 1 319 320
504 2 2 0 1 1 320 321
505 2 2 0 1 1 321 322
506 2 2 0 1 68 7 100
507 2 2 0 1 334 9 99
508 2 2 0 1 334 103 9
509 2 2 0 1 65 66 323
510 2 2 0 1 65 323 319
511 2 2 0 1 66 67 327
512 2 2 0 1 66 327 323
513 2 2 0 1 67 68 331
514 2 2 0 1 67 331 327
515 2 2 0 1 68 100 331
516 2 2 0 1 322 97 96
517 2 2 0 1 326 98 97
518 2 2 0 1 322 326 97
519 2 2 0 1 330 99 98
520 2 2 0 1 326 330 98
521 2 2 0 1 330 334 99
522 2 2 0 1 331 100 101
523 2 2 0 1 332 101 102
524 2 2 0 1 331 101 332
525 2 2 0 1 333 102 103
526 2 2 0 1 332 102 333
527 2 2 0 1 333 103 334
528 2 2 0 1 319 324 320
529 2 2 0 1 319 323 324
530 2 2 0 1 320 325 321
531 2 2 0 1 320 324 325
532 2 2 0 1 321 326 322
533 2 2 0 1 321 325 326
534 2 2 0 1 323 328 324
535 2 2 0 1 323 327 328
536 2 2 0 1 324 329 325
537 2 2 0 1 324 328 329
538 2 2 0 1 325 330 326
539 2 2 0 1 325 329 330
540 2 2 0 1 327 332 328
541 2 2 0 1 327 331 332
542 2 2 0 1 328 333 329
543 2 2 0 1 328 332 333
544 2 2 0 1 329 334 330
545 2 2 0 1 329 333 334
546 2 2 0 1 7 73 335
547 2 2 0 1 7 335 100
548 2 2 0 1 87 8 119
549 2 2 0 1 103 104 9
550 2 2 0 1 394 10 118
551 2 2 0 1 394 122 10
552 2 2 0 1 73 74 339
553 2 2 0 1 73 339 335
554 2 2 0 1 74 75 343
555 2 2 0 1 74 343 339
556 2 2 0 1 75 76 347
557 2 2 0 1 75 347 343
558 2 2 0 1 76 77 351
559 2 2 0 1 76 351 347
560 2 2 0 1 77 78 355
561 2 2 0 1 77 355 351
562 2 2 0 1 78 79 359
563 2 2 0 1 78 359 355
564 2 2 0 1 79 80 363
565 2 2 0 1 79 363 359
566 2 2 0 1 80 81 367
567 2 2 0 1 80 367 363
568 2 2 0 1 81 82 371
569 2 2 0 1 81 371 367
570 2 2 0 1 82 83 375
571 2 2 0 1 82 375 371
572 2 2 0 1 83 84 379
573 2 2 0 1 83 379 375
574 2 2 0 1 84 85 383
575 2 2 0 1 84 383 379
576 2 2 0 1 85 86 387
577 2 2 0 1 85 387 383
578 2 2 0 1 86 87 391
579 2 2 0 1 86 391 387
580 2 2 0 1 87 119 391
581 2 2 0 1 100 336 101
582 2 2 0 1 100 335 336
583 2 2 0 1 101 337 102
584 2 2 0 1 101 336 337
585 2 2 0 1 102 338 103
586 2 2 0 1 102 337 338
587 2 2 0 1 103 338 104
588 2 2 0 1 338 105 104
589 2 2 0 1 342 106 105
590 2 2 0 1 338 342 105
591 2 2 0 1 346 107 106
592 2 2 0 1 342 346 106
593 2 2 0 1 350 108 107
594 2 2 0 1 346 350 107
595 2 2 0 1 354 109 108
596 2 2 0 1 350 354 108
597 2 2 0 1 358 110 109
598 2 2 0 1 354 358 109
599 2 2 0 1 362 111 110
600 2 2 0 1 358 362 110
601 2 2 0 1 366 112 111
602 2 2 0 1 362 366 111
603 2 2 0 1 370 113 112
604 2 2 0 1 366 370 112
605 2 2 0 1 374 114 113
606 2 2 0 1 370 374 113
607 2 2 0 1 378 115 114
608 2 2 0 1 374 378 114
609 2 2 0 1 382 116 115
610 2 2 0 1 378 382 115
611 2 2 0 1 386 117 116
612 2 2 0 1 382 386 116
613 2 2 0 1 390 118 117
614 2 2 0 1 386 390 117
615 2 2 0 1 390 394 118
616 2 2 0 1 391 119 120
617 2 2 0 1 392 120 121
618 2 2 0 1 391 120 392
619 2 2 0 1 393 121 122
620 2 2 0 1 392 121 393
621 2 2 0 1 393 122 394
622 2 2 0 1 335 340 336
623 2 2 0 1 335 339 340
624 2 2 0 1 336 341 337
625 2 2 0 1 336 340 341
626 2 2 0 1 337 342 338
627 2 2 0 1 337 341 342
628 2 2 0 1 339 344 340
629 2 2 0 1 339 343 344
630 2 2 0 1 340 345 341
631 2 2 0 1 340 344 345
632 2 2 0 1 341 346 342
633 2 2 0 1 341 345 346
634 2 2 0 1 343 348 344
635 2 2 0 1 343 347 348
636 2 2 0 1 344 349 345
637 2 2 0 1 344 348 349
638 2 2 0 1 345 350 346
639 2 2 0 1 345 349 350
640 2 2 0 1 347 352 348
641 2 2 0 1 347 351 352
642 2 2 0 1 348 353 349
643 2 2 0 1 348 352 353
644 2 2 0 1 349 354 350
645 2 2 0 1 349 353 354
646 2 2 0 1 351 356 352
647 2 2 0 1 351 355 356
648 2 2 0 1 352 357 353
649 2 2 0 1 352 356 357
650 2 2 0 1 353 358 354
651 2 2 0 1 353 357 358
652 2 2 0 1 355 360 356
653 2 2 0 1 355 359 360
654 2 2 0 1 356 361 357
655 2 2 0 1 356 360 361
656 2 2 0 1 357 362 358
657 2 2 0 1 357 361 362
658 2 2 0 1 359 364 360
659 2 2 0 1 359 363 364
660 2 2 0 1 360 365 361
661 2 2 0 1 360 364 365
662 2 2 0 1 361 366 362
663 2 2 0 1 361 365 366
664 2 2 0 1 363 368 364
665 2 2 0 1 363 367 368
666 2 2 0 1 364 369 365
667 2 2 0 1 364 368 369
668 2 2 0 1 365 370 366
669 2 2 0 1 365 369 370
670 2 2 0 1 367 372 368
671 2 2 0 1 367 371 372
672 2 2 0 1 368 373 369
673 2 2 0 1 368 372 373
674 2 2 0 1 369 374 370
675 2 2 0 1 369 373 374
676 2 2 0 1 371 376 372
677 2 2 0 1 371 375 376
678 2 2 0 1 372 377 373
679 2 2 0 1 372 376 377
680 2 2 0 1 373 378 374
681 2 2 0 1 373 377 378
682 2 2 0 1 375 380 376
683 2 2 0 1 375 379 380
684 2 2 0 1 376 381 377
685 2 2 0 1 376 380 381
686 2 2 0 1 377 382 378
687 2 2 0 1 377 381 382
688 2 2 0 1 379 384 380
689 2 2 0 1 379 383 384
690 2 2 0 1 380 385 381
691 2 2 0 1 380 384 385
692 2 2 0 1 381 386 382
693 2 2 0 1 381 385 386
694 2 2 0 1 383 388 384
695 2 2 0 1 383 387 388
696 2 2 0 1 384 389 385
697 2 2 0 1 384 388 389
698 2 2 0 1 385 390 386
699 2 2 0 1 385 389 390
700 2 2 0 1 387 392 388
701 2 2 0 1 387 391 392
702 2 2 0 1 388 393 389
703 2 2 0 1 388 392 393
704 2 2 0 1 389 394 390
705 2 2 0 1 389 393 394
706 2 2 0 1 95 4 407
707 2 2 0 1 410 4 126
708 2 2 0 1 407 4 408
709 2 2 0 1 408 4 409
710 2 2 0 1 409 4 410
711 2 2 0 1 8 92 395
712 2 2 0 1 8 395 119
713 2 2 0 1 122 123 10
714 2 2 0 1 92 93 399
715 2 2 0 1 92 399 395
716 2 2 0 1 93 94 403
717 2 2 0 1 93 403 399
718 2 2 0 1 94 95 407
719 2 2 0 1 94 407 403
720 2 2 0 1 119 396 120
721 2 2 0 1 119 395 396
722 2 2 0 1 120 397 121
723 2 2 0 1 120 396 397
724 2 2 0 1 121 398 122
725 2 2 0 1 121 397 398
726 2 2 0 1 122 398 123
727 2 2 0 1 398 124 123
728 2 2 0 1 402 125 124
729 2 2 0 1 398 402 124
730 2 2 0 1 406 126 125
731 2 2 0 1 402 406 125
732 2 2 0 1 406 410 126
733 2 2 0 1 395 400 396
734 2 2 0 1 395 399 400
735 2 2 0 1 396 401 397
736 2 2 0 1 396 400 401
737 2 2 0 1 397 402 398
738 2 2 0 1 397 401 402
739 2 2 0 1 399 404 400
740 2 2 0 1 399 403 404
741 2 2 0 1 400 405 401
742 2 2 0 1 400 404 405
743 2 2 0 1 401 406 402
744 2 2 0 1 401 405 406
745 2 2 0 1 403 408 404
746 2 2 0 1 403 407 408
747 2 2 0 1 404 409 405
748 2 2 0 1 404 408 409
749 2 2 0 1 405 410 406
750 2 2 0 1 405 409 410
751 2 2 0 1 1 414 11
752 2 2 0 1 1 96 411
753 2 2 0 1 1 411 412
754 2 2 0 1 1 412 413
755 2 2 0 1 1 413 414
756 2 2 0 1 426 2 14
757 2 2 0 1 426 130 2
758 2 2 0 1 99 9 127
759 2 2 0 1 414 12 11
760 2 2 0 1 418 13 12
761 2 2 0 1 414 418 12
762 2 2 0 1 422 14 13
763 2 2 0 1 418 422 13
764 2 2 0 1 422 426 14
765 2 2 0 1 96 97 415
766 2 2 0 1 96 415 411
767 2 2 0 1 97 98 419
768 2 2 0 1 97 419 415
769 2 2 0 1 98 99 423
770 2 2 0 1 98 423 419
771 2 2 0 1 99 127 423
772 2 2 0 1 423 127 128
773 2 2 0 1 424 128 129
774 2 2 0 1 423 128 424
775 2 2 0 1 425 129 130
776 2 2 0 1 424 129 425
777 2 2 0 1 425 130 426
778 2 2 0 1 411 416 412
779 2 2 0 1 411 415 416
780 2 2 0 1 412 417 413
781 2 2 0 1 412 416 417
782 2 2 0 1 413 418 414
783 2 2 0 1 413 417 418
784 2 2 0 1 415 420 416
785 2 2 0 1 415 419 420
786 2 2 0 1 416 421 417
787 2 2 0 1 416 420 421
788 2 2 0 1 417 422 418
789 2 2 0 1 417 421 422
790 2 2 0 1 419 424 420
791 2 2 0 1 419 423 424
792 2 2 0 1 420 425 421
793 2 2 0 1 420 424 425
794 2 2 0 1 421 426 422
795 2 2 0 1 421 425 426
796 2 2 0 1 130 15 2
797 2 2 0 1 486 3 29
798 2 2 0 1 486 134 3
799 2 2 0 1 9 104 427
800 2 2 0 1 9 427 127
801 2 2 0 1 118 10 131
802 2 2 0 1 430 16 15
803 2 2 0 1 130 430 15
804 2 2 0 1 434 17 16
805 2 2 0 1 430 434 16
806 2 2 0 1 438 18 17
807 2 2 0 1 434 438 17
808 2 2 0 1 442 19 18
809 2 2 0 1 438 442 18
810 2 2 0 1 446 20 19
811 2 2 0 1 442 446 19
812 2 2 0 1 450 21 20
813 2 2 0 1 446 450 20
814 2 2 0 1 454 22 21
815 2 2 0 1 450 454 21
816 2 2 0 1 458 23 22
817 2 2 0 1 454 458 22
818 2 2 0 1 462 24 23
819 2 2 0 1 458 462 23
820 2 2 0 1 466 25 24
821 2 2 0 1 462 466 24
822 2 2 0 1 470 26 25
823 2 2 0 1 466 470 25
824 2 2 0 1 474 27 26
825 2 2 0 1 470 474 26
826 2 2 0 1 478 28 27
827 2 2 0 1 474 478 27
828 2 2 0 1 482 29 28
829 2 2 0 1 478 482 28
830 2 2 0 1 482 486 29
831 2 2 0 1 104 105 431
832 2 2 0 1 104 431 427
833 2 2 0 1 105 106 435
834 2 2 0 1 105 435 431
835 2 2 0 1 106 107 439
836 2 2 0 1 106 439 435
837 2 2 0 1 107 108 443
838 2 2 0 1 107 443 439
839 2 2 0 1 108 109 447
840 2 2 0 1 108 447 443
841 2 2 0 1 109 110 451
842 2 2 0 1 109 451 447
843 2 2 0 1 110 111 455
844 2 2 0 1 110 455 451
845 2 2 0 1 111 112 459
846 2 2 0 1 111 459 455
847 2 2 0 1 112 113 463
848 2 2 0 1 112 463 459
849 2 2 0 1 113 114 467
850 2 2 0 1 113 467 463
851 2 2 0 1 114 115 471
852 2 2 0 1 114 471 467
853 2 2 0 1 115 116 475
854 2 2 0 1 115 475 471
855 2 2 0 1 116 117 479
856 2 2 0 1 116 479 475
857 2 2 0 1 117 118 483
858 2 2 0 1 117 483 479
859 2 2 0 1 118 131 483
860 2 2 0 1 127 428 128
861 2 2 0 1 127 427 428
862 2 2 0 1 128 429 129
863 2 2 0 1 128 428 429
864 2 2 0 1 129 430 130
865 2 2 0 1 129 429 430
866 2 2 0 1 483 131 132
867 2 2 0 1 484 132 133
868 2 2 0 1 483 132 484
869 2 2 0 1 485 133 134
870 2 2 0 1 484 133 485
871 2 2 0 1 485 134 486
872 2 2 0 1 427 432 428
873 2 2 0 1 427 431 432
874 2 2 0 1 428 433 429
875 2 2 0 1 428 432 433
876 2 2 0 1 429 434 430
877 2 2 0 1 429 433 434
878 2 2 0 1 431 436 432
879 2 2 0 1 431 435 436
880 2 2 0 1 432 437 433
881 2 2 0 1 432 436 437
882 2 2 0 1 433 438 434
883 2 2 0 1 433 437 438
884 2 2 0 1 435 440 436
885 2 2 0 1 435 439 440
886 2 2 0 1 436 441 437
887 2 2 0 1 436 440 441
888 2 2 0 1 437 442 438
889 2 2 0 1 437 441 442
890 2 2 0 1 439 444 440
891 2 2 0 1 439 443 444
892 2 2 0 1 440 445 441
893 2 2 0 1 440 444 445
894 2 2 0 1 441 446 442
895 2 2 0 1 441 445 446
896 2 2 0 1 443 448 444
897 2 2 0 1 443 447 448
898 2 2 0 1 444 449 445
899 2 2 0 1 444 448 449
900 2 2 0 1 445 450 446
901 2 2 0 1 445 449 450
902 2 2 0 1 447 452 448
903 2 2 0 1 447 451 452
904 2 2 0 1 448 453 449
905 2 2 0 1 448 452 453
906 2 2 0 1 449 454 450
907 2 2 0 1 449 453 454
908 2 2 0 1 451 456 452
909 2 2 0 1 451 455 456
910 2 2 0 1 452 457 453
911 2 2 0 1 452 456 457
912 2 2 0 1 453 458 454
913 2 2 0 1 453 457 458
914 2 2 0 1 455 460 456
915 2 2 0 1 455 459 460
916 2 2 0 1 456 461 457
917 2 2 0 1 456 460 461
918 2 2 0 1 457 462 458
919 2 2 0 1 457 461 462
920 2 2 0 1 459 464 460
921 2 2 0 1 459 463 464
922 2 2 0 1 460 465 461
923 2 2 0 1 460 464 465
924 2 2 0 1 461 466 462
925 2 2 0 1 461 465 466
926 2 2 0 1 463 468 464
927 2 2 0 1 463 467 468
928 2 2 0 1 464 469 465
929 2 2 0 1 464 468 469
930 2 2 0 1 465 470 466
931 2 2 0 1 465 469 470
932 2 2 0 1 467 472 468
933 2 2 0 1 467 471 472
934 2 2 0 1 468 473 469
935 2 2 0 1 468 472 473
936 2 2 0 1 469 474 470
937 2 2 0 1 469 473 474
938 2 2 0 1 471 476 472
939 2 2 0 1 471 475 476
940 2 2 0 1 472 477 473
941 2 2 0 1 472 476 477
942 2 2 0 1 473 478 474
943 2 2 0 1 473 477 478
944 2 2 0 1 475 480 476
945 2 2 0 1 475 479 480
946 2 2 0 1 476 481 477
947 2 2 0 1 476 480 481
948 2 2 0 1 477 482 478
949 2 2 0 1 477 481 482
950 2 2 0 1 479 484 480
951 2 2 0 1 479 483 484
952 2 2 0 1 480 485 481
953 2 2 0 1 480 484 485
954 2 2 0 1 481 486 482
955 2 2 0 1 481 485 486
956 2 2 0 1 134 30 3
957 2 2 0 1 502 4 33
958 2 2 0 1 126 4 499
959 2 2 0 1 499 4 500
960 2 2 0 1 500 4 501
961 2 2 0 1 501 4 502
962 2 2 0 1 10 123 487
963 2 2 0 1 10 487 131
964 2 2 0 1 490 31 30
965 2 2 0 1 134 490 30
966 2 2 0 1 494 32 31
967 2 2 0 1 490 494 31
968 2 2 0 1 498 33 32
969 2 2 0 1 494 498 32
970 2 2 0 1 498 502 33
971 2 2 0 1 123 124 491
972 2 2 0 1 123 491 487
973 2 2 0 1 124 125 495
974 2 2 0 1 124 495 491
975 2 2 0 1 125 126 499
976 2 2 0 1 125 499 495
977 2 2 0 1 131 488 132
978 2 2 0 1 131 487 488
979 2 2 0 1 132 489 133
980 2 2 0 1 132 488 489
981 2 2 0 1 133 490 134
982 2 2 0 1 133 489 490
983 2 2 0 1 487 492 488
984 2 2 0 1 487 491 492
985 2 2 0 1 488 493 489
986 2 2 0 1 488 492 493
987 2 2 0 1 489 494 490
988 2 2 0 1 489 493 494
989 2 2 0 1 491 496 492
990 2 2 0 1 491 495 496
991 2 2 0 1 492 497 493
992 2 2 0 1 492 496 497
993 2 2 0 1 493 498 494
994 2 2 0 1 493 497 498
995 2 2 0 1 495 500 496
996 2 2 0 1 495 499 500
997 2 2 0 1 496 501 497
998 2 2 0 1 496 500 501
999 2 2 0 1 497 502 498
1000 2 2 0 1 497 501 502
$EndElements
