$MeshFormat
2.2 0 8
$EndMeshFormat
$Nodes
320
1 0 0 0.09
2 -0.018 0 0.07199999999999999
3 0 0 0.07199999999999999
4 -0.018 0 -0.07199999999999999
5 0 0 -0.09
6 0 0 -0.07199999999999999
7 -1.102182119232618e-18 -0.018 0.07199999999999999
8 -1.102182119232618e-18 -0.018 -0.07199999999999999
9 0.018 -2.204364238465236e-18 0.07199999999999999
10 0.018 -2.204364238465236e-18 -0.07199999999999999
11 3.306546357697854e-18 0.018 0.07199999999999999
12 3.306546357697854e-18 0.018 -0.07199999999999999
13 -0.008999999999999999 0 0.0875884572681199
14 -0.0155884572681199 0 0.081
15 -0.018 0 0.063
16 -0.018 0 0.05399999999999999
17 -0.018 0 0.045
18 -0.018 0 0.036
19 -0.018 0 0.027
20 -0.018 0 0.018
21 -0.018 0 0.008999999999999994
22 -0.018 0 0
23 -0.018 0 -0.008999999999999994
24 -0.018 0 -0.018
25 -0.018 0 -0.027
26 -0.018 0 -0.03599999999999999
27 -0.018 0 -0.045
28 -0.018 0 -0.05400000000000001
29 -0.018 0 -0.06299999999999999
30 -0.0155884572681199 0 -0.08099999999999999
31 -0.009000000000000003 0 -0.0875884572681199
32 -5.510910596163089e-19 -0.008999999999999999 0.0875884572681199
33 -9.545177148524162e-19 -0.0155884572681199 0.081
34 -0.0155884572681199 -0.008999999999999999 0.07199999999999999
35 -0.009000000000000003 -0.0155884572681199 0.07199999999999999
36 -1.102182119232618e-18 -0.018 0.063
37 -1.102182119232618e-18 -0.018 0.05399999999999999
38 -1.102182119232618e-18 -0.018 0.045
39 -1.102182119232618e-18 -0.018 0.036
40 -1.102182119232618e-18 -0.018 0.027
41 -1.102182119232618e-18 -0.018 0.018
42 -1.102182119232618e-18 -0.018 0.008999999999999994
43 -1.102182119232618e-18 -0.018 0
44 -1.102182119232618e-18 -0.018 -0.008999999999999994
45 -1.102182119232618e-18 -0.018 -0.018
46 -1.102182119232618e-18 -0.018 -0.027
47 -1.102182119232618e-18 -0.018 -0.03599999999999999
48 -1.102182119232618e-18 -0.018 -0.045
49 -1.102182119232618e-18 -0.018 -0.05400000000000001
50 -1.102182119232618e-18 -0.018 -0.06299999999999999
51 -0.0155884572681199 -0.008999999999999999 -0.07199999999999999
52 -0.009000000000000003 -0.0155884572681199 -0.07199999999999999
53 -9.545177148524164e-19 -0.0155884572681199 -0.08099999999999999
54 -5.510910596163091e-19 -0.009000000000000003 -0.0875884572681199
55 0.008999999999999999 -1.102182119232618e-18 0.0875884572681199
56 0.0155884572681199 -1.909035429704832e-18 0.081
57 0.008999999999999998 -0.0155884572681199 0.07199999999999999
58 0.0155884572681199 -0.009000000000000005 0.07199999999999999
59 0.018 -2.204364238465236e-18 0.063
60 0.018 -2.204364238465236e-18 0.05399999999999999
61 0.018 -2.204364238465236e-18 0.045
62 0.018 -2.204364238465236e-18 0.036
63 0.018 -2.204364238465236e-18 0.027
64 0.018 -2.204364238465236e-18 0.018
65 0.018 -2.204364238465236e-18 0.008999999999999994
66 0.018 -2.204364238465236e-18 0
67 0.018 -2.204364238465236e-18 -0.008999999999999994
68 0.018 -2.204364238465236e-18 -0.018
69 0.018 -2.204364238465236e-18 -0.027
70 0.018 -2.204364238465236e-18 -0.03599999999999999
71 0.018 -2.204364238465236e-18 -0.045
72 0.018 -2.204364238465236e-18 -0.05400000000000001
73 0.018 -2.204364238465236e-18 -0.06299999999999999
74 0.008999999999999998 -0.0155884572681199 -0.07199999999999999
75 0.0155884572681199 -0.009000000000000005 -0.07199999999999999
76 0.0155884572681199 -1.909035429704833e-18 -0.08099999999999999
77 0.009000000000000003 -1.102182119232618e-18 -0.0875884572681199
78 1.653273178848927e-18 0.008999999999999999 0.0875884572681199
79 2.863553144557248e-18 0.0155884572681199 0.081
80 0.0155884572681199 0.008999999999999998 0.07199999999999999
81 0.009000000000000005 0.01558845726811989 0.07199999999999999
82 3.306546357697854e-18 0.018 0.063
83 3.306546357697854e-18 0.018 0.05399999999999999
84 3.306546357697854e-18 0.018 0.045
85 3.306546357697854e-18 0.018 0.036
86 3.306546357697854e-18 0.018 0.027
87 3.306546357697854e-18 0.018 0.018
88 3.306546357697854e-18 0.018 0.008999999999999994
89 3.306546357697854e-18 0.018 0
90 3.306546357697854e-18 0.018 -0.008999999999999994
91 3.306546357697854e-18 0.018 -0.018
92 3.306546357697854e-18 0.018 -0.027
93 3.306546357697854e-18 0.018 -0.03599999999999999
94 3.306546357697854e-18 0.018 -0.045
95 3.306546357697854e-18 0.018 -0.05400000000000001
96 3.306546357697854e-18 0.018 -0.06299999999999999
97 0.0155884572681199 0.008999999999999998 -0.07199999999999999
98 0.009000000000000005 0.01558845726811989 -0.07199999999999999
99 2.863553144557249e-18 0.0155884572681199 -0.08099999999999999
100 1.653273178848927e-18 0.009000000000000003 -0.0875884572681199
101 -0.008999999999999996 0.0155884572681199 0.07199999999999999
102 -0.01558845726811989 0.009000000000000006 0.07199999999999999
103 -0.008999999999999996 0.0155884572681199 -0.07199999999999999
104 -0.01558845726811989 0.009000000000000006 -0.07199999999999999
105 -0.007794228634059948 -0.004499999999999999 0.0875884572681199
106 -0.004500000000000001 -0.007794228634059947 0.0875884572681199
107 -0.0135 -0.007794228634059947 0.081
108 -0.00779422863405995 -0.0135 0.081
109 -0.0155884572681199 -0.008999999999999999 0.063
110 -0.009000000000000003 -0.0155884572681199 0.063
111 -0.0155884572681199 -0.008999999999999999 0.05399999999999999
112 -0.009000000000000003 -0.0155884572681199 0.05399999999999999
113 -0.0155884572681199 -0.008999999999999999 0.045
114 -0.009000000000000003 -0.0155884572681199 0.045
115 -0.0155884572681199 -0.008999999999999999 0.036
116 -0.009000000000000003 -0.0155884572681199 0.036
117 -0.0155884572681199 -0.008999999999999999 0.027
118 -0.009000000000000003 -0.0155884572681199 0.027
119 -0.0155884572681199 -0.008999999999999999 0.018
120 -0.009000000000000003 -0.0155884572681199 0.018
121 -0.0155884572681199 -0.008999999999999999 0.008999999999999994
122 -0.009000000000000003 -0.0155884572681199 0.008999999999999994
123 -0.0155884572681199 -0.008999999999999999 0
124 -0.009000000000000003 -0.0155884572681199 0
125 -0.0155884572681199 -0.008999999999999999 -0.008999999999999994
126 -0.009000000000000003 -0.0155884572681199 -0.008999999999999994
127 -0.0155884572681199 -0.008999999999999999 -0.018
128 -0.009000000000000003 -0.0155884572681199 -0.018
129 -0.0155884572681199 -0.008999999999999999 -0.027
130 -0.009000000000000003 -0.0155884572681199 -0.027
131 -0.0155884572681199 -0.008999999999999999 -0.03599999999999999
132 -0.009000000000000003 -0.0155884572681199 -0.03599999999999999
133 -0.0155884572681199 -0.008999999999999999 -0.045
134 -0.009000000000000003 -0.0155884572681199 -0.045
135 -0.0155884572681199 -0.008999999999999999 -0.05400000000000001
136 -0.009000000000000003 -0.0155884572681199 -0.05400000000000001
137 -0.0155884572681199 -0.008999999999999999 -0.06299999999999999
138 -0.009000000000000003 -0.0155884572681199 -0.06299999999999999
139 -0.0135 -0.007794228634059948 -0.08099999999999999
140 -0.007794228634059951 -0.0135 -0.08099999999999999
141 -0.007794228634059951 -0.004500000000000001 -0.0875884572681199
142 -0.004500000000000002 -0.00779422863405995 -0.0875884572681199
143 0.004499999999999998 -0.007794228634059948 0.0875884572681199
144 0.007794228634059947 -0.004500000000000001 0.0875884572681199
145 0.007794228634059946 -0.0135 0.081
146 0.0135 -0.007794228634059951 0.081
147 0.008999999999999998 -0.0155884572681199 0.063
148 0.0155884572681199 -0.009000000000000005 0.063
149 0.008999999999999998 -0.0155884572681199 0.05399999999999999
150 0.0155884572681199 -0.009000000000000005 0.05399999999999999
151 0.008999999999999998 -0.0155884572681199 0.045
152 0.0155884572681199 -0.009000000000000005 0.045
153 0.008999999999999998 -0.0155884572681199 0.036
154 0.0155884572681199 -0.009000000000000005 0.036
155 0.008999999999999998 -0.0155884572681199 0.027
156 0.0155884572681199 -0.009000000000000005 0.027
157 0.008999999999999998 -0.0155884572681199 0.018
158 0.0155884572681199 -0.009000000000000005 0.018
159 0.008999999999999998 -0.0155884572681199 0.008999999999999994
160 0.0155884572681199 -0.009000000000000005 0.008999999999999994
161 0.008999999999999998 -0.0155884572681199 0
162 0.0155884572681199 -0.009000000000000005 0
163 0.008999999999999998 -0.0155884572681199 -0.008999999999999994
164 0.0155884572681199 -0.009000000000000005 -0.008999999999999994
165 0.008999999999999998 -0.0155884572681199 -0.018
166 0.0155884572681199 -0.009000000000000005 -0.018
167 0.008999999999999998 -0.0155884572681199 -0.027
168 0.0155884572681199 -0.009000000000000005 -0.027
169 0.008999999999999998 -0.0155884572681199 -0.03599999999999999
170 0.0155884572681199 -0.009000000000000005 -0.03599999999999999
171 0.008999999999999998 -0.0155884572681199 -0.045
172 0.0155884572681199 -0.009000000000000005 -0.045
173 0.008999999999999998 -0.0155884572681199 -0.05400000000000001
174 0.0155884572681199 -0.009000000000000005 -0.05400000000000001
175 0.008999999999999998 -0.0155884572681199 -0.06299999999999999
176 0.0155884572681199 -0.009000000000000005 -0.06299999999999999
177 0.007794228634059947 -0.0135 -0.08099999999999999
178 0.0135 -0.007794228634059952 -0.08099999999999999
179 0.0045 -0.007794228634059951 -0.0875884572681199
180 0.00779422863405995 -0.004500000000000003 -0.0875884572681199
181 0.007794228634059949 0.004499999999999998 0.0875884572681199
182 0.004500000000000001 0.007794228634059946 0.0875884572681199
183 0.0135 0.007794228634059945 0.081
184 0.007794228634059952 0.0135 0.081
185 0.0155884572681199 0.008999999999999998 0.063
186 0.009000000000000005 0.01558845726811989 0.063
187 0.0155884572681199 0.008999999999999998 0.05399999999999999
188 0.009000000000000005 0.01558845726811989 0.05399999999999999
189 0.0155884572681199 0.008999999999999998 0.045
190 0.009000000000000005 0.01558845726811989 0.045
191 0.0155884572681199 0.008999999999999998 0.036
192 0.009000000000000005 0.01558845726811989 0.036
193 0.0155884572681199 0.008999999999999998 0.027
194 0.009000000000000005 0.01558845726811989 0.027
195 0.0155884572681199 0.008999999999999998 0.018
196 0.009000000000000005 0.01558845726811989 0.018
197 0.0155884572681199 0.008999999999999998 0.008999999999999994
198 0.009000000000000005 0.01558845726811989 0.008999999999999994
199 0.0155884572681199 0.008999999999999998 0
200 0.009000000000000005 0.01558845726811989 0
201 0.0155884572681199 0.008999999999999998 -0.008999999999999994
202 0.009000000000000005 0.01558845726811989 -0.008999999999999994
203 0.0155884572681199 0.008999999999999998 -0.018
204 0.009000000000000005 0.01558845726811989 -0.018
205 0.0155884572681199 0.008999999999999998 -0.027
206 0.009000000000000005 0.01558845726811989 -0.027
207 0.0155884572681199 0.008999999999999998 -0.03599999999999999
208 0.009000000000000005 0.01558845726811989 -0.03599999999999999
209 0.0155884572681199 0.008999999999999998 -0.045
210 0.009000000000000005 0.01558845726811989 -0.045
211 0.0155884572681199 0.008999999999999998 -0.05400000000000001
212 0.009000000000000005 0.01558845726811989 -0.05400000000000001
213 0.0155884572681199 0.008999999999999998 -0.06299999999999999
214 0.009000000000000005 0.01558845726811989 -0.06299999999999999
215 0.01350000000000001 0.007794228634059946 -0.08099999999999999
216 0.007794228634059952 0.0135 -0.08099999999999999
217 0.007794228634059952 0.0045 -0.0875884572681199
218 0.004500000000000003 0.007794228634059949 -0.0875884572681199
219 -0.004499999999999997 0.007794228634059949 0.0875884572681199
220 -0.007794228634059946 0.004500000000000002 0.0875884572681199
221 -0.007794228634059945 0.0135 0.081
222 -0.0135 0.007794228634059952 0.081
223 -0.008999999999999996 0.0155884572681199 0.063
224 -0.01558845726811989 0.009000000000000006 0.063
225 -0.008999999999999996 0.0155884572681199 0.05399999999999999
226 -0.01558845726811989 0.009000000000000006 0.05399999999999999
227 -0.008999999999999996 0.0155884572681199 0.045
228 -0.01558845726811989 0.009000000000000006 0.045
229 -0.008999999999999996 0.0155884572681199 0.036
230 -0.01558845726811989 0.009000000000000006 0.036
231 -0.008999999999999996 0.0155884572681199 0.027
232 -0.01558845726811989 0.009000000000000006 0.027
233 -0.008999999999999996 0.0155884572681199 0.018
234 -0.01558845726811989 0.009000000000000006 0.018
235 -0.008999999999999996 0.0155884572681199 0.008999999999999994
236 -0.01558845726811989 0.009000000000000006 0.008999999999999994
237 -0.008999999999999996 0.0155884572681199 0
238 -0.01558845726811989 0.009000000000000006 0
239 -0.008999999999999996 0.0155884572681199 -0.008999999999999994
240 -0.01558845726811989 0.009000000000000006 -0.008999999999999994
241 -0.008999999999999996 0.0155884572681199 -0.018
242 -0.01558845726811989 0.009000000000000006 -0.018
243 -0.008999999999999996 0.0155884572681199 -0.027
244 -0.01558845726811989 0.009000000000000006 -0.027
245 -0.008999999999999996 0.0155884572681199 -0.03599999999999999
246 -0.01558845726811989 0.009000000000000006 -0.03599999999999999
247 -0.008999999999999996 0.0155884572681199 -0.045
248 -0.01558845726811989 0.009000000000000006 -0.045
249 -0.008999999999999996 0.0155884572681199 -0.05400000000000001
250 -0.01558845726811989 0.009000000000000006 -0.05400000000000001
251 -0.008999999999999996 0.0155884572681199 -0.06299999999999999
252 -0.01558845726811989 0.009000000000000006 -0.06299999999999999
253 -0.007794228634059945 0.01350000000000001 -0.08099999999999999
254 -0.0135 0.007794228634059953 -0.08099999999999999
255 -0.004499999999999999 0.007794228634059952 -0.0875884572681199
256 -0.007794228634059949 0.004500000000000004 -0.0875884572681199
257 0.003620920397831383 -0.01246805856686608 0.02220154983096498
258 -0.01193231916955867 -0.006430085675796999 -0.01378293028764635
259 -0.01082873551044751 0.004811002464103493 0.005275945000625921
260 -0.006608651466356666 -0.01203766498592719 -0.05766740461340747
261 -0.007293618486527188 -0.01106697108978896 -0.04065535771262984
262 -0.01270803971877583 0.006534192235828618 -0.04033328478369012
263 -0.01060869322604166 0.003058333820976899 0.0507639439787612
264 -0.00788879750980896 0.01172603042529524 0.04096851305244676
265 -0.00336716534828607 -0.01417504467330551 0.0235936847896888
266 -0.009800870030933649 -0.008608271552123077 0.0755327748967687
267 0.0007289892871153523 -0.01026044890325857 0.05746479867104291
268 0.01107413473876508 -7.642801111094407e-06 -0.04076009353169855
269 -0.006812250381015854 -0.01226939778629368 0.04907134747955456
270 0.00755867781512614 -0.009187460876168894 0.0151234735910176
271 0.007800856689962526 -0.01035728439293538 0.0674088286673806
272 0.007915718002678008 -0.004669581943445995 0.08272965346725727
273 0.003118646370404109 0.01140887969139012 0.03114925612492751
274 0.01055501436177472 -0.007505946159768894 -0.04967718129926466
275 0.008020546232919919 0.009618965088594215 0.03164996755548086
276 0.0005999932768389438 -0.009930138567085047 -0.06777533101574877
277 -0.00267836211516657 0.01435010907549054 -0.03120855542856283
278 0.01014318810908594 0.007978550701610651 -0.0227373113130103
279 0.005610352062054634 0.01172156621561498 -0.005281402587915392
280 0.004667461197188212 0.01194753729527259 -0.02324150412603188
281 -0.002976383280381641 0.008296537927050755 -0.07790923547664634
282 0.0109353438818439 0.005805415817636262 -0.06768040196465015
283 0.005574276479333942 -0.008910466632291216 -0.004660779546218437
284 -5.204170427930421e-18 -0.01163146452427218 0.04313146452427217
285 -0.003295340660478938 0.01229837877315499 0.0260550104129192
286 0.01166756624859608 -0.003126314953947945 0.006971448631964096
287 0.007640745013678269 0.01323415857136932 0.05573829759986045
288 -0.004682470436209616 0.00811027670045426 -0.01072182927866816
289 -0.005334929590078087 -3.514607844358984e-05 0.08370247408657221
290 0.006142562483456881 0.006142562483456878 0.06337753627994941
291 -0.002165747522174818 -0.003222798942214968 -0.02899215449470703
292 -0.007290411856193772 0.0004807653522090199 -0.05116542003308953
293 -0.005664083126138243 -0.002459277685505083 -0.07377034807545145
294 -0.0007435905528970638 -0.001134515515474515 0.01643281029324888
295 0.001115970329373588 -0.001115970329373585 0.07891861386902903
296 -0.005285547177423244 -0.003373920103187638 0.0613104136556005
297 0.000999058347624893 0.002170413493799289 0.03665667553388446
298 -0.002653425024660563 -0.001035669815280158 0.001306802583334206
299 0.002905907201239007 0.0001975703681256287 -0.06231422436239437
300 0.002709526389691868 0.003648682073375984 -0.01975951423960035
301 -0.00103914936299796 0.003887597810353487 0.05027459676387174
302 0.002267157521136919 0.003568390143052877 -0.04087049886081817
303 0.007878713748752545 -0.00270154808414653 0.0580943159530613
304 3.133860685572691e-05 -0.006317492791042188 0.0268747391587552
305 0.0005841919851381763 -0.005162504614667732 -0.01052323957573904
306 0.005612904002128716 0.001503973094563805 -0.07472839857340581
307 -0.009715991985361085 0.001420180028453703 0.07406433574067028
308 0.005019738719445296 0.000958194298164722 -0.05094186883042519
309 8.850245179417397e-05 -0.0073618861021461 -0.04159850482764147
310 0.004817604540485106 0.004120984453888079 0.0259650088787069
311 0.003196951768445674 -0.003238697937459319 0.06832175196986504
312 0.007639327808413421 0.002868694711816478 -0.005264616414321572
313 0.00317240166290641 0.005283006631927001 -0.030565447743476
314 -0.00785482111781402 -0.0001896702913718584 -0.03983313913476053
315 -0.006546142043270941 -0.001397966978418092 -0.01997358524762034
316 0.001300105908269564 -0.00890008463180917 -0.05820806036183684
317 -0.007814778291986563 0.002433740277888088 0.04237405220978705
318 -0.007258467236321156 -0.004327665160548267 0.05013066812461314
319 -0.002821472608276408 -0.008383216864527442 0.07388577202376077
320 -0.008365983637093542 -0.00146887809006723 -0.009360056707547066
$EndNodes
$Elements
1631
1 15 2 0 0 1
2 15 2 0 1 2
3 15 2 0 2 3
4 15 2 0 3 4
5 15 2 0 4 5
6 15 2 0 6 6
7 15 2 0 9 7
8 15 2 0 11 8
9 15 2 0 14 9
10 15 2 0 16 10
11 15 2 0 19 11
12 15 2 0 21 12
13 1 2 0 1 1 13
14 1 2 0 1 13 14
15 1 2 0 1 14 2
16 1 2 0 2 2 15
17 1 2 0 2 15 16
18 1 2 0 2 16 17
19 1 2 0 2 17 18
20 1 2 0 2 18 19
21 1 2 0 2 19 20
22 1 2 0 2 20 21
23 1 2 0 2 21 22
24 1 2 0 2 22 23
25 1 2 0 2 23 24
26 1 2 0 2 24 25
27 1 2 0 2 25 26
28 1 2 0 2 26 27
29 1 2 0 2 27 28
30 1 2 0 2 28 29
31 1 2 0 2 29 4
32 1 2 0 3 4 30
33 1 2 0 3 30 31
34 1 2 0 3 31 5
35 1 2 0 4 1 32
36 1 2 0 4 32 33
37 1 2 0 4 33 7
38 1 2 0 5 2 34
39 1 2 0 5 34 35
40 1 2 0 5 35 7
41 1 2 0 7 7 36
42 1 2 0 7 36 37
43 1 2 0 7 37 38
44 1 2 0 7 38 39
45 1 2 0 7 39 40
46 1 2 0 7 40 41
47 1 2 0 7 41 42
48 1 2 0 7 42 43
49 1 2 0 7 43 44
50 1 2 0 7 44 45
51 1 2 0 7 45 46
52 1 2 0 7 46 47
53 1 2 0 7 47 48
54 1 2 0 7 48 49
55 1 2 0 7 49 50
56 1 2 0 7 50 8
57 1 2 0 9 4 51
58 1 2 0 9 51 52
59 1 2 0 9 52 8
60 1 2 0 11 8 53
61 1 2 0 11 53 54
62 1 2 0 11 54 5
63 1 2 0 14 1 55
64 1 2 0 14 55 56
65 1 2 0 14 56 9
66 1 2 0 15 7 57
67 1 2 0 15 57 58
68 1 2 0 15 58 9
69 1 2 0 17 9 59
70 1 2 0 17 59 60
71 1 2 0 17 60 61
72 1 2 0 17 61 62
73 1 2 0 17 62 63
74 1 2 0 17 63 64
75 1 2 0 17 64 65
76 1 2 0 17 65 66
77 1 2 0 17 66 67
78 1 2 0 17 67 68
79 1 2 0 17 68 69
80 1 2 0 17 69 70
81 1 2 0 17 70 71
82 1 2 0 17 71 72
83 1 2 0 17 72 73
84 1 2 0 17 73 10
85 1 2 0 19 8 74
86 1 2 0 19 74 75
87 1 2 0 19 75 10
88 1 2 0 21 10 76
89 1 2 0 21 76 77
90 1 2 0 21 77 5
91 1 2 0 24 1 78
92 1 2 0 24 78 79
93 1 2 0 24 79 11
94 1 2 0 25 9 80
95 1 2 0 25 80 81
96 1 2 0 25 81 11
97 1 2 0 27 11 82
98 1 2 0 27 82 83
99 1 2 0 27 83 84
100 1 2 0 27 84 85
101 1 2 0 27 85 86
102 1 2 0 27 86 87
103 1 2 0 27 87 88
104 1 2 0 27 88 89
105 1 2 0 27 89 90
106 1 2 0 27 90 91
107 1 2 0 27 91 92
108 1 2 0 27 92 93
109 1 2 0 27 93 94
110 1 2 0 27 94 95
111 1 2 0 27 95 96
112 1 2 0 27 96 12
113 1 2 0 29 10 97
114 1 2 0 29 97 98
115 1 2 0 29 98 12
116 1 2 0 31 12 99
117 1 2 0 31 99 100
118 1 2 0 31 100 5
119 1 2 0 35 11 101
120 1 2 0 35 101 102
121 1 2 0 35 102 2
122 1 2 0 39 12 103
123 1 2 0 39 103 104
124 1 2 0 39 104 4
125 2 2 0 6 1 13 105
126 2 2 0 6 1 106 32
127 2 2 0 6 1 105 106
128 2 2 0 6 14 2 34
129 2 2 0 6 108 7 33
130 2 2 0 6 108 35 7
131 2 2 0 6 13 14 107
132 2 2 0 6 13 107 105
133 2 2 0 6 14 34 107
134 2 2 0 6 106 33 32
135 2 2 0 6 106 108 33
136 2 2 0 6 107 34 35
137 2 2 0 6 107 35 108
138 2 2 0 6 105 108 106
139 2 2 0 6 105 107 108
140 2 2 0 10 2 15 109
141 2 2 0 10 2 109 34
142 2 2 0 10 29 4 51
143 2 2 0 10 35 36 7
144 2 2 0 10 138 8 50
145 2 2 0 10 138 52 8
146 2 2 0 10 15 16 111
147 2 2 0 10 15 111 109
148 2 2 0 10 16 17 113
149 2 2 0 10 16 113 111
150 2 2 0 10 17 18 115
151 2 2 0 10 17 115 113
152 2 2 0 10 18 19 117
153 2 2 0 10 18 117 115
154 2 2 0 10 19 20 119
155 2 2 0 10 19 119 117
156 2 2 0 10 20 21 121
157 2 2 0 10 20 121 119
158 2 2 0 10 21 22 123
159 2 2 0 10 21 123 121
160 2 2 0 10 22 23 125
161 2 2 0 10 22 125 123
162 2 2 0 10 23 24 127
163 2 2 0 10 23 127 125
164 2 2 0 10 24 25 129
165 2 2 0 10 24 129 127
166 2 2 0 10 25 26 131
167 2 2 0 10 25 131 129
168 2 2 0 10 26 27 133
169 2 2 0 10 26 133 131
170 2 2 0 10 27 28 135
171 2 2 0 10 27 135 133
172 2 2 0 10 28 29 137
173 2 2 0 10 28 137 135
174 2 2 0 10 29 51 137
175 2 2 0 10 34 110 35
176 2 2 0 10 34 109 110
177 2 2 0 10 35 110 36
178 2 2 0 10 110 37 36
179 2 2 0 10 112 38 37
180 2 2 0 10 110 112 37
181 2 2 0 10 114 39 38
182 2 2 0 10 112 114 38
183 2 2 0 10 116 40 39
184 2 2 0 10 114 116 39
185 2 2 0 10 118 41 40
186 2 2 0 10 116 118 40
187 2 2 0 10 120 42 41
188 2 2 0 10 118 120 41
189 2 2 0 10 122 43 42
190 2 2 0 10 120 122 42
191 2 2 0 10 124 44 43
192 2 2 0 10 122 124 43
193 2 2 0 10 126 45 44
194 2 2 0 10 124 126 44
195 2 2 0 10 128 46 45
196 2 2 0 10 126 128 45
197 2 2 0 10 130 47 46
198 2 2 0 10 128 130 46
199 2 2 0 10 132 48 47
200 2 2 0 10 130 132 47
201 2 2 0 10 134 49 48
202 2 2 0 10 132 134 48
203 2 2 0 10 136 50 49
204 2 2 0 10 134 136 49
205 2 2 0 10 136 138 50
206 2 2 0 10 137 51 52
207 2 2 0 10 137 52 138
208 2 2 0 10 109 112 110
209 2 2 0 10 109 111 112
210 2 2 0 10 111 114 112
211 2 2 0 10 111 113 114
212 2 2 0 10 113 116 114
213 2 2 0 10 113 115 116
214 2 2 0 10 115 118 116
215 2 2 0 10 115 117 118
216 2 2 0 10 117 120 118
217 2 2 0 10 117 119 120
218 2 2 0 10 119 122 120
219 2 2 0 10 119 121 122
220 2 2 0 10 121 124 122
221 2 2 0 10 121 123 124
222 2 2 0 10 123 126 124
223 2 2 0 10 123 125 126
224 2 2 0 10 125 128 126
225 2 2 0 10 125 127 128
226 2 2 0 10 127 130 128
227 2 2 0 10 127 129 130
228 2 2 0 10 129 132 130
229 2 2 0 10 129 131 132
230 2 2 0 10 131 134 132
231 2 2 0 10 131 133 134
232 2 2 0 10 133 136 134
233 2 2 0 10 133 135 136
234 2 2 0 10 135 138 136
235 2 2 0 10 135 137 138
236 2 2 0 13 4 30 139
237 2 2 0 13 4 139 51
238 2 2 0 13 31 5 141
239 2 2 0 13 142 5 54
240 2 2 0 13 141 5 142
241 2 2 0 13 52 53 8
242 2 2 0 13 30 31 141
243 2 2 0 13 30 141 139
244 2 2 0 13 51 140 52
245 2 2 0 13 51 139 140
246 2 2 0 13 52 140 53
247 2 2 0 13 140 54 53
248 2 2 0 13 140 142 54
249 2 2 0 13 139 142 140
250 2 2 0 13 139 141 142
251 2 2 0 16 1 32 143
252 2 2 0 16 1 144 55
253 2 2 0 16 1 143 144
254 2 2 0 16 33 7 57
255 2 2 0 16 146 9 56
256 2 2 0 16 146 58 9
257 2 2 0 16 32 33 145
258 2 2 0 16 32 145 143
259 2 2 0 16 33 57 145
260 2 2 0 16 144 56 55
261 2 2 0 16 144 146 56
262 2 2 0 16 145 57 58
263 2 2 0 16 145 58 146
264 2 2 0 16 143 146 144
265 2 2 0 16 143 145 146
266 2 2 0 20 7 36 147
267 2 2 0 20 7 147 57
268 2 2 0 20 50 8 74
269 2 2 0 20 58 59 9
270 2 2 0 20 176 10 73
271 2 2 0 20 176 75 10
272 2 2 0 20 36 37 149
273 2 2 0 20 36 149 147
274 2 2 0 20 37 38 151
275 2 2 0 20 37 151 149
276 2 2 0 20 38 39 153
277 2 2 0 20 38 153 151
278 2 2 0 20 39 40 155
279 2 2 0 20 39 155 153
280 2 2 0 20 40 41 157
281 2 2 0 20 40 157 155
282 2 2 0 20 41 42 159
283 2 2 0 20 41 159 157
284 2 2 0 20 42 43 161
285 2 2 0 20 42 161 159
286 2 2 0 20 43 44 163
287 2 2 0 20 43 163 161
288 2 2 0 20 44 45 165
289 2 2 0 20 44 165 163
290 2 2 0 20 45 46 167
291 2 2 0 20 45 167 165
292 2 2 0 20 46 47 169
293 2 2 0 20 46 169 167
294 2 2 0 20 47 48 171
295 2 2 0 20 47 171 169
296 2 2 0 20 48 49 173
297 2 2 0 20 48 173 171
298 2 2 0 20 49 50 175
299 2 2 0 20 49 175 173
300 2 2 0 20 50 74 175
301 2 2 0 20 57 148 58
302 2 2 0 20 57 147 148
303 2 2 0 20 58 148 59
304 2 2 0 20 148 60 59
305 2 2 0 20 150 61 60
306 2 2 0 20 148 150 60
307 2 2 0 20 152 62 61
308 2 2 0 20 150 152 61
309 2 2 0 20 154 63 62
310 2 2 0 20 152 154 62
311 2 2 0 20 156 64 63
312 2 2 0 20 154 156 63
313 2 2 0 20 158 65 64
314 2 2 0 20 156 158 64
315 2 2 0 20 160 66 65
316 2 2 0 20 158 160 65
317 2 2 0 20 162 67 66
318 2 2 0 20 160 162 66
319 2 2 0 20 164 68 67
320 2 2 0 20 162 164 67
321 2 2 0 20 166 69 68
322 2 2 0 20 164 166 68
323 2 2 0 20 168 70 69
324 2 2 0 20 166 168 69
325 2 2 0 20 170 71 70
326 2 2 0 20 168 170 70
327 2 2 0 20 172 72 71
328 2 2 0 20 170 172 71
329 2 2 0 20 174 73 72
330 2 2 0 20 172 174 72
331 2 2 0 20 174 176 73
332 2 2 0 20 175 74 75
333 2 2 0 20 175 75 176
334 2 2 0 20 147 150 148
335 2 2 0 20 147 149 150
336 2 2 0 20 149 152 150
337 2 2 0 20 149 151 152
338 2 2 0 20 151 154 152
339 2 2 0 20 151 153 154
340 2 2 0 20 153 156 154
341 2 2 0 20 153 155 156
342 2 2 0 20 155 158 156
343 2 2 0 20 155 157 158
344 2 2 0 20 157 160 158
345 2 2 0 20 157 159 160
346 2 2 0 20 159 162 160
347 2 2 0 20 159 161 162
348 2 2 0 20 161 164 162
349 2 2 0 20 161 163 164
350 2 2 0 20 163 166 164
351 2 2 0 20 163 165 166
352 2 2 0 20 165 168 166
353 2 2 0 20 165 167 168
354 2 2 0 20 167 170 168
355 2 2 0 20 167 169 170
356 2 2 0 20 169 172 170
357 2 2 0 20 169 171 172
358 2 2 0 20 171 174 172
359 2 2 0 20 171 173 174
360 2 2 0 20 173 176 174
361 2 2 0 20 173 175 176
362 2 2 0 23 54 5 179
363 2 2 0 23 180 5 77
364 2 2 0 23 179 5 180
365 2 2 0 23 8 53 177
366 2 2 0 23 8 177 74
367 2 2 0 23 75 76 10
368 2 2 0 23 53 54 179
369 2 2 0 23 53 179 177
370 2 2 0 23 74 178 75
371 2 2 0 23 74 177 178
372 2 2 0 23 75 178 76
373 2 2 0 23 178 77 76
374 2 2 0 23 178 180 77
375 2 2 0 23 177 180 178
376 2 2 0 23 177 179 180
377 2 2 0 26 1 55 181
378 2 2 0 26 1 182 78
379 2 2 0 26 1 181 182
380 2 2 0 26 56 9 80
381 2 2 0 26 184 11 79
382 2 2 0 26 184 81 11
383 2 2 0 26 55 56 183
384 2 2 0 26 55 183 181
385 2 2 0 26 56 80 183
386 2 2 0 26 182 79 78
387 2 2 0 26 182 184 79
388 2 2 0 26 183 80 81
389 2 2 0 26 183 81 184
390 2 2 0 26 181 184 182
391 2 2 0 26 181 183 184
392 2 2 0 30 9 59 185
393 2 2 0 30 9 185 80
394 2 2 0 30 73 10 97
395 2 2 0 30 81 82 11
396 2 2 0 30 214 12 96
397 2 2 0 30 214 98 12
398 2 2 0 30 59 60 187
399 2 2 0 30 59 187 185
400 2 2 0 30 60 61 189
401 2 2 0 30 60 189 187
402 2 2 0 30 61 62 191
403 2 2 0 30 61 191 189
404 2 2 0 30 62 63 193
405 2 2 0 30 62 193 191
406 2 2 0 30 63 64 195
407 2 2 0 30 63 195 193
408 2 2 0 30 64 65 197
409 2 2 0 30 64 197 195
410 2 2 0 30 65 66 199
411 2 2 0 30 65 199 197
412 2 2 0 30 66 67 201
413 2 2 0 30 66 201 199
414 2 2 0 30 67 68 203
415 2 2 0 30 67 203 201
416 2 2 0 30 68 69 205
417 2 2 0 30 68 205 203
418 2 2 0 30 69 70 207
419 2 2 0 30 69 207 205
420 2 2 0 30 70 71 209
421 2 2 0 30 70 209 207
422 2 2 0 30 71 72 211
423 2 2 0 30 71 211 209
424 2 2 0 30 72 73 213
425 2 2 0 30 72 213 211
426 2 2 0 30 73 97 213
427 2 2 0 30 80 186 81
428 2 2 0 30 80 185 186
429 2 2 0 30 81 186 82
430 2 2 0 30 186 83 82
431 2 2 0 30 188 84 83
432 2 2 0 30 186 188 83
433 2 2 0 30 190 85 84
434 2 2 0 30 188 190 84
435 2 2 0 30 192 86 85
436 2 2 0 30 190 192 85
437 2 2 0 30 194 87 86
438 2 2 0 30 192 194 86
439 2 2 0 30 196 88 87
440 2 2 0 30 194 196 87
441 2 2 0 30 198 89 88
442 2 2 0 30 196 198 88
443 2 2 0 30 200 90 89
444 2 2 0 30 198 200 89
445 2 2 0 30 202 91 90
446 2 2 0 30 200 202 90
447 2 2 0 30 204 92 91
448 2 2 0 30 202 204 91
449 2 2 0 30 206 93 92
450 2 2 0 30 204 206 92
451 2 2 0 30 208 94 93
452 2 2 0 30 206 208 93
453 2 2 0 30 210 95 94
454 2 2 0 30 208 210 94
455 2 2 0 30 212 96 95
456 2 2 0 30 210 212 95
457 2 2 0 30 212 214 96
458 2 2 0 30 213 97 98
459 2 2 0 30 213 98 214
460 2 2 0 30 185 188 186
461 2 2 0 30 185 187 188
462 2 2 0 30 187 190 188
463 2 2 0 30 187 189 190
464 2 2 0 30 189 192 190
465 2 2 0 30 189 191 192
466 2 2 0 30 191 194 192
467 2 2 0 30 191 193 194
468 2 2 0 30 193 196 194
469 2 2 0 30 193 195 196
470 2 2 0 30 195 198 196
471 2 2 0 30 195 197 198
472 2 2 0 30 197 200 198
473 2 2 0 30 197 199 200
474 2 2 0 30 199 202 200
475 2 2 0 30 199 201 202
476 2 2 0 30 201 204 202
477 2 2 0 30 201 203 204
478 2 2 0 30 203 206 204
479 2 2 0 30 203 205 206
480 2 2 0 30 205 208 206
481 2 2 0 30 205 207 208
482 2 2 0 30 207 210 208
483 2 2 0 30 207 209 210
484 2 2 0 30 209 212 210
485 2 2 0 30 209 211 212
486 2 2 0 30 211 214 212
487 2 2 0 30 211 213 214
488 2 2 0 33 77 5 217
489 2 2 0 33 218 5 100
490 2 2 0 33 217 5 218
491 2 2 0 33 10 76 215
492 2 2 0 33 10 215 97
493 2 2 0 33 98 99 12
494 2 2 0 33 76 77 217
495 2 2 0 33 76 217 215
496 2 2 0 33 97 216 98
497 2 2 0 33 97 215 216
498 2 2 0 33 98 216 99
499 2 2 0 33 216 100 99
500 2 2 0 33 216 218 100
501 2 2 0 33 215 218 216
502 2 2 0 33 215 217 218
503 2 2 0 36 1 220 13
504 2 2 0 36 1 78 219
505 2 2 0 36 1 219 220
506 2 2 0 36 222 2 14
507 2 2 0 36 222 102 2
508 2 2 0 36 79 11 101
509 2 2 0 36 220 14 13
510 2 2 0 36 220 222 14
511 2 2 0 36 78 79 221
512 2 2 0 36 78 221 219
513 2 2 0 36 79 101 221
514 2 2 0 36 221 101 102
515 2 2 0 36 221 102 222
516 2 2 0 36 219 222 220
517 2 2 0 36 219 221 222
518 2 2 0 40 102 15 2
519 2 2 0 40 252 4 29
520 2 2 0 40 252 104 4
521 2 2 0 40 11 82 223
522 2 2 0 40 11 223 101
523 2 2 0 40 96 12 103
524 2 2 0 40 224 16 15
525 2 2 0 40 102 224 15
526 2 2 0 40 226 17 16
527 2 2 0 40 224 226 16
528 2 2 0 40 228 18 17
529 2 2 0 40 226 228 17
530 2 2 0 40 230 19 18
531 2 2 0 40 228 230 18
532 2 2 0 40 232 20 19
533 2 2 0 40 230 232 19
534 2 2 0 40 234 21 20
535 2 2 0 40 232 234 20
536 2 2 0 40 236 22 21
537 2 2 0 40 234 236 21
538 2 2 0 40 238 23 22
539 2 2 0 40 236 238 22
540 2 2 0 40 240 24 23
541 2 2 0 40 238 240 23
542 2 2 0 40 242 25 24
543 2 2 0 40 240 242 24
544 2 2 0 40 244 26 25
545 2 2 0 40 242 244 25
546 2 2 0 40 246 27 26
547 2 2 0 40 244 246 26
548 2 2 0 40 248 28 27
549 2 2 0 40 246 248 27
550 2 2 0 40 250 29 28
551 2 2 0 40 248 250 28
552 2 2 0 40 250 252 29
553 2 2 0 40 82 83 225
554 2 2 0 40 82 225 223
555 2 2 0 40 83 84 227
556 2 2 0 40 83 227 225
557 2 2 0 40 84 85 229
558 2 2 0 40 84 229 227
559 2 2 0 40 85 86 231
560 2 2 0 40 85 231 229
561 2 2 0 40 86 87 233
562 2 2 0 40 86 233 231
563 2 2 0 40 87 88 235
564 2 2 0 40 87 235 233
565 2 2 0 40 88 89 237
566 2 2 0 40 88 237 235
567 2 2 0 40 89 90 239
568 2 2 0 40 89 239 237
569 2 2 0 40 90 91 241
570 2 2 0 40 90 241 239
571 2 2 0 40 91 92 243
572 2 2 0 40 91 243 241
573 2 2 0 40 92 93 245
574 2 2 0 40 92 245 243
575 2 2 0 40 93 94 247
576 2 2 0 40 93 247 245
577 2 2 0 40 94 95 249
578 2 2 0 40 94 249 247
579 2 2 0 40 95 96 251
580 2 2 0 40 95 251 249
581 2 2 0 40 96 103 251
582 2 2 0 40 101 224 102
583 2 2 0 40 101 223 224
584 2 2 0 40 251 103 104
585 2 2 0 40 251 104 252
586 2 2 0 40 223 226 224
587 2 2 0 40 223 225 226
588 2 2 0 40 225 228 226
589 2 2 0 40 225 227 228
590 2 2 0 40 227 230 228
591 2 2 0 40 227 229 230
592 2 2 0 40 229 232 230
593 2 2 0 40 229 231 232
594 2 2 0 40 231 234 232
595 2 2 0 40 231 233 234
596 2 2 0 40 233 236 234
597 2 2 0 40 233 235 236
598 2 2 0 40 235 238 236
599 2 2 0 40 235 237 238
600 2 2 0 40 237 240 238
601 2 2 0 40 237 239 240
602 2 2 0 40 239 242 240
603 2 2 0 40 239 241 242
604 2 2 0 40 241 244 242
605 2 2 0 40 241 243 244
606 2 2 0 40 243 246 244
607 2 2 0 40 243 245 246
608 2 2 0 40 245 248 246
609 2 2 0 40 245 247 248
610 2 2 0 40 247 250 248
611 2 2 0 40 247 249 250
612 2 2 0 40 249 252 250
613 2 2 0 40 249 251 252
614 2 2 0 43 104 30 4
615 2 2 0 43 256 5 31
616 2 2 0 43 100 5 255
617 2 2 0 43 255 5 256
618 2 2 0 43 12 99 253
619 2 2 0 43 12 253 103
620 2 2 0 43 254 31 30
621 2 2 0 43 104 254 30
622 2 2 0 43 254 256 31
623 2 2 0 43 99 100 255
624 2 2 0 43 99 255 253
625 2 2 0 43 103 254 104
626 2 2 0 43 103 253 254
627 2 2 0 43 253 256 254
628 2 2 0 43 253 255 256
629 4 2 0 1 90 202 200 279
630 4 2 0 1 89 90 200 279
631 4 2 0 1 247 245 248 262
632 4 2 0 1 248 245 246 262
633 4 2 0 1 134 132 48 261
634 4 2 0 1 47 48 132 261
635 4 2 0 1 114 111 112 269
636 4 2 0 1 50 8 138 276
637 4 2 0 1 138 8 52 276
638 4 2 0 1 293 299 276 306
639 4 2 0 1 74 276 299 306
640 4 2 0 1 284 267 303 318
641 4 2 0 1 290 295 307 311
642 4 2 0 1 159 41 270 294
643 4 2 0 1 74 293 276 306
644 4 2 0 1 159 270 286 294
645 4 2 0 1 263 301 296 318
646 4 2 0 1 175 299 276 316
647 4 2 0 1 152 297 284 301
648 4 2 0 1 61 297 152 301
649 4 2 0 1 296 303 267 318
650 4 2 0 1 165 305 300 315
651 4 2 0 1 21 259 294 298
652 4 2 0 1 290 295 11 307
653 4 2 0 1 175 74 276 299
654 4 2 0 1 300 313 291 315
655 4 2 0 1 276 299 293 316
656 4 2 0 1 275 297 273 310
657 4 2 0 1 19 232 297 304
658 4 2 0 1 21 259 236 294
659 4 2 0 1 285 297 232 304
660 4 2 0 1 192 273 275 297
661 4 2 0 1 165 300 291 315
662 4 2 0 1 283 305 298 312
663 4 2 0 1 278 300 280 313
664 4 2 0 1 170 268 172 309
665 4 2 0 1 161 283 298 312
666 4 2 0 1 292 299 95 308
667 4 2 0 1 95 302 292 308
668 4 2 0 1 138 276 293 316
669 4 2 0 1 282 299 214 306
670 4 2 0 1 267 284 37 318
671 4 2 0 1 212 95 299 308
672 4 2 0 1 244 291 313 315
673 4 2 0 1 149 284 267 303
674 4 2 0 1 8 276 74 293
675 4 2 0 1 251 293 103 299
676 4 2 0 1 251 252 293 299
677 4 2 0 1 223 296 290 307
678 4 2 0 1 103 299 293 306
679 4 2 0 1 235 259 237 298
680 4 2 0 1 226 296 263 301
681 4 2 0 1 290 307 296 311
682 4 2 0 1 152 301 284 303
683 4 2 0 1 245 262 247 314
684 4 2 0 1 290 296 223 301
685 4 2 0 1 80 295 290 311
686 4 2 0 1 81 11 290 295
687 4 2 0 1 98 282 214 306
688 4 2 0 1 61 301 152 303
689 4 2 0 1 61 189 297 301
690 4 2 0 1 286 294 198 298
691 4 2 0 1 103 12 299 306
692 4 2 0 1 88 198 294 298
693 4 2 0 1 263 296 16 318
694 4 2 0 1 158 294 270 304
695 4 2 0 1 207 302 268 313
696 4 2 0 1 243 300 241 315
697 4 2 0 1 103 251 104 293
698 4 2 0 1 104 251 252 293
699 4 2 0 1 223 290 101 307
700 4 2 0 1 164 305 283 312
701 4 2 0 1 19 232 230 297
702 4 2 0 1 101 290 11 307
703 4 2 0 1 45 165 291 315
704 4 2 0 1 228 301 263 317
705 4 2 0 1 45 305 165 315
706 4 2 0 1 247 262 248 314
707 4 2 0 1 70 207 268 313
708 4 2 0 1 252 29 293 299
709 4 2 0 1 18 115 304 317
710 4 2 0 1 244 313 291 314
711 4 2 0 1 11 295 79 307
712 4 2 0 1 244 246 313 314
713 4 2 0 1 286 298 198 312
714 4 2 0 1 96 251 103 299
715 4 2 0 1 103 12 96 299
716 4 2 0 1 161 283 43 298
717 4 2 0 1 116 284 297 317
718 4 2 0 1 43 298 283 305
719 4 2 0 1 88 294 235 298
720 4 2 0 1 168 167 165 300
721 4 2 0 1 166 168 165 300
722 4 2 0 1 284 303 301 318
723 4 2 0 1 167 291 165 300
724 4 2 0 1 168 291 167 300
725 4 2 0 1 73 299 282 306
726 4 2 0 1 29 137 293 299
727 4 2 0 1 84 227 264 317
728 4 2 0 1 80 81 290 295
729 4 2 0 1 206 278 280 313
730 4 2 0 1 297 304 285 310
731 4 2 0 1 244 243 241 315
732 4 2 0 1 241 242 244 315
733 4 2 0 1 270 158 286 294
734 4 2 0 1 52 138 276 293
735 4 2 0 1 197 198 286 294
736 4 2 0 1 200 198 89 298
737 4 2 0 1 88 89 198 298
738 4 2 0 1 29 292 137 299
739 4 2 0 1 184 79 11 295
740 4 2 0 1 37 36 149 267
741 4 2 0 1 147 149 36 267
742 4 2 0 1 116 297 284 304
743 4 2 0 1 137 299 292 316
744 4 2 0 1 82 290 223 301
745 4 2 0 1 36 267 296 311
746 4 2 0 1 223 296 224 301
747 4 2 0 1 249 95 292 299
748 4 2 0 1 137 260 138 316
749 4 2 0 1 200 198 298 312
750 4 2 0 1 252 292 29 299
751 4 2 0 1 81 184 11 295
752 4 2 0 1 137 293 299 316
753 4 2 0 1 154 304 297 310
754 4 2 0 1 224 296 226 301
755 4 2 0 1 249 251 95 299
756 4 2 0 1 96 95 251 299
757 4 2 0 1 249 292 251 299
758 4 2 0 1 209 302 210 308
759 4 2 0 1 251 292 252 299
760 4 2 0 1 261 309 133 314
761 4 2 0 1 126 315 258 320
762 4 2 0 1 92 280 300 313
763 4 2 0 1 61 189 301 303
764 4 2 0 1 19 18 117 304
765 4 2 0 1 18 115 117 304
766 4 2 0 1 211 212 299 308
767 4 2 0 1 237 259 238 298
768 4 2 0 1 197 286 198 312
769 4 2 0 1 73 282 10 306
770 4 2 0 1 37 284 269 318
771 4 2 0 1 190 297 189 301
772 4 2 0 1 187 301 189 303
773 4 2 0 1 152 154 284 297
774 4 2 0 1 149 37 267 284
775 4 2 0 1 232 285 230 297
776 4 2 0 1 94 292 95 302
777 4 2 0 1 69 68 278 300
778 4 2 0 1 126 128 258 315
779 4 2 0 1 226 225 223 301
780 4 2 0 1 223 224 226 301
781 4 2 0 1 83 290 82 301
782 4 2 0 1 16 263 226 296
783 4 2 0 1 191 297 275 310
784 4 2 0 1 245 246 262 314
785 4 2 0 1 5 100 255 306
786 4 2 0 1 158 257 155 304
787 4 2 0 1 224 296 223 307
788 4 2 0 1 79 295 221 307
789 4 2 0 1 61 62 152 297
790 4 2 0 1 152 62 154 297
791 4 2 0 1 42 294 159 298
792 4 2 0 1 159 294 286 298
793 4 2 0 1 213 214 282 299
794 4 2 0 1 197 195 198 294
795 4 2 0 1 195 196 198 294
796 4 2 0 1 91 92 280 300
797 4 2 0 1 88 198 196 294
798 4 2 0 1 196 87 88 294
799 4 2 0 1 227 229 84 264
800 4 2 0 1 229 85 84 264
801 4 2 0 1 166 300 165 305
802 4 2 0 1 267 303 296 311
803 4 2 0 1 209 212 211 308
804 4 2 0 1 209 210 212 308
805 4 2 0 1 153 297 154 304
806 4 2 0 1 5 54 179 293
807 4 2 0 1 37 269 112 318
808 4 2 0 1 154 297 62 310
809 4 2 0 1 183 184 81 295
810 4 2 0 1 241 300 288 315
811 4 2 0 1 232 19 20 294
812 4 2 0 1 232 20 234 294
813 4 2 0 1 19 117 294 304
814 4 2 0 1 80 183 81 295
815 4 2 0 1 94 95 210 302
816 4 2 0 1 96 12 214 299
817 4 2 0 1 300 305 68 312
818 4 2 0 1 233 235 87 294
819 4 2 0 1 88 87 235 294
820 4 2 0 1 285 304 294 310
821 4 2 0 1 297 301 84 317
822 4 2 0 1 232 234 285 294
823 4 2 0 1 82 11 223 290
824 4 2 0 1 223 11 101 290
825 4 2 0 1 153 284 297 304
826 4 2 0 1 136 260 292 316
827 4 2 0 1 79 221 101 307
828 4 2 0 1 148 271 58 311
829 4 2 0 1 237 89 88 298
830 4 2 0 1 88 235 237 298
831 4 2 0 1 204 280 278 300
832 4 2 0 1 137 138 293 316
833 4 2 0 1 82 223 225 301
834 4 2 0 1 225 83 82 301
835 4 2 0 1 153 284 154 297
836 4 2 0 1 101 11 79 307
837 4 2 0 1 84 297 190 301
838 4 2 0 1 169 291 170 309
839 4 2 0 1 192 275 191 297
840 4 2 0 1 197 286 195 294
841 4 2 0 1 19 117 119 294
842 4 2 0 1 19 119 20 294
843 4 2 0 1 166 68 300 305
844 4 2 0 1 94 247 292 302
845 4 2 0 1 179 5 293 306
846 4 2 0 1 85 285 273 297
847 4 2 0 1 117 119 294 304
848 4 2 0 1 154 156 304 310
849 4 2 0 1 61 60 189 303
850 4 2 0 1 187 189 60 303
851 4 2 0 1 136 260 135 292
852 4 2 0 1 22 259 21 298
853 4 2 0 1 75 74 299 306
854 4 2 0 1 89 90 279 288
855 4 2 0 1 42 122 294 298
856 4 2 0 1 244 246 243 313
857 4 2 0 1 152 284 151 303
858 4 2 0 1 236 235 233 294
859 4 2 0 1 233 234 236 294
860 4 2 0 1 301 317 284 318
861 4 2 0 1 43 283 44 305
862 4 2 0 1 212 95 96 299
863 4 2 0 1 96 214 212 299
864 4 2 0 1 56 183 80 295
865 4 2 0 1 67 68 305 312
866 4 2 0 1 133 261 134 309
867 4 2 0 1 41 257 294 304
868 4 2 0 1 241 288 242 315
869 4 2 0 1 161 43 42 298
870 4 2 0 1 42 159 161 298
871 4 2 0 1 218 100 5 306
872 4 2 0 1 179 180 5 306
873 4 2 0 1 244 291 25 314
874 4 2 0 1 287 290 83 301
875 4 2 0 1 191 62 61 297
876 4 2 0 1 61 189 191 297
877 4 2 0 1 249 95 94 292
878 4 2 0 1 94 247 249 292
879 4 2 0 1 56 272 55 295
880 4 2 0 1 294 304 158 310
881 4 2 0 1 284 301 297 317
882 4 2 0 1 5 142 54 293
883 4 2 0 1 5 256 31 293
884 4 2 0 1 64 195 286 294
885 4 2 0 1 159 286 161 298
886 4 2 0 1 244 25 291 315
887 4 2 0 1 121 21 294 298
888 4 2 0 1 229 230 285 297
889 4 2 0 1 292 302 247 314
890 4 2 0 1 192 85 273 297
891 4 2 0 1 195 196 294 310
892 4 2 0 1 69 168 166 300
893 4 2 0 1 166 68 69 300
894 4 2 0 1 46 45 167 291
895 4 2 0 1 45 165 167 291
896 4 2 0 1 71 72 274 308
897 4 2 0 1 121 294 122 298
898 4 2 0 1 175 176 75 299
899 4 2 0 1 75 74 175 299
900 4 2 0 1 167 168 170 291
901 4 2 0 1 170 169 167 291
902 4 2 0 1 149 151 284 303
903 4 2 0 1 284 317 113 318
904 4 2 0 1 161 298 286 312
905 4 2 0 1 74 177 293 306
906 4 2 0 1 166 164 68 305
907 4 2 0 1 164 67 68 305
908 4 2 0 1 72 211 299 308
909 4 2 0 1 238 259 22 298
910 4 2 0 1 279 288 202 312
911 4 2 0 1 196 87 294 310
912 4 2 0 1 200 199 197 312
913 4 2 0 1 197 198 200 312
914 4 2 0 1 219 221 78 295
915 4 2 0 1 54 53 179 293
916 4 2 0 1 243 277 92 313
917 4 2 0 1 4 104 252 293
918 4 2 0 1 252 29 4 293
919 4 2 0 1 164 163 283 305
920 4 2 0 1 63 156 154 310
921 4 2 0 1 154 62 63 310
922 4 2 0 1 20 21 234 294
923 4 2 0 1 236 234 21 294
924 4 2 0 1 158 304 156 310
925 4 2 0 1 273 297 285 310
926 4 2 0 1 161 286 162 312
927 4 2 0 1 203 278 68 300
928 4 2 0 1 263 317 301 318
929 4 2 0 1 245 247 302 314
930 4 2 0 1 64 294 158 310
931 4 2 0 1 195 294 64 310
932 4 2 0 1 174 72 299 308
933 4 2 0 1 91 280 204 300
934 4 2 0 1 203 300 68 312
935 4 2 0 1 301 303 296 318
936 4 2 0 1 80 290 9 311
937 4 2 0 1 149 152 151 303
938 4 2 0 1 150 152 149 303
939 4 2 0 1 295 311 145 319
940 4 2 0 1 89 237 288 298
941 4 2 0 1 250 252 249 292
942 4 2 0 1 249 252 251 292
943 4 2 0 1 179 293 177 306
944 4 2 0 1 274 308 174 316
945 4 2 0 1 254 253 103 293
946 4 2 0 1 177 53 8 293
947 4 2 0 1 52 276 8 293
948 4 2 0 1 172 274 171 309
949 4 2 0 1 174 308 299 316
950 4 2 0 1 213 282 73 299
951 4 2 0 1 31 141 5 293
952 4 2 0 1 5 141 142 293
953 4 2 0 1 233 87 285 294
954 4 2 0 1 8 74 177 293
955 4 2 0 1 254 103 104 293
956 4 2 0 1 243 92 300 313
957 4 2 0 1 285 294 87 310
958 4 2 0 1 192 191 189 297
959 4 2 0 1 192 189 190 297
960 4 2 0 1 244 25 26 314
961 4 2 0 1 244 26 246 314
962 4 2 0 1 218 5 217 306
963 4 2 0 1 5 180 77 306
964 4 2 0 1 146 56 9 311
965 4 2 0 1 42 41 159 294
966 4 2 0 1 207 209 268 302
967 4 2 0 1 190 84 85 297
968 4 2 0 1 85 192 190 297
969 4 2 0 1 182 78 79 295
970 4 2 0 1 9 58 146 311
971 4 2 0 1 107 266 307 319
972 4 2 0 1 136 292 134 309
973 4 2 0 1 233 285 234 294
974 4 2 0 1 20 119 121 294
975 4 2 0 1 121 21 20 294
976 4 2 0 1 177 179 53 293
977 4 2 0 1 79 78 221 295
978 4 2 0 1 221 295 219 307
979 4 2 0 1 174 274 72 308
980 4 2 0 1 158 64 286 294
981 4 2 0 1 143 272 145 295
982 4 2 0 1 90 202 279 288
983 4 2 0 1 191 62 297 310
984 4 2 0 1 155 158 157 257
985 4 2 0 1 187 287 301 303
986 4 2 0 1 213 211 214 299
987 4 2 0 1 211 212 214 299
988 4 2 0 1 98 97 282 306
989 4 2 0 1 5 77 217 306
990 4 2 0 1 36 311 296 319
991 4 2 0 1 148 303 271 311
992 4 2 0 1 204 278 203 300
993 4 2 0 1 199 286 197 312
994 4 2 0 1 127 258 128 315
995 4 2 0 1 67 201 203 312
996 4 2 0 1 203 68 67 312
997 4 2 0 1 42 122 120 294
998 4 2 0 1 120 41 42 294
999 4 2 0 1 124 122 43 298
1000 4 2 0 1 42 43 122 298
1001 4 2 0 1 119 120 122 294
1002 4 2 0 1 121 119 122 294
1003 4 2 0 1 227 84 301 317
1004 4 2 0 1 296 301 290 303
1005 4 2 0 1 43 124 298 305
1006 4 2 0 1 67 305 164 312
1007 4 2 0 1 91 243 92 300
1008 4 2 0 1 241 243 91 300
1009 4 2 0 1 133 309 292 314
1010 4 2 0 1 191 275 193 310
1011 4 2 0 1 63 64 156 310
1012 4 2 0 1 64 158 156 310
1013 4 2 0 1 131 261 133 314
1014 4 2 0 1 298 305 124 320
1015 4 2 0 1 83 287 82 290
1016 4 2 0 1 107 108 266 319
1017 4 2 0 1 71 211 72 308
1018 4 2 0 1 209 211 71 308
1019 4 2 0 1 224 223 101 307
1020 4 2 0 1 102 224 101 307
1021 4 2 0 1 247 248 292 314
1022 4 2 0 1 47 291 169 309
1023 4 2 0 1 145 146 58 311
1024 4 2 0 1 9 290 59 311
1025 4 2 0 1 79 184 182 295
1026 4 2 0 1 69 205 207 313
1027 4 2 0 1 69 207 70 313
1028 4 2 0 1 136 134 49 309
1029 4 2 0 1 48 49 134 309
1030 4 2 0 1 128 305 45 315
1031 4 2 0 1 126 124 305 320
1032 4 2 0 1 290 301 287 303
1033 4 2 0 1 73 176 174 299
1034 4 2 0 1 174 72 73 299
1035 4 2 0 1 194 275 273 310
1036 4 2 0 1 115 118 117 304
1037 4 2 0 1 116 118 115 304
1038 4 2 0 1 237 238 288 298
1039 4 2 0 1 181 182 184 295
1040 4 2 0 1 156 155 153 304
1041 4 2 0 1 153 154 156 304
1042 4 2 0 1 244 242 25 315
1043 4 2 0 1 25 242 24 315
1044 4 2 0 1 72 211 213 299
1045 4 2 0 1 73 72 213 299
1046 4 2 0 1 126 305 315 320
1047 4 2 0 1 180 179 177 306
1048 4 2 0 1 218 216 100 306
1049 4 2 0 1 158 155 156 304
1050 4 2 0 1 174 299 176 316
1051 4 2 0 1 126 305 128 315
1052 4 2 0 1 114 284 113 318
1053 4 2 0 1 61 152 150 303
1054 4 2 0 1 150 60 61 303
1055 4 2 0 1 7 57 271 319
1056 4 2 0 1 169 46 167 291
1057 4 2 0 1 47 46 169 291
1058 4 2 0 1 229 285 85 297
1059 4 2 0 1 247 93 245 302
1060 4 2 0 1 94 93 247 302
1061 4 2 0 1 290 303 59 311
1062 4 2 0 1 238 288 298 320
1063 4 2 0 1 291 313 302 314
1064 4 2 0 1 107 295 105 319
1065 4 2 0 1 43 44 124 305
1066 4 2 0 1 126 124 44 305
1067 4 2 0 1 133 134 292 309
1068 4 2 0 1 116 284 39 304
1069 4 2 0 1 153 39 284 304
1070 4 2 0 1 175 176 299 316
1071 4 2 0 1 25 129 291 315
1072 4 2 0 1 154 151 152 284
1073 4 2 0 1 153 151 154 284
1074 4 2 0 1 113 114 116 284
1075 4 2 0 1 124 123 121 298
1076 4 2 0 1 121 122 124 298
1077 4 2 0 1 74 178 177 306
1078 4 2 0 1 99 216 98 306
1079 4 2 0 1 126 258 125 320
1080 4 2 0 1 16 224 15 296
1081 4 2 0 1 226 224 16 296
1082 4 2 0 1 98 12 99 306
1083 4 2 0 1 75 178 74 306
1084 4 2 0 1 15 296 224 307
1085 4 2 0 1 34 307 266 319
1086 4 2 0 1 258 315 24 320
1087 4 2 0 1 296 311 307 319
1088 4 2 0 1 173 274 174 316
1089 4 2 0 1 220 222 219 307
1090 4 2 0 1 91 204 288 300
1091 4 2 0 1 184 183 181 295
1092 4 2 0 1 25 129 131 291
1093 4 2 0 1 34 296 307 319
1094 4 2 0 1 51 4 29 293
1095 4 2 0 1 51 137 52 293
1096 4 2 0 1 52 137 138 293
1097 4 2 0 1 29 137 51 293
1098 4 2 0 1 59 148 58 311
1099 4 2 0 1 58 9 59 311
1100 4 2 0 1 121 123 21 298
1101 4 2 0 1 22 21 123 298
1102 4 2 0 1 107 307 295 319
1103 4 2 0 1 99 100 216 306
1104 4 2 0 1 177 178 180 306
1105 4 2 0 1 197 64 195 286
1106 4 2 0 1 197 65 64 286
1107 4 2 0 1 123 298 124 320
1108 4 2 0 1 228 227 301 317
1109 4 2 0 1 110 36 296 319
1110 4 2 0 1 228 227 225 301
1111 4 2 0 1 242 315 288 320
1112 4 2 0 1 138 50 276 316
1113 4 2 0 1 300 305 288 315
1114 4 2 0 1 292 308 302 309
1115 4 2 0 1 105 295 106 319
1116 4 2 0 1 17 317 263 318
1117 4 2 0 1 29 28 137 292
1118 4 2 0 1 28 135 137 292
1119 4 2 0 1 110 296 109 319
1120 4 2 0 1 296 303 290 311
1121 4 2 0 1 181 183 55 295
1122 4 2 0 1 109 296 34 319
1123 4 2 0 1 114 269 284 318
1124 4 2 0 1 130 291 129 315
1125 4 2 0 1 163 164 166 305
1126 4 2 0 1 163 166 165 305
1127 4 2 0 1 307 311 295 319
1128 4 2 0 1 27 248 262 314
1129 4 2 0 1 59 303 148 311
1130 4 2 0 1 133 136 135 292
1131 4 2 0 1 133 134 136 292
1132 4 2 0 1 292 309 302 314
1133 4 2 0 1 238 298 22 320
1134 4 2 0 1 84 190 287 301
1135 4 2 0 1 288 305 300 312
1136 4 2 0 1 299 308 292 316
1137 4 2 0 1 169 170 172 309
1138 4 2 0 1 172 171 169 309
1139 4 2 0 1 242 24 315 320
1140 4 2 0 1 149 267 147 303
1141 4 2 0 1 202 91 204 288
1142 4 2 0 1 91 202 90 288
1143 4 2 0 1 34 35 110 319
1144 4 2 0 1 110 109 34 319
1145 4 2 0 1 222 221 219 307
1146 4 2 0 1 206 205 278 313
1147 4 2 0 1 241 91 288 300
1148 4 2 0 1 28 29 250 292
1149 4 2 0 1 29 252 250 292
1150 4 2 0 1 109 296 15 307
1151 4 2 0 1 254 31 256 293
1152 4 2 0 1 54 142 140 293
1153 4 2 0 1 109 34 296 307
1154 4 2 0 1 1 13 220 289
1155 4 2 0 1 83 84 287 301
1156 4 2 0 1 191 193 62 310
1157 4 2 0 1 193 63 62 310
1158 4 2 0 1 302 309 291 314
1159 4 2 0 1 187 290 287 303
1160 4 2 0 1 196 285 87 310
1161 4 2 0 1 92 277 93 313
1162 4 2 0 1 83 227 84 301
1163 4 2 0 1 227 83 225 301
1164 4 2 0 1 44 283 163 305
1165 4 2 0 1 16 17 263 318
1166 4 2 0 1 47 130 46 291
1167 4 2 0 1 132 130 47 291
1168 4 2 0 1 56 55 183 295
1169 4 2 0 1 130 129 127 315
1170 4 2 0 1 127 128 130 315
1171 4 2 0 1 207 208 302 313
1172 4 2 0 1 123 124 126 320
1173 4 2 0 1 126 125 123 320
1174 4 2 0 1 32 143 145 295
1175 4 2 0 1 288 315 305 320
1176 4 2 0 1 138 260 50 316
1177 4 2 0 1 94 210 208 302
1178 4 2 0 1 208 93 94 302
1179 4 2 0 1 129 130 132 291
1180 4 2 0 1 132 131 129 291
1181 4 2 0 1 93 302 208 313
1182 4 2 0 1 305 312 288 320
1183 4 2 0 1 298 312 305 320
1184 4 2 0 1 240 288 238 320
1185 4 2 0 1 219 78 1 295
1186 4 2 0 1 144 272 143 295
1187 4 2 0 1 105 106 108 319
1188 4 2 0 1 207 210 209 302
1189 4 2 0 1 207 208 210 302
1190 4 2 0 1 231 229 232 285
1191 4 2 0 1 230 232 229 285
1192 4 2 0 1 220 289 13 307
1193 4 2 0 1 109 15 2 307
1194 4 2 0 1 109 2 34 307
1195 4 2 0 1 24 258 127 315
1196 4 2 0 1 140 53 54 293
1197 4 2 0 1 30 31 254 293
1198 4 2 0 1 55 272 144 295
1199 4 2 0 1 126 45 128 305
1200 4 2 0 1 126 44 45 305
1201 4 2 0 1 16 296 111 318
1202 4 2 0 1 298 288 312 320
1203 4 2 0 1 249 247 250 292
1204 4 2 0 1 247 248 250 292
1205 4 2 0 1 22 298 123 320
1206 4 2 0 1 26 262 246 314
1207 4 2 0 1 104 30 254 293
1208 4 2 0 1 53 140 52 293
1209 4 2 0 1 106 295 32 319
1210 4 2 0 1 7 57 147 271
1211 4 2 0 1 78 182 1 295
1212 4 2 0 1 30 104 4 293
1213 4 2 0 1 8 53 52 293
1214 4 2 0 1 228 264 227 317
1215 4 2 0 1 127 129 24 315
1216 4 2 0 1 25 24 129 315
1217 4 2 0 1 10 282 97 306
1218 4 2 0 1 82 186 81 290
1219 4 2 0 1 59 9 185 290
1220 4 2 0 1 80 185 9 290
1221 4 2 0 1 81 11 82 290
1222 4 2 0 1 112 111 296 318
1223 4 2 0 1 33 32 145 295
1224 4 2 0 1 116 39 40 304
1225 4 2 0 1 116 40 118 304
1226 4 2 0 1 40 39 155 304
1227 4 2 0 1 153 155 39 304
1228 4 2 0 1 32 295 33 319
1229 4 2 0 1 147 271 148 303
1230 4 2 0 1 67 162 66 312
1231 4 2 0 1 162 67 164 312
1232 4 2 0 1 44 163 165 305
1233 4 2 0 1 165 45 44 305
1234 4 2 0 1 172 72 174 274
1235 4 2 0 1 71 72 172 274
1236 4 2 0 1 194 273 285 310
1237 4 2 0 1 35 34 266 319
1238 4 2 0 1 27 262 26 314
1239 4 2 0 1 33 295 145 319
1240 4 2 0 1 48 261 47 309
1241 4 2 0 1 185 290 187 303
1242 4 2 0 1 107 105 108 319
1243 4 2 0 1 63 193 195 310
1244 4 2 0 1 195 64 63 310
1245 4 2 0 1 218 217 215 306
1246 4 2 0 1 180 178 77 306
1247 4 2 0 1 160 270 158 286
1248 4 2 0 1 175 276 50 316
1249 4 2 0 1 48 134 261 309
1250 4 2 0 1 196 194 285 310
1251 4 2 0 1 34 107 266 307
1252 4 2 0 1 181 1 182 295
1253 4 2 0 1 37 38 269 284
1254 4 2 0 1 112 269 111 318
1255 4 2 0 1 162 286 66 312
1256 4 2 0 1 23 238 22 320
1257 4 2 0 1 240 238 23 320
1258 4 2 0 1 113 115 17 317
1259 4 2 0 1 115 18 17 317
1260 4 2 0 1 175 173 176 316
1261 4 2 0 1 174 176 173 316
1262 4 2 0 1 92 206 280 313
1263 4 2 0 1 40 265 118 304
1264 4 2 0 1 35 7 36 319
1265 4 2 0 1 110 35 36 319
1266 4 2 0 1 15 109 111 296
1267 4 2 0 1 111 16 15 296
1268 4 2 0 1 205 69 68 278
1269 4 2 0 1 68 203 205 278
1270 4 2 0 1 66 286 199 312
1271 4 2 0 1 133 292 27 314
1272 4 2 0 1 40 155 257 304
1273 4 2 0 1 161 164 163 283
1274 4 2 0 1 187 60 59 303
1275 4 2 0 1 59 185 187 303
1276 4 2 0 1 76 77 178 306
1277 4 2 0 1 215 216 218 306
1278 4 2 0 1 181 55 1 295
1279 4 2 0 1 59 290 185 303
1280 4 2 0 1 106 32 33 319
1281 4 2 0 1 125 128 127 258
1282 4 2 0 1 126 128 125 258
1283 4 2 0 1 110 112 109 296
1284 4 2 0 1 112 111 109 296
1285 4 2 0 1 242 288 240 320
1286 4 2 0 1 23 258 24 320
1287 4 2 0 1 215 97 216 306
1288 4 2 0 1 76 178 75 306
1289 4 2 0 1 27 292 248 314
1290 4 2 0 1 141 139 142 293
1291 4 2 0 1 141 31 30 293
1292 4 2 0 1 193 275 194 310
1293 4 2 0 1 239 90 89 288
1294 4 2 0 1 89 237 239 288
1295 4 2 0 1 240 239 237 288
1296 4 2 0 1 237 238 240 288
1297 4 2 0 1 75 10 76 306
1298 4 2 0 1 216 97 98 306
1299 4 2 0 1 23 24 240 320
1300 4 2 0 1 24 242 240 320
1301 4 2 0 1 196 193 194 310
1302 4 2 0 1 195 193 196 310
1303 4 2 0 1 208 205 206 313
1304 4 2 0 1 207 205 208 313
1305 4 2 0 1 113 317 17 318
1306 4 2 0 1 157 159 41 270
1307 4 2 0 1 71 170 70 268
1308 4 2 0 1 170 71 172 268
1309 4 2 0 1 138 137 135 260
1310 4 2 0 1 135 136 138 260
1311 4 2 0 1 98 97 213 282
1312 4 2 0 1 214 98 213 282
1313 4 2 0 1 235 238 237 259
1314 4 2 0 1 236 238 235 259
1315 4 2 0 1 102 2 15 307
1316 4 2 0 1 15 224 102 307
1317 4 2 0 1 220 13 14 307
1318 4 2 0 1 76 217 77 306
1319 4 2 0 1 222 102 221 307
1320 4 2 0 1 55 144 1 295
1321 4 2 0 1 1 143 32 295
1322 4 2 0 1 221 102 101 307
1323 4 2 0 1 160 159 270 286
1324 4 2 0 1 144 143 1 295
1325 4 2 0 1 86 194 273 285
1326 4 2 0 1 194 86 87 285
1327 4 2 0 1 231 232 234 285
1328 4 2 0 1 234 233 231 285
1329 4 2 0 1 87 196 194 285
1330 4 2 0 1 33 145 57 319
1331 4 2 0 1 7 33 57 319
1332 4 2 0 1 33 108 106 319
1333 4 2 0 1 139 140 142 293
1334 4 2 0 1 30 139 141 293
1335 4 2 0 1 131 133 26 314
1336 4 2 0 1 133 27 26 314
1337 4 2 0 1 47 169 171 309
1338 4 2 0 1 48 47 171 309
1339 4 2 0 1 150 149 147 303
1340 4 2 0 1 147 148 150 303
1341 4 2 0 1 14 222 220 307
1342 4 2 0 1 215 217 76 306
1343 4 2 0 1 188 190 187 287
1344 4 2 0 1 84 190 188 287
1345 4 2 0 1 188 83 84 287
1346 4 2 0 1 37 149 151 284
1347 4 2 0 1 37 151 38 284
1348 4 2 0 1 113 16 111 318
1349 4 2 0 1 16 113 17 318
1350 4 2 0 1 135 27 133 292
1351 4 2 0 1 135 28 27 292
1352 4 2 0 1 22 123 125 320
1353 4 2 0 1 23 22 125 320
1354 4 2 0 1 92 93 206 313
1355 4 2 0 1 206 93 208 313
1356 4 2 0 1 80 81 186 290
1357 4 2 0 1 80 186 185 290
1358 4 2 0 1 160 162 159 286
1359 4 2 0 1 162 161 159 286
1360 4 2 0 1 199 66 65 286
1361 4 2 0 1 197 199 65 286
1362 4 2 0 1 215 76 10 306
1363 4 2 0 1 140 139 51 293
1364 4 2 0 1 139 30 4 293
1365 4 2 0 1 230 264 228 317
1366 4 2 0 1 215 10 97 306
1367 4 2 0 1 51 139 4 293
1368 4 2 0 1 51 52 140 293
1369 4 2 0 1 82 287 186 290
1370 4 2 0 1 250 248 28 292
1371 4 2 0 1 28 248 27 292
1372 4 2 0 1 201 66 199 312
1373 4 2 0 1 201 67 66 312
1374 4 2 0 1 228 263 17 317
1375 4 2 0 1 18 228 17 317
1376 4 2 0 1 230 228 18 317
1377 4 2 0 1 185 287 187 290
1378 4 2 0 1 204 206 278 280
1379 4 2 0 1 158 65 160 286
1380 4 2 0 1 158 64 65 286
1381 4 2 0 1 59 60 148 303
1382 4 2 0 1 150 148 60 303
1383 4 2 0 1 85 86 273 285
1384 4 2 0 1 90 239 241 288
1385 4 2 0 1 241 91 90 288
1386 4 2 0 1 241 239 242 288
1387 4 2 0 1 239 240 242 288
1388 4 2 0 1 108 35 266 319
1389 4 2 0 1 14 107 34 307
1390 4 2 0 1 34 2 14 307
1391 4 2 0 1 188 186 83 287
1392 4 2 0 1 82 83 186 287
1393 4 2 0 1 188 187 185 287
1394 4 2 0 1 185 186 188 287
1395 4 2 0 1 49 175 50 316
1396 4 2 0 1 175 49 173 316
1397 4 2 0 1 125 258 23 320
1398 4 2 0 1 7 108 33 319
1399 4 2 0 1 7 35 108 319
1400 4 2 0 1 194 192 273 275
1401 4 2 0 1 114 269 38 284
1402 4 2 0 1 14 2 222 307
1403 4 2 0 1 85 229 231 285
1404 4 2 0 1 231 86 85 285
1405 4 2 0 1 38 151 153 284
1406 4 2 0 1 38 39 114 284
1407 4 2 0 1 153 39 38 284
1408 4 2 0 1 116 114 39 284
1409 4 2 0 1 222 2 102 307
1410 4 2 0 1 231 233 86 285
1411 4 2 0 1 87 86 233 285
1412 4 2 0 1 66 162 160 286
1413 4 2 0 1 160 65 66 286
1414 4 2 0 1 185 186 287 290
1415 4 2 0 1 127 23 125 258
1416 4 2 0 1 35 107 108 266
1417 4 2 0 1 228 230 227 264
1418 4 2 0 1 227 230 229 264
1419 4 2 0 1 44 43 163 283
1420 4 2 0 1 22 236 21 259
1421 4 2 0 1 191 194 193 275
1422 4 2 0 1 206 203 204 278
1423 4 2 0 1 228 226 17 263
1424 4 2 0 1 26 27 246 262
1425 4 2 0 1 209 70 207 268
1426 4 2 0 1 205 203 206 278
1427 4 2 0 1 17 226 16 263
1428 4 2 0 1 192 194 191 275
1429 4 2 0 1 97 73 213 282
1430 4 2 0 1 160 157 158 270
1431 4 2 0 1 172 174 171 274
1432 4 2 0 1 155 157 40 257
1433 4 2 0 1 136 50 138 260
1434 4 2 0 1 143 144 146 272
1435 4 2 0 1 147 57 148 271
1436 4 2 0 1 159 157 160 270
1437 4 2 0 1 145 143 146 272
1438 4 2 0 1 58 148 57 271
1439 4 2 0 1 173 171 174 274
1440 4 2 0 1 70 209 71 268
1441 4 2 0 1 40 41 118 265
1442 4 2 0 1 256 255 253 281
1443 4 2 0 1 23 127 24 258
1444 4 2 0 1 192 86 194 273
1445 4 2 0 1 144 56 146 272
1446 4 2 0 1 86 192 85 273
1447 4 2 0 1 55 56 144 272
1448 4 2 0 1 41 120 118 265
1449 4 2 0 1 206 204 92 280
1450 4 2 0 1 92 204 91 280
1451 4 2 0 1 133 131 134 261
1452 4 2 0 1 40 157 41 257
1453 4 2 0 1 248 246 27 262
1454 4 2 0 1 253 255 99 281
1455 4 2 0 1 37 38 112 269
1456 4 2 0 1 34 107 35 266
1457 4 2 0 1 112 38 114 269
1458 4 2 0 1 74 8 50 276
1459 4 2 0 1 74 50 175 276
1460 4 2 0 1 161 163 43 283
1461 4 2 0 1 134 131 132 261
1462 4 2 0 1 245 92 243 277
1463 4 2 0 1 93 92 245 277
1464 4 2 0 1 97 10 73 282
1465 4 2 0 1 238 236 22 259
1466 4 2 0 1 105 13 1 289
1467 4 2 0 1 235 259 294 236
1468 4 2 0 1 235 294 259 298
1469 4 2 0 1 281 293 103 253
1470 4 2 0 1 281 103 293 306
1471 4 2 0 1 12 281 103 253
1472 4 2 0 1 12 103 281 306
1473 4 2 0 1 99 281 12 253
1474 4 2 0 1 99 12 281 306
1475 4 2 0 1 306 255 99 100
1476 4 2 0 1 306 99 255 281
1477 4 2 0 1 5 256 306 255
1478 4 2 0 1 5 306 256 293
1479 4 2 0 1 281 306 256 255
1480 4 2 0 1 281 256 306 293
1481 4 2 0 1 318 267 112 37
1482 4 2 0 1 318 112 267 296
1483 4 2 0 1 112 267 110 37
1484 4 2 0 1 112 110 267 296
1485 4 2 0 1 110 267 36 37
1486 4 2 0 1 110 36 267 296
1487 4 2 0 1 317 230 19 18
1488 4 2 0 1 19 230 317 297
1489 4 2 0 1 19 304 317 18
1490 4 2 0 1 317 304 19 297
1491 4 2 0 1 304 317 116 297
1492 4 2 0 1 116 317 304 115
1493 4 2 0 1 268 308 209 71
1494 4 2 0 1 209 308 268 302
1495 4 2 0 1 312 161 164 162
1496 4 2 0 1 312 164 161 283
1497 4 2 0 1 137 260 292 135
1498 4 2 0 1 137 292 260 316
1499 4 2 0 1 243 277 246 245
1500 4 2 0 1 243 246 277 313
1501 4 2 0 1 246 277 314 245
1502 4 2 0 1 246 314 277 313
1503 4 2 0 1 314 277 302 245
1504 4 2 0 1 314 302 277 313
1505 4 2 0 1 302 277 93 245
1506 4 2 0 1 302 93 277 313
1507 4 2 0 1 304 41 40 265
1508 4 2 0 1 304 40 41 257
1509 4 2 0 1 293 253 256 254
1510 4 2 0 1 293 256 253 281
1511 4 2 0 1 315 243 313 244
1512 4 2 0 1 315 313 243 300
1513 4 2 0 1 304 232 294 19
1514 4 2 0 1 304 294 232 285
1515 4 2 0 1 313 69 168 70
1516 4 2 0 1 168 170 313 70
1517 4 2 0 1 313 170 168 291
1518 4 2 0 1 314 291 261 309
1519 4 2 0 1 47 291 261 132
1520 4 2 0 1 47 261 291 309
1521 4 2 0 1 264 84 297 85
1522 4 2 0 1 297 84 264 317
1523 4 2 0 1 297 229 264 85
1524 4 2 0 1 308 210 95 302
1525 4 2 0 1 308 95 210 212
1526 4 2 0 1 313 278 69 205
1527 4 2 0 1 313 69 278 300
1528 4 2 0 1 158 257 270 157
1529 4 2 0 1 158 270 257 304
1530 4 2 0 1 294 257 270 304
1531 4 2 0 1 271 7 36 147
1532 4 2 0 1 267 271 36 147
1533 4 2 0 1 267 36 271 311
1534 4 2 0 1 303 271 267 147
1535 4 2 0 1 303 267 271 311
1536 4 2 0 1 309 302 274 308
1537 4 2 0 1 302 268 274 308
1538 4 2 0 1 268 274 71 172
1539 4 2 0 1 268 71 274 308
1540 4 2 0 1 56 272 311 146
1541 4 2 0 1 56 311 272 295
1542 4 2 0 1 145 311 272 146
1543 4 2 0 1 145 272 311 295
1544 4 2 0 1 41 270 257 157
1545 4 2 0 1 257 270 41 294
1546 4 2 0 1 131 261 291 132
1547 4 2 0 1 131 291 261 314
1548 4 2 0 1 311 56 80 295
1549 4 2 0 1 311 80 56 9
1550 4 2 0 1 230 264 297 229
1551 4 2 0 1 230 297 264 317
1552 4 2 0 1 317 116 113 115
1553 4 2 0 1 317 113 116 284
1554 4 2 0 1 309 48 274 171
1555 4 2 0 1 173 274 48 171
1556 4 2 0 1 271 319 36 7
1557 4 2 0 1 36 319 271 311
1558 4 2 0 1 130 291 128 46
1559 4 2 0 1 130 128 291 315
1560 4 2 0 1 45 128 291 46
1561 4 2 0 1 45 291 128 315
1562 4 2 0 1 301 226 228 263
1563 4 2 0 1 301 228 226 225
1564 4 2 0 1 214 306 12 98
1565 4 2 0 1 12 306 214 299
1566 4 2 0 1 202 312 204 201
1567 4 2 0 1 203 204 312 201
1568 4 2 0 1 203 312 204 300
1569 4 2 0 1 308 292 136 309
1570 4 2 0 1 136 292 308 316
1571 4 2 0 1 136 49 308 309
1572 4 2 0 1 308 49 136 316
1573 4 2 0 1 319 271 145 57
1574 4 2 0 1 319 145 271 311
1575 4 2 0 1 58 145 271 57
1576 4 2 0 1 58 271 145 311
1577 4 2 0 1 309 49 274 48
1578 4 2 0 1 309 274 49 308
1579 4 2 0 1 173 274 49 48
1580 4 2 0 1 75 306 176 10
1581 4 2 0 1 75 176 306 299
1582 4 2 0 1 73 176 306 10
1583 4 2 0 1 73 306 176 299
1584 4 2 0 1 316 274 49 173
1585 4 2 0 1 316 49 274 308
1586 4 2 0 1 314 25 131 291
1587 4 2 0 1 314 131 25 26
1588 4 2 0 1 316 136 50 49
1589 4 2 0 1 316 50 136 260
1590 4 2 0 1 312 202 199 201
1591 4 2 0 1 318 114 111 113
1592 4 2 0 1 318 111 114 269
1593 4 2 0 1 307 107 13 14
1594 4 2 0 1 190 187 301 189
1595 4 2 0 1 301 187 190 287
1596 4 2 0 1 1 106 295 32
1597 4 2 0 1 268 313 170 70
1598 4 2 0 1 200 279 298 89
1599 4 2 0 1 200 298 279 312
1600 4 2 0 1 288 298 279 89
1601 4 2 0 1 288 279 298 312
1602 4 2 0 1 1 105 295 106
1603 4 2 0 1 1 295 105 289
1604 4 2 0 1 312 200 202 279
1605 4 2 0 1 312 202 200 199
1606 4 2 0 1 168 313 300 69
1607 4 2 0 1 300 313 168 291
1608 4 2 0 1 265 118 117 120
1609 4 2 0 1 117 118 265 304
1610 4 2 0 1 41 265 294 120
1611 4 2 0 1 294 265 41 304
1612 4 2 0 1 265 119 294 120
1613 4 2 0 1 294 119 265 304
1614 4 2 0 1 265 117 119 120
1615 4 2 0 1 119 117 265 304
1616 4 2 0 1 312 204 288 202
1617 4 2 0 1 312 288 204 300
1618 4 2 0 1 309 268 291 170
1619 4 2 0 1 309 291 268 302
1620 4 2 0 1 313 291 268 170
1621 4 2 0 1 313 268 291 302
1622 4 2 0 1 309 268 274 302
1623 4 2 0 1 309 274 268 172
1624 4 2 0 1 307 289 219 220
1625 4 2 0 1 307 219 289 295
1626 4 2 0 1 1 219 289 220
1627 4 2 0 1 1 289 219 295
1628 4 2 0 1 13 289 107 307
1629 4 2 0 1 13 107 289 105
1630 4 2 0 1 295 107 289 307
1631 4 2 0 1 295 289 107 105
$EndElements
